<svg width="177" height="177" viewBox="0 0 177 177" fill="none" xmlns="http://www.w3.org/2000/svg">
<g clip-path="url(#clip0_566_5052)">
<path opacity="0.1" d="M88.5 153.105C49.887 153.105 18.585 122.794 18.585 85.4025C18.585 48.0114 49.887 17.7 88.5 17.7C127.113 17.7 158.415 48.0114 158.415 85.4025C158.415 122.794 127.113 153.105 88.5 153.105Z" fill="#EE7203"/>
<path opacity="0.27" d="M85.9956 177C53.2509 177 26.7061 173.573 26.7061 169.346C26.7061 165.119 53.2509 161.693 85.9956 161.693C118.74 161.693 145.285 165.119 145.285 169.346C145.285 173.573 118.74 177 85.9956 177Z" fill="#0B4870"/>
<path d="M60.2387 170.018H130.723V123.884C130.723 120.802 128.12 118.295 124.921 118.295H60.2387V170.018Z" fill="#CCE9FF"/>
<path d="M87.3907 62.6219C87.3907 62.6219 92.2053 59.0656 92.5796 53.3622C92.9539 47.6753 90.419 47.495 89.9937 44.1353C89.5683 40.7756 85.5193 34.3183 79.837 36.7111C74.1548 39.1039 72.2153 34.4986 68.9148 37.9567C65.6143 41.3983 59.9831 43.4142 64.0832 49.8878C68.1833 56.3614 74.7672 69.7019 87.3907 62.6219Z" fill="#0B4870"/>
<path d="M79.6328 159.71L78.6631 164.856L71.7219 163.709L73.6103 156.743L79.6328 159.71Z" fill="#FCD2B1"/>
<path d="M61.5488 157.956L60.5961 163.102L53.6379 161.939L55.5433 154.99L61.5488 157.956Z" fill="#FCD2B1"/>
<path d="M60.1362 161.529L56.3083 161.66C54.6921 161.709 53.3651 160.464 53.3651 158.907C53.3651 158.89 53.3651 158.89 53.3651 158.874C53.3651 157.989 51.902 158.874 51.902 158.874C51.902 158.874 52.3103 162.414 49.8094 163.299C47.3085 164.184 42.7661 160.447 41.9325 165.249C41.5242 167.642 42.0176 168.773 42.0176 168.773H56.2233C56.2233 168.773 56.5295 168.625 56.8697 168.347C57.5502 167.822 58.1287 168.019 58.8943 168.773H61.5142V162.676C61.5312 162.692 61.8545 161.529 60.1362 161.529ZM97.7344 107.232C97.7344 107.232 102.668 123.015 73.6273 123.015C70.531 123.015 69.0679 123.015 69.0679 123.015L62.0246 159.726L54.1817 158.022C54.1817 158.022 55.3046 119.622 58.0606 112.411C59.915 107.56 73.6273 107.232 73.6273 107.232H97.7344Z" fill="#0B4870"/>
<path d="M84.8896 87.3364C84.8896 87.3364 82.7801 110.281 68.7275 109.592C50.9321 108.707 41.2349 104.594 41.2519 104.397C41.2689 104.201 42.9531 103.414 42.9531 103.414L67.8939 101.939C76.2301 102.365 75.0563 86.0416 75.0563 86.0416L84.8896 87.3364Z" fill="#FCD2B1"/>
<path d="M86.3707 82.3048C85.7072 87.369 86.0815 94.3015 86.0815 94.3015L74.2406 92.7609C74.2406 92.7609 70.9912 67.0632 78.6129 66.8993C86.2346 66.7354 87.8338 71.0457 86.3707 82.3048Z" fill="#FFBE55"/>
<path d="M86.863 63.1462C86.863 63.1462 105.22 64.6049 113.063 80.7807C120.906 96.9565 122.147 108.101 122.147 108.101C122.147 108.101 110.239 108.822 99.2312 108.822C88.224 108.822 84.294 107.429 84.294 107.429C84.294 107.429 81.2828 92.0399 76.0939 78.2568C72.351 68.3087 77.2677 64.4737 86.863 63.1462Z" fill="#FFBE55"/>
<path d="M85.4169 57.6726C85.4169 57.6726 89.9593 67.2601 87.9178 69.8987C85.8763 72.5373 79.6836 72.8487 79.2243 71.259C78.7649 69.6693 77.6591 63.1793 77.6591 63.1793L85.4169 57.6726Z" fill="#FCD2B1"/>
<path d="M87.7308 52.8213C87.7308 52.8213 89.4491 51.461 90.5549 52.2968C91.6437 53.1327 91.1844 58.1149 87.7308 56.7546C87.7308 56.7546 89.2279 66.4077 76.094 66.4077C70.8371 66.4077 66.754 56.4268 67.6047 48.8388C68.047 44.9054 76.043 50.7563 73.5081 47.0524C70.2757 42.3488 85.4 45.0366 83.0523 48.2979C81.6742 50.1991 85.7063 52.1657 86.1316 53.3785C86.7781 55.1157 87.8499 52.2641 87.7308 52.8213Z" fill="#FFE3CA"/>
<path d="M122.148 108.085C122.148 108.085 127.081 123.867 98.0404 123.867C94.9441 123.867 93.481 123.867 93.481 123.867L79.8537 159.874L72.3511 158.628C72.3511 158.628 79.7006 120.475 82.4737 113.264C84.3281 108.412 98.0404 108.085 98.0404 108.085H122.148ZM78.5948 162.758L74.7669 162.889C73.1507 162.938 71.8237 161.693 71.8237 160.136C71.8237 160.119 71.8237 160.119 71.8237 160.103C71.8237 159.218 70.3606 160.103 70.3606 160.103C70.3606 160.103 70.7689 163.643 68.268 164.528C65.7672 165.413 61.2248 161.676 60.3911 166.478C59.9828 168.871 60.4762 170.002 60.4762 170.002H74.6819C74.6819 170.002 74.9881 169.854 75.3283 169.576C76.0089 169.051 76.5873 169.248 77.3529 170.002H79.9728V163.905C79.9728 163.905 80.2961 162.758 78.5948 162.758Z" fill="#0B4870"/>
<path d="M100.27 89.8766C100.27 89.8766 100.184 114.132 86.1319 113.378C73.9848 112.723 59.2347 110.035 59.2347 109.838C59.2347 109.642 58.316 107.216 58.316 107.216L84.6178 105.823C92.971 105.561 90.3681 89.3849 90.3681 89.3849L100.27 89.8766Z" fill="#FFE3CA"/>
<path d="M101.308 84.7471C101.103 89.844 100.559 92.7612 100.559 92.7612H89.7558C89.7558 92.7612 84.669 70.8165 92.2397 70.0135C99.7934 69.2268 101.767 73.3896 101.308 84.7471ZM59.1668 106.725C59.1668 106.725 59.1668 101.415 55.4921 100.71C51.8173 100.005 52.0895 101.415 49.2484 100.71C46.4073 100.005 44.3827 99.2676 42.8176 100.513C41.5926 101.48 40.708 104.922 41.2354 106.725C42.086 109.625 45.5226 107.265 45.7608 106.364C46.118 105.02 52.685 105.774 52.6509 107.233C52.6339 108.2 55.5431 111.789 57.4996 110.74C59.4561 109.691 59.1668 106.725 59.1668 106.725Z" fill="#FFBE55"/>
<path d="M64.0489 107.56C64.0489 107.56 59.5405 104.004 56.8694 104.283C52.344 104.758 51.5444 106.315 51.9527 107.216C52.5312 108.478 53.62 110.51 60.221 110.101C66.8219 109.675 64.0489 107.56 64.0489 107.56Z" fill="#FFE3CA"/>
<path d="M43.6506 104.315C44.127 104.774 44.3822 105.544 44.2291 106.282C44.093 106.987 43.6336 107.659 42.3576 107.528C39.8057 107.265 40.4692 104.168 40.4692 104.168L40.7244 103.07C40.8605 102.431 41.473 102.185 41.8813 102.594L43.6506 104.315Z" fill="#FCD2B1"/>
</g>
<defs>
<clipPath id="clip0_566_5052">
<rect width="177" height="177" fill="white" transform="matrix(-1 0 0 1 177 0)"/>
</clipPath>
</defs>
</svg>
