<svg width="177" height="177" viewBox="0 0 177 177" fill="none" xmlns="http://www.w3.org/2000/svg">
<path d="M56.5199 19.3344C75.2522 6.98959 101.576 9.50587 118.137 27.8296C127.191 37.8517 130.868 51.6375 140.267 61.4445C150.848 72.4774 163.494 83.2093 168.29 98.264C173.387 114.265 168.914 132.61 157.515 144.847C143.643 159.73 123.255 155.257 103.985 155.02C25.0771 154.031 -33.5716 101.361 41.0566 36.4322C47.2935 30.9695 50.3259 23.3992 56.5199 19.3344Z" fill="#FDF1E6"/>
<path d="M154.117 66.8428C153.709 66.9719 151.558 68.5634 151.558 68.5634L149.02 70.1979L148.913 69.2731C148.913 69.2731 147.88 67.2084 146.611 67.2945C146.611 67.2945 148.138 69.1655 148.332 70.4129C148.525 71.6603 148.611 72.5206 148.611 72.5206L146.934 74.1766L149.73 77.7682L156.289 72.8647C156.289 72.8647 154.526 66.7138 154.117 66.8428Z" fill="#DBA17B"/>
<path d="M155.429 66.8428L154.289 75.9831L149.73 76.0906L148.633 66.8428H155.429Z" fill="#FFBE55"/>
<path d="M156.418 66.9719H147.815V66.0686H148.633V64.6492L155.622 65.6815L155.644 66.1976H156.418V67.0794" fill="#0E538C"/>
<path d="M155.838 73.0368C157.429 73.1873 155.429 68.8215 155.429 68.8215C155.429 68.8215 151.128 68.5204 151.085 68.7569C151.042 68.9935 151.063 69.3806 151.407 69.4667C151.751 69.5527 154.44 69.9183 154.44 69.9183C154.44 69.9183 151.644 70.0473 151.687 70.3484C151.773 70.8001 152.095 70.8431 152.934 70.9721C153.644 71.0797 155.192 71.1227 155.192 71.1227C155.192 71.1227 152.246 71.1872 152.311 71.3808C152.375 71.5743 152.181 72.1765 153.192 72.026C155.494 71.7249 155.838 73.0368 155.838 73.0368Z" fill="#DBA17B"/>
<path d="M136.482 90.6077C136.482 90.6077 140.847 121.47 138.826 128.029C136.804 134.589 136.008 140.503 136.008 140.503L125.857 137.535C125.857 137.535 129.212 122.093 129.728 119.126C130.223 116.158 125.04 92.0486 125.04 92.0486L136.482 90.6077Z" fill="#0B4870"/>
<path d="M131.685 92.8229L126.889 142.439H117.189C117.189 142.439 120.329 89.9195 119.77 89.4678C119.211 89.0592 131.685 92.8229 131.685 92.8229ZM135.513 62.5845C135.513 62.5845 136.545 79.2306 138.761 78.6285C140.997 78.0478 146.976 73.7034 146.976 73.7034L150.611 77.7037C150.611 77.7037 139.535 90.027 134.975 84.9944C130.438 79.9404 135.513 62.5845 135.513 62.5845ZM132.524 150.74L133.19 147.385L126.115 144.546L124.996 149.536L125.383 149.601C126.975 150.332 134.696 153.902 135.9 154.009C137.234 154.138 132.524 150.74 132.524 150.74Z" fill="#0B4870"/>
<path d="M115.706 101.899L116.48 103.017C116.48 103.017 116.846 103.77 117.749 104.91C117.986 105.211 118.265 105.469 118.588 105.662C118.975 105.899 119.513 106.2 119.857 106.286C120.287 106.372 120.373 106.931 120.007 107.103C119.642 107.254 118.48 107.039 117.362 106.179C116.243 105.34 116.76 107.469 116.953 108.265C117.125 109.039 117.555 111.491 117.362 111.749C117.082 112.114 116.631 111.856 116.48 111.082C116.33 110.286 115.684 107.964 115.276 108.093C114.867 108.2 115.813 112.179 115.813 112.179C115.813 112.179 116.157 112.996 115.684 113.147C114.846 113.405 114.136 109.103 114.093 108.695C114.05 108.415 113.598 108.523 113.663 108.824C113.727 109.146 114.695 112.76 113.856 113.039C113.19 113.254 113.254 109.512 112.63 108.867C112.007 108.222 112.888 111.706 112.243 111.878C112.007 111.942 111.813 111.964 111.598 109.878C111.383 107.749 111.727 101.92 111.727 101.92L115.77 101.963" fill="#FFE3CA"/>
<path d="M129.75 56.9926C129.664 56.3259 130.008 53.5515 130.008 53.5515C130.008 53.5515 132.546 53.358 132.783 50.8632C133.019 48.3469 133.041 42.5401 133.041 42.5401L128.503 40.1313L123.298 43.809L122.115 46.5618L123.664 53.1214V56.4119L129.75 56.9926Z" fill="#DBA17B"/>
<path d="M130.008 53.5516C130.008 53.5516 128.309 53.5086 126.718 52.3257C126.718 52.3257 127.406 54.1968 129.944 54.1753L130.008 53.5516Z" fill="#C68C6B"/>
<path d="M122.201 49.3149C122.889 50.8418 123.297 53.0785 123.297 53.0785C123.663 53.7667 123.792 51.5731 123.792 51.5731C123.792 51.5731 124.115 49.4654 123.814 48.6481C123.814 48.6481 122.523 49.0568 122.244 46.7556C122.093 45.6157 123.814 45.078 124.287 46.4545L125.362 46.562C125.362 46.562 125.448 42.2607 127.921 43.0564C127.921 43.0564 129.706 44.1533 130.782 43.4865C131.857 42.8198 131.771 42.5833 131.771 42.5833C131.771 42.5833 132.287 43.7231 133.664 42.9704C135.04 42.2177 135.212 40.9057 134.739 40.2821C134.459 39.9164 134.201 39.5078 133.75 39.4218C133.298 39.3358 132.803 39.5293 132.524 39.8734C132.868 39.3788 132.631 38.6475 132.115 38.3034C131.621 37.9808 130.954 38.0023 130.395 38.2174C129.836 38.4325 129.362 38.8196 128.911 39.2067C128.588 38.3034 127.62 37.6582 126.674 37.7443C125.706 37.8303 124.867 38.6045 124.695 39.5508C124.179 38.9056 123.19 38.7551 122.437 39.1207C121.684 39.4863 121.211 40.2605 121.061 41.0778C120.91 41.8951 121.082 42.7338 121.405 43.5081C120.824 43.1855 120.028 43.422 119.641 43.9597C119.254 44.4974 119.254 45.2501 119.534 45.8523C119.813 46.4545 120.351 46.9061 120.932 47.2072C120.502 47.5513 120.351 48.2395 120.631 48.7342C120.91 49.2288 121.555 49.4869 122.072 49.2934" fill="#0E538C"/>
<path d="M113.513 63.5953C113.513 63.5953 115.255 55.5733 123.664 56.4121C131.363 57.1863 131.363 57.1863 131.363 57.1863C131.363 57.1863 136.654 59.423 135.901 65.7245C135.17 72.0259 134.804 77.7897 134.998 78.8865C135.191 80.0049 137.041 89.9195 136.482 90.6077C130.933 97.3608 116.76 86.5859 116.76 86.5859L113.513 63.5953Z" fill="#FFBE55"/>
<path d="M123.663 56.412L121.706 103.275L115.878 100.114L116.48 58.5411C116.48 58.5411 118.05 55.8528 123.663 56.412Z" fill="#0E538C"/>
<path d="M111.512 102.738L113.512 63.5739C114.136 61.1651 115.469 59.3155 117.189 57.7671V103.254L111.512 102.738ZM129.749 56.9928C129.749 56.9928 134.997 59.5951 134.76 68.3914C134.502 77.1876 137.922 102.049 137.922 102.049L142.309 101.168C142.309 101.168 137.234 77.5962 137.019 73.4669C136.804 69.2516 137.169 63.2943 134.33 59.1865C132.287 56.2401 129.749 56.9928 129.749 56.9928Z" fill="#0E538C"/>
<path d="M123.663 56.4121C123.663 56.4121 121.942 60.2833 122.114 61.6812C122.287 63.1007 122.889 66.0686 122.889 66.0686C122.889 66.0686 121.62 66.8429 121.727 67.5096C121.813 68.1763 122.824 78.7145 122.824 78.7145L123.663 56.4121ZM117.189 103.275C117.727 93.8122 117.598 75.4455 118.136 65.9611L117.189 103.275Z" fill="#0B4870"/>
<path d="M132.567 147.149C132.481 147.106 134.353 140.03 134.353 140.03L128.137 138.223L126.825 144.847L132.567 147.149Z" fill="#DBA17B"/>
<path d="M125.32 142.46H118.244V148.009H125.32V142.46Z" fill="#DBA17B"/>
<path d="M126.008 151.02L125.362 147.665H117.728L118.523 152.611L118.932 152.633C120.674 152.719 129.169 153.171 130.33 152.826C131.664 152.418 126.008 151.02 126.008 151.02Z" fill="#0B4870"/>
<path d="M66.2188 42.1531C66.821 44.1747 67.4231 46.1963 68.0253 48.218C68.1114 48.4975 68.1974 48.7771 68.1759 49.0567C68.1544 49.917 67.3586 50.5837 66.5199 50.7342C65.6811 50.8848 64.8208 50.6697 64.0036 50.4331C63.7885 51.2934 62.7562 51.659 61.8744 51.8311C57.9602 52.5623 53.8094 52.0462 50.1963 50.3686C51.7448 48.1319 53.0137 45.7232 53.96 43.1639C57.0354 43.2929 60.1109 43.4435 63.1863 43.5725C63.724 43.594 64.2832 43.6155 64.7993 43.4435C65.3155 43.2499 65.7671 42.8198 65.8101 42.2821" fill="#0E538C"/>
<path d="M30.5176 68.7568L29.6143 67.7029C29.6143 67.7029 28.9691 67.1653 28.0443 65.9609C27.8078 65.6598 27.6357 65.2942 27.5067 64.9286C27.3561 64.4769 27.1841 63.8748 27.2056 63.5091C27.2271 63.0575 26.6894 62.8424 26.4313 63.165C26.1733 63.4876 26.1303 64.7135 26.6894 66.0254C27.2486 67.3373 25.2485 66.305 24.5173 65.9179C23.786 65.5523 21.4633 64.52 21.1622 64.649C20.7321 64.8426 20.8611 65.3372 21.6138 65.7028C22.3666 66.0684 24.4957 67.2728 24.3022 67.6384C24.0871 68.004 20.388 66.0899 20.388 66.0899C20.388 66.0899 19.6567 65.5523 19.3987 65.9824C18.9255 66.7566 23.0333 68.5202 23.4204 68.6707C23.7 68.7783 23.4849 69.2084 23.1838 69.0579C22.8827 68.9288 19.5277 67.0577 19.033 67.832C18.6674 68.4342 22.3881 69.3159 22.8612 70.0902C23.3344 70.8644 20.1084 69.1439 19.7643 69.7246C19.6352 69.9396 19.5707 70.1332 21.5923 70.8429C23.6355 71.5741 29.5283 72.6925 29.5283 72.6925L30.4746 68.6492" fill="#FF957E"/>
<path d="M47.143 59.208C47.143 59.208 43.7879 68.9075 42.7556 68.9935C35.6799 69.6387 27.9805 66.5848 27.9805 66.5848L26.0449 72.0475C26.0449 72.0475 46.0892 81.0158 50.3905 72.3701C54.9714 63.2083 54.7348 61.7673 54.7348 61.7673L47.143 59.208Z" fill="#FCD2B1"/>
<path d="M47.5947 114.05C51.1863 130.546 74.8007 145.88 74.8007 145.88L78.8224 140.955C78.8224 140.955 59.832 124.029 59.0363 116.502C58.219 108.974 64.5205 97.1672 64.5205 97.1672L57.9825 94.3928L47.5947 114.05Z" fill="#0B4870"/>
<path d="M55.5729 53.9817C55.6804 53.2935 55.4223 50.4546 55.4223 50.4546C55.4223 50.4546 52.82 50.1751 52.6694 47.5943C52.5189 45.0135 52.6694 39.0776 52.6694 39.0776L57.4009 36.7549L62.6055 40.6906L61.8098 53.5731L55.5729 53.9817Z" fill="#FFE3CA"/>
<path d="M62.2406 42.7122C62.2406 42.7122 57.9823 42.3036 57.2511 38.4539L52.6486 42.7122C52.6486 42.7122 51.2507 39.8518 53.81 37.2065C56.3693 34.5612 58.1113 35.0989 59.1221 35.0989C60.0469 35.0989 64.7784 36.1097 66.1763 41.4648C66.2839 41.852 66.3699 42.8198 66.4344 43.2499L62.2406 42.7122Z" fill="#0E538C"/>
<path d="M55.4443 50.4763C55.4443 50.4763 57.1864 50.4978 58.8639 49.3149C58.8639 49.3149 58.0897 51.2075 55.5089 51.1L55.4443 50.4763Z" fill="#FCD2B1"/>
<path d="M50.0894 83.0373C50.0894 83.9621 50.412 85.231 50.412 85.231L68.6927 90.5001C68.6927 90.5001 70.0046 82.2415 66.671 77.6391C65.1441 75.5315 65.4882 72.5635 66.1119 70.0257L68.2625 61.3586L65.3806 53.2075L53.8746 53.9818C53.8746 53.9818 47.2075 53.3151 44.8848 62.1328L49.1646 68.5633L49.2076 70.9935L50.0894 83.0373Z" fill="#FFBE55"/>
<path d="M67.9178 79.8112C68.1114 79.8112 71.4234 87.231 68.434 91.6399C68.1544 92.0485 67.4662 93.0593 66.5414 94.5003C62.111 101.296 52.0029 117.276 51.6588 119.62C51.2501 122.459 43.0776 152.246 43.0776 152.246L36.9912 151.278L41.9593 117.491L50.0888 83.0372L67.9178 79.8112ZM57.358 38.1527C57.358 38.1527 56.4117 39.9808 56.8204 41.3572L52.6911 42.4326C52.6911 42.4111 51.7448 37.1849 57.358 38.1527ZM66.2188 42.8627C66.2188 42.8627 66.6919 48.7986 62.111 49.8524L62.4121 42.6907L66.2188 42.8627Z" fill="#0E538C"/>
<path d="M47.4652 70.5205L37.2066 74.8433L20.4098 75.209L12.2373 61.3371L29.5072 60.1758L36.9915 73.596L47.4007 69.5527L47.4652 70.5205Z" fill="#FFBE55"/>
<path d="M45.6153 60.3262L42.7334 67.3589L49.1854 70.5634L49.7876 64.4124L45.6153 60.3262Z" fill="#FFBE55"/>
<path d="M58.0464 52.6914L55.7021 53.7022L56.1753 58.4337L59.1432 53.1215L58.0464 52.6914Z" fill="#FFE3CA"/>
<path d="M36.4323 151.278C36.4323 151.278 31.0771 152.698 32.4105 153.106C33.7439 153.515 43.0133 152.504 43.0133 152.504L43.3144 151.45L36.4323 151.278Z" fill="#0E538C"/>
<path d="M43.0137 152.504L44.9063 147.407H36.6907L36.4326 151.278L43.0137 152.504Z" fill="#0E538C"/>
<path d="M74.8652 146.224C74.8652 146.224 73.5103 151.601 74.5211 150.633C75.5104 149.665 79.1665 141.084 79.1665 141.084L78.3923 140.31L74.8652 146.224Z" fill="#0B4870"/>
<path d="M79.1445 141.084L75.5959 136.955L71.6172 144.116L74.8647 146.224L79.1445 141.084Z" fill="#0B4870"/>
<path d="M62.9067 45.9598C62.8852 45.5297 62.8852 45.0781 63.0357 44.691C63.1863 44.2823 63.5304 43.9382 63.9605 43.8952C64.4551 43.8522 64.9283 44.2608 65.0143 44.734C65.1003 45.2286 64.7992 45.7233 64.3691 45.9814C63.939 46.2179 63.4013 46.2179 62.9282 46.0244" fill="#FFE3CA"/>
<path d="M59.9823 83.3814C59.9823 83.3814 59.7457 59.5735 60.5845 57.7669C60.5845 57.7669 61.4663 53.2935 64.8858 53.2075L63.3589 53.3366C63.3589 53.3366 60.2619 53.1215 59.3586 59.2079C58.4768 65.2943 58.5199 83.575 58.5199 83.575L59.9823 83.3814ZM53.3583 84.2202C53.3583 84.2202 52.4335 56.8637 53.1647 53.9818H52.2399C52.2399 53.9818 51.4227 56.326 51.5732 62.8855C51.6807 66.8213 51.5732 84.2202 51.5732 84.2202H53.3583Z" fill="#0E538C"/>
<path d="M42.4545 72.0903C42.4545 72.0903 37.9811 74.9292 36.9918 74.9077C36.024 74.8862 33.2067 74.8217 33.5077 75.2088C33.8088 75.5959 36.9918 76.1336 36.9918 76.1336L42.4545 72.0903Z" fill="#FFE3CA"/>
<path d="M42.7765 78.0693C42.7765 78.0693 63.9606 83.7686 66.864 74.5637C69.9395 64.7997 69.9825 67.3375 69.9825 67.3375L63.3369 60.9285C63.3369 60.9285 59.7668 72.198 58.756 72.456C53.1858 73.8755 46.8628 72.9722 44.6261 72.5636C44.368 72.3485 44.0884 72.1119 43.7443 71.7893C43.4647 71.5313 43.2282 71.2087 43.0561 70.8646C42.8411 70.4344 42.583 69.8753 42.54 69.5096C42.4754 69.058 41.9163 68.929 41.7227 69.2731C41.5291 69.6172 41.6582 70.8431 42.4324 72.0474C42.4324 72.0474 37.3784 75.2949 36.9697 76.0692L42.7765 78.0693Z" fill="#FFE3CA"/>
<path d="M65.3803 53.2075C65.3803 53.2075 70.2193 54.1323 70.4129 61.7457C70.6064 69.359 67.531 75.1874 67.531 75.1874L59.3154 70.9075L65.3803 53.2075Z" fill="#FFBE55"/>
<path d="M107.577 128.352H85.3818C84.3495 128.352 83.5107 127.513 83.5107 126.481C83.5107 125.448 84.3495 124.61 85.3818 124.61H107.555C108.588 124.61 109.426 125.448 109.426 126.481C109.448 127.513 108.609 128.352 107.577 128.352Z" fill="#D3D3D3"/>
<path d="M91.8828 150.101V151.994H110.981V150.101H91.8828Z" fill="#0B4870"/>
<path d="M93.6401 151.622C93.8122 152.611 93.1455 153.536 92.1562 153.687C91.1668 153.859 90.2421 153.192 90.0915 152.203C89.9195 151.213 90.5862 150.289 91.5755 150.138C92.5648 149.966 93.4896 150.633 93.6401 151.622Z" fill="#0B4870"/>
<path d="M102.286 127.126H100.394V150.869H102.286V127.126Z" fill="#0B4870"/>
<path d="M112.738 151.622C112.91 152.611 112.243 153.536 111.254 153.687C110.264 153.859 109.34 153.192 109.189 152.203C109.017 151.213 109.684 150.289 110.673 150.138C111.662 149.966 112.587 150.633 112.738 151.622Z" fill="#0B4870"/>
<path d="M113.384 128.352H92.436C91.0166 128.352 89.9843 126.954 90.3929 125.556L100.394 91.0592C100.652 90.1345 101.49 89.4893 102.437 89.4893H123.384C124.804 89.4893 125.836 90.8872 125.427 92.2851L115.427 126.782C115.169 127.728 114.33 128.352 113.384 128.352Z" fill="#D3D3D3"/>
<path d="M110.501 128.352H92.2417C90.8223 128.352 89.7899 126.954 90.1986 125.556L100.199 91.0592C100.457 90.1345 101.296 89.4893 102.242 89.4893H120.501C121.921 89.4893 122.953 90.8872 122.545 92.2851L112.544 126.782C112.286 127.728 111.447 128.352 110.501 128.352Z" fill="#F2F2F2"/>
<path d="M113.383 128.352H91.1885C90.1561 128.352 89.3174 127.513 89.3174 126.481C89.3174 125.448 90.1561 124.61 91.1885 124.61H113.362C114.394 124.61 115.233 125.448 115.233 126.481C115.254 127.513 114.416 128.352 113.383 128.352Z" fill="#D3D3D3"/>
<path d="M95.0383 99.0598L90.1133 112.157L91.2746 114.717L97.9202 113.555L99.8128 99.5545L95.0383 99.0598Z" fill="#FCD2B1"/>
<path d="M98.0274 92.6938C98.0274 92.6938 94.1347 94.737 93.2744 101.447L98.4145 104.264L98.0274 92.6938Z" fill="#2A94F4"/>
<path d="M104.307 90.1346L98.1779 92.7154L93.3389 114.244L109.512 120.61L118.136 96.0489C118.136 96.0489 116.738 90.9303 108.652 89.6184L104.307 90.1346Z" fill="#2A94F4"/>
<path d="M120.653 115.405C120.653 115.125 120.48 113.426 120.394 113.147L117.728 96.0918C117.211 93.7476 114.588 92.5647 112.501 93.7261C110.953 94.5864 110.265 96.4144 110.867 98.0704L114.028 112.716L120.653 115.405Z" fill="#FFE3CA"/>
<path d="M117.018 111.77L98.9736 110.372L98.0703 113.555L115.448 119.427C118.115 120.33 120.846 118.222 120.652 115.405C120.523 113.469 118.975 111.921 117.018 111.77Z" fill="#FFE3CA"/>
<path d="M115.921 93.21C115.921 93.21 118.223 94.1993 119.212 100.178L111.082 102.673C111.082 102.673 105.77 96.7156 111.448 92.7368L115.921 93.21Z" fill="#2A94F4"/>
<path d="M93.3174 113.749C93.9841 115.512 97.3177 115.598 99.1027 114.932C100.866 114.265 102.694 113.254 102.028 111.469C101.361 109.706 98.4145 108.652 96.4789 109.082C94.1347 109.62 92.6507 111.964 93.3174 113.749Z" fill="#FFE3CA"/>
<path d="M103.146 116.158L90.2637 114.502L90.4572 113.039L103.34 114.695C103.748 114.738 104.028 115.104 103.963 115.512C103.899 115.921 103.533 116.201 103.146 116.158Z" fill="#F2F2F2"/>
<path d="M91.9625 114.717L74.8862 112.523C73.8969 112.394 73.1226 111.641 72.9936 110.652L71.2085 98.2641C71.058 97.1673 71.9828 96.221 73.0796 96.3715L88.758 98.3932C89.4247 98.4792 89.9408 98.9953 90.0269 99.6405L91.9625 114.717Z" fill="#F2F2F2"/>
<path d="M71.5523 147.428L67.122 149.256L64.3261 149.471C63.0357 149.557 61.9604 150.504 61.7023 151.751L61.5732 152.332L76.757 154.224L77.0581 148.116L71.5523 147.428Z" fill="#0B4870"/>
<path d="M77.0584 148.117L78.5424 141.471L73.0582 140.718L71.5527 147.428L77.0584 148.117Z" fill="#FFE3CA"/>
<path d="M109.512 120.609C109.512 120.609 109.082 124.287 102.48 124.782H86.6077L79.1234 145.665L71.252 144.396L79.1234 113.727L97.1675 115.727L109.512 120.609Z" fill="#0B4870"/>
<path d="M58.8426 135.428L54.0896 134.718L51.5733 133.449C50.412 132.868 49.014 133.126 48.1323 134.051L47.7236 134.481L59.7674 143.901L63.1654 138.826L58.8426 135.428Z" fill="#0E538C"/>
<path d="M63.2077 138.847L67.3369 133.6L62.9926 130.137L58.8418 135.428L63.2077 138.847Z" fill="#FFE3CA"/>
<path d="M93.3387 114.244L81.1014 110.587C80.5852 110.437 80.0906 110.243 79.5744 110.071C78.5206 109.663 75.8538 109.104 73.7891 112.265C71.1438 116.33 60.541 131.6 60.541 131.6L67.0145 136.374L81.1444 118.373C82.3273 116.738 84.2199 115.771 86.2415 115.771L97.1669 115.749L93.3387 114.244Z" fill="#0E538C"/>
<path d="M109.082 83.4244C109.297 83.0158 113.082 76.2627 109.62 74.5637C109.62 74.5637 109.168 70.9935 105.19 71.3807C101.211 71.7678 102.286 72.9292 99.7483 72.3485C97.2106 71.7678 94.8233 73.0797 95.0169 75.2089C95.2104 77.338 96.8234 78.2413 99.7483 77.7251C102.673 77.209 104.996 77.5961 104.996 77.5961L107.448 78.3058L109.082 83.4244Z" fill="#FFBE55"/>
<path d="M109.555 90.7367L109.254 82.1555L103.318 84.2632L103.792 91.1453C103.899 92.7368 104.781 93.9842 106.372 93.8767L106.867 93.8552C108.458 93.7046 109.663 92.3282 109.555 90.7367Z" fill="#FFE3CA"/>
<path d="M108.738 83.3384C108.738 83.3384 109.856 90.5001 103.748 90.9087L103.469 87.5107L108.738 83.3384Z" fill="#FCD2B1"/>
<path d="M103.705 89.3173H103.92C106.974 89.1668 109.319 86.586 109.168 83.532L108.867 77.2951C108.824 76.4993 108.157 75.8971 107.361 75.9402L100.092 76.2843C98.6942 76.3488 97.5974 77.5532 97.6619 78.9511L97.8985 84.0482C98.0705 87.1021 100.651 89.4463 103.705 89.3173Z" fill="#FFE3CA"/>
<path d="M107.77 81.661C107.813 82.6933 108.695 83.489 109.727 83.4245C110.76 83.3815 111.555 82.4997 111.491 81.4674C111.448 80.4351 110.566 79.6393 109.534 79.7039C108.523 79.7469 107.727 80.6286 107.77 81.661Z" fill="#FFE3CA"/>
<path d="M106.888 76.6713L107.254 83.618C107.297 84.2417 107.039 84.8869 106.501 85.231C106.178 85.4676 105.92 85.7686 105.34 85.6826C103.684 85.446 104.458 84.2202 101.081 84.3922C98.0059 84.5643 98.2425 86.2633 98.2425 86.2633C98.2425 86.2633 98.8447 89.5108 103.06 89.6614C107.275 89.8119 109.383 87.1451 108.888 83.5965L108.48 76.2627L106.888 76.6713Z" fill="#FFBE55"/>
<path d="M97.877 77.8542C97.877 77.8542 99.8341 78.1552 102.694 77.467C105.533 76.7573 107.792 79.0585 107.792 79.0585C107.792 79.0585 108.394 80.1124 108.544 80.0908C108.695 80.0693 109.555 79.7252 109.555 79.7252L109.512 76.5207L107.426 74.8862L101.641 74.6497L98.2211 75.4024L97.877 77.8542Z" fill="#FFBE55"/>
</svg>
