<svg width="177" height="177" viewBox="0 0 177 177" fill="none" xmlns="http://www.w3.org/2000/svg">
<g clip-path="url(#clip0_566_5017)">
<path d="M126.35 16.9238C161.009 33.2851 191.149 57.9525 169.951 100.972C148.753 143.992 47.316 148.769 12.6569 132.407C-22.0021 116.046 23.2421 84.743 44.4398 41.7231C65.6374 -1.29686 91.6913 0.562561 126.35 16.9238Z" fill="#EE7203" fill-opacity="0.1"/>
<path d="M25.5759 173.945L32.0762 115.627C32.0762 115.627 30.8793 114.98 27.0511 110.01C24.6175 106.929 22.4524 103.654 20.5787 100.219C19.1158 97.5073 18.403 95.7229 18.6924 93.6446C19.2944 90.5678 20.0564 87.5229 20.9753 84.5217C21.485 83.1154 22.4771 80.3792 24.9538 79.1695C25.9509 78.6825 27.3477 78.6502 30.1411 78.5857C32.887 78.5222 32.8886 78.7603 35.1473 78.7023C39.2828 78.5959 68.6293 85.1881 68.6293 85.1881C68.6293 85.1881 68.8663 100.019 64.9263 112.269C64.9263 112.269 64.0546 115.118 61.9652 116.78L54.2178 182.794L25.5759 173.945Z" fill="#B86A4B"/>
<path d="M38.2435 88.3949C38.044 89.0868 38.0225 89.8163 38.1812 90.5183C38.3398 91.2203 38.6736 91.8732 39.1529 92.4189C39.8684 93.1916 40.8227 93.5275 42.1056 93.9724C44.1406 94.6781 47.4191 93.1656 47.8687 91.4745L47.4292 92.9038C46.7896 94.7599 48.446 96.6802 51.129 97.192C51.4527 97.2543 51.7806 97.2938 52.11 97.3102C54.4406 97.4273 56.5847 96.3883 57.1464 94.759L57.1183 94.9663C56.534 96.6591 57.731 98.4672 59.7918 99.0038C60.0398 99.0689 60.2929 99.1134 60.5486 99.1366C62.3541 99.3012 64.069 98.3972 64.5821 96.9112L68.6289 85.1881C69.2131 83.4952 68.0162 81.6872 65.9553 81.1505C63.894 80.6083 61.7499 81.5496 61.1651 83.2432L60.9981 83.585C61.6377 81.7289 60.4727 78.5382 57.8771 77.6175C55.3057 76.7053 52.5001 78.1936 51.8598 80.0505L51.7129 79.7563C52.2249 77.8297 50.2995 74.3776 47.5072 73.6543C44.7748 72.9466 41.8895 74.6794 41.377 76.6068L40.6315 78.9157C41.1294 77.1385 41.1784 73.4767 36.6573 72.5549C33.5768 71.9267 30.1354 73.2945 29.7325 76.8211L28.1773 85.5853C27.9826 86.5889 28.1662 87.6274 28.6943 88.5091C29.2225 89.3908 30.0594 90.0562 31.0508 90.3825C31.7723 90.5774 32.5154 90.6858 33.2638 90.7053C35.9515 90.5199 37.5597 89.879 37.9969 88.3189L38.2435 88.3949Z" fill="#B86A4B"/>
<path d="M60.9701 99.5569C60.8183 99.5569 60.6652 99.5499 60.5109 99.536C60.2322 99.5106 59.9561 99.4623 59.6858 99.3916C59.1165 99.255 58.5817 99.0066 58.1141 98.6615C57.6464 98.3164 57.2558 97.8818 56.966 97.3843C56.7484 96.999 56.6151 96.5738 56.5743 96.1356C56.5335 95.6974 56.5861 95.2557 56.7289 94.8383L60.7758 83.1151C61.4291 81.2226 63.803 80.1676 66.0624 80.7629C66.6314 80.8994 67.166 81.1477 67.6335 81.4926C68.101 81.8375 68.4915 82.2719 68.7814 82.7691C68.999 83.1546 69.1324 83.58 69.1732 84.0184C69.214 84.4568 69.1613 84.8986 69.0185 85.3162L64.9718 97.0389C64.653 97.8109 64.0971 98.4674 63.3805 98.9183C62.6639 99.3692 61.8219 99.5923 60.9701 99.5569ZM64.7673 81.3978C64.0887 81.3622 63.4154 81.5328 62.8401 81.8861C62.2648 82.2395 61.8158 82.7582 61.5548 83.371L57.5079 95.0943C57.4015 95.4078 57.3628 95.7394 57.3942 96.0682C57.4257 96.3971 57.5265 96.716 57.6904 97.0049C57.9272 97.4056 58.245 97.7552 58.6245 98.0322C59.0041 98.3092 59.4374 98.5079 59.8981 98.6161C60.1236 98.6752 60.3538 98.7155 60.5863 98.7364H60.5871C62.2329 98.8924 63.7498 98.0648 64.1928 96.7824L68.2394 85.0603C68.3459 84.7466 68.3847 84.4148 68.3533 84.0857C68.3219 83.7567 68.221 83.4376 68.0569 83.1486C67.8201 82.748 67.5023 82.3986 67.1228 82.1218C66.7433 81.845 66.3101 81.6465 65.8495 81.5384C65.4967 81.4454 65.1328 81.3981 64.7673 81.3978V81.3978ZM29.4142 78.9973C29.3904 78.9972 29.3667 78.9952 29.3433 78.9913C29.2901 78.9823 29.2393 78.9631 29.1937 78.9349C29.1481 78.9067 29.1086 78.87 29.0776 78.8269C29.0465 78.7838 29.0244 78.7352 29.0126 78.6838C29.0008 78.6324 28.9994 78.5792 29.0087 78.5272L29.3242 76.7506C29.3429 76.6458 29.4034 76.5524 29.4926 76.4912C29.5817 76.4299 29.6921 76.4057 29.7995 76.4239C29.9069 76.4421 30.0025 76.5012 30.0653 76.5882C30.128 76.6753 30.1528 76.7831 30.1342 76.8879L29.8186 78.6645C29.8021 78.7576 29.7524 78.842 29.6784 78.9028C29.6045 78.9637 29.5109 78.9971 29.4142 78.9973ZM28.1106 86.7193C28.0775 86.7193 28.0446 86.7153 28.0125 86.7072C27.9175 86.6847 27.834 86.6298 27.777 86.5523C27.72 86.4748 27.6933 86.3799 27.7017 86.2849C27.7006 86.1589 27.7073 86.0329 27.7217 85.9076C27.7342 85.8019 27.7893 85.7053 27.8747 85.6392C27.9602 85.5731 28.069 85.5428 28.1773 85.555C28.2856 85.5673 28.3845 85.621 28.4522 85.7044C28.5199 85.7879 28.5509 85.8941 28.5384 85.9999C28.5267 86.1023 28.5219 86.2054 28.5241 86.3085C28.5248 86.3621 28.5147 86.4152 28.4942 86.4649C28.4738 86.5146 28.4435 86.5599 28.4051 86.5981C28.3666 86.6362 28.3208 86.6666 28.2703 86.6874C28.2198 86.7082 28.1655 86.7191 28.1107 86.7193L28.1106 86.7193ZM33.2881 91.1039C32.7868 91.0864 32.2871 91.0389 31.7917 90.9617L31.8553 90.5641L31.9647 90.1775L31.9728 90.1797C32.4075 90.244 32.8455 90.2853 33.2848 90.3033C34.402 90.2846 35.5019 90.031 36.5097 89.5597C36.7762 89.4199 37.0106 89.2284 37.1983 88.9968C37.3861 88.7652 37.5233 88.4985 37.6014 88.2131L37.9729 86.8747C38.0016 86.7722 38.0708 86.685 38.1653 86.6322C38.2597 86.5794 38.3718 86.5654 38.4769 86.5932C38.5819 86.6209 38.6714 86.6883 38.7257 86.7804C38.78 86.8725 38.7947 86.9819 38.7665 87.0845L38.3945 88.4251C38.2882 88.8112 38.103 89.1724 37.8498 89.4867C37.5967 89.801 37.281 90.062 36.9217 90.2538C35.7893 90.7947 34.5486 91.085 33.2881 91.1039Z" fill="#633322"/>
<path d="M43.2575 94.5486C42.8192 94.554 42.3831 94.4858 41.9684 94.3471C40.6691 93.9011 39.6406 93.548 38.8456 92.6897C38.1918 91.9688 37.7901 91.0634 37.6987 90.1047C37.6421 89.499 37.6906 88.8883 37.8424 88.2984L38.2412 86.7887C38.2546 86.7376 38.2782 86.6896 38.3107 86.6474C38.3431 86.6052 38.3838 86.5696 38.4303 86.5428C38.4769 86.5159 38.5284 86.4983 38.5819 86.4909C38.6355 86.4836 38.69 86.4866 38.7423 86.4998C38.7946 86.513 38.8438 86.5362 38.8869 86.568C38.9301 86.5998 38.9664 86.6395 38.9938 86.6851C39.0212 86.7306 39.0391 86.7809 39.0465 86.8332C39.0539 86.8855 39.0507 86.9387 39.0371 86.9897L38.6388 88.4972C38.5105 88.9956 38.4691 89.5116 38.5165 90.0234C38.5902 90.8116 38.9187 91.5564 39.4544 92.1504C40.1102 92.8583 41.0518 93.1817 42.2437 93.5909C43.2311 93.9357 44.7222 93.6892 45.9571 92.9769C46.649 92.6476 47.1883 92.0755 47.467 91.3749L51.3182 79.6324C51.3515 79.5311 51.4246 79.4467 51.5216 79.398C51.6185 79.3493 51.7313 79.3402 51.8351 79.3727C51.939 79.4051 52.0253 79.4766 52.0752 79.5712C52.1251 79.6659 52.1344 79.776 52.1012 79.8774L48.257 91.5957C47.9285 92.4987 47.2536 93.2418 46.3747 93.6683C45.4323 94.2227 44.3575 94.5263 43.2575 94.5486ZM40.772 79.2727C40.7092 79.2726 40.6473 79.2585 40.591 79.2314C40.5347 79.2043 40.4854 79.1651 40.447 79.1166C40.4086 79.0681 40.382 79.0117 40.3693 78.9517C40.3566 78.8917 40.3582 78.8296 40.3738 78.7702L40.9776 76.5021C41.0053 76.3993 41.0736 76.3114 41.1675 76.2577C41.2615 76.2039 41.3734 76.1888 41.4788 76.2156C41.5842 76.2423 41.6744 76.3088 41.7296 76.4004C41.7849 76.492 41.8006 76.6013 41.7735 76.7042L41.1697 78.9723C41.1468 79.0583 41.0953 79.1344 41.0234 79.1888C40.9514 79.2431 40.863 79.2727 40.772 79.2727Z" fill="#633322"/>
<path d="M52.4644 97.7206C52.3404 97.7206 52.2155 97.7174 52.0898 97.7112H52.0895C51.7405 97.6935 51.3933 97.6516 51.0504 97.586C50.2981 97.4777 49.5778 97.2155 48.9366 96.8166C48.2953 96.4177 47.7475 95.8911 47.3291 95.2712C47.0968 94.9013 46.9506 94.486 46.9008 94.0548C46.8509 93.6236 46.8986 93.187 47.0405 92.7758L51.4711 79.9223C51.6861 79.3815 52.0083 78.8875 52.4191 78.4684C52.8299 78.0494 53.3213 77.7135 53.8652 77.4801C54.5067 77.1736 55.2041 76.9945 55.917 76.9533C56.63 76.9121 57.3442 77.0096 58.0182 77.2401C60.7827 78.2209 62.1225 81.583 61.3885 83.7127L57.5367 94.8868C56.9585 96.564 54.8594 97.7206 52.4644 97.7206ZM52.132 96.9094C54.3217 97.0231 56.2647 96.0609 56.7577 94.6309L60.6095 83.4568C61.1587 81.8625 60.1949 78.8662 57.7375 77.9947C57.1666 77.8001 56.5618 77.7184 55.9582 77.7542C55.3546 77.7901 54.7644 77.9427 54.2218 78.2034C53.3262 78.5857 52.6188 79.2943 52.2501 80.1782L47.8196 93.0317C47.7165 93.3349 47.6827 93.6565 47.7208 93.9738C47.7588 94.2911 47.8677 94.5964 48.0398 94.8681C48.4029 95.386 48.8719 95.8249 49.4173 96.1571C49.9627 96.4893 50.5726 96.7077 51.2087 96.7985C51.5135 96.8566 51.8221 96.8936 52.1323 96.9094H52.132ZM56.6806 119.165C55.4052 119.157 54.1462 118.884 52.9872 118.364C52.384 118.099 51.776 117.8 51.1797 117.476C51.1324 117.45 51.0908 117.416 51.0571 117.374C51.0235 117.333 50.9986 117.285 50.9837 117.235C50.9689 117.184 50.9645 117.131 50.9707 117.078C50.9769 117.026 50.9937 116.975 51.02 116.929C51.0464 116.883 51.0818 116.842 51.1242 116.81C51.1667 116.777 51.2153 116.753 51.2673 116.738C51.3194 116.724 51.3738 116.72 51.4275 116.726C51.4812 116.732 51.5331 116.749 51.5802 116.775C52.1559 117.088 52.7428 117.377 53.3244 117.633C54.619 118.238 56.0624 118.475 57.4885 118.315C58.9147 118.155 60.2657 117.606 61.3862 116.73C61.4287 116.697 61.4773 116.673 61.5293 116.659C61.5813 116.645 61.6356 116.641 61.6892 116.647C61.7428 116.653 61.7946 116.67 61.8416 116.696C61.8887 116.722 61.93 116.756 61.9633 116.798C61.9966 116.839 62.0212 116.887 62.0358 116.938C62.0503 116.988 62.0544 117.041 62.048 117.094C62.0415 117.146 62.0245 117.197 61.998 117.243C61.9715 117.288 61.936 117.329 61.8936 117.361C60.4153 118.522 58.5774 119.158 56.6806 119.165ZM38.344 117.59C36.3741 117.617 34.4231 117.213 32.633 116.41C32.3706 116.29 32.1195 116.148 31.8824 115.985C31.7932 115.924 31.7325 115.831 31.7137 115.726C31.695 115.621 31.7196 115.513 31.7823 115.426C31.8449 115.339 31.9404 115.28 32.0478 115.261C32.1552 115.243 32.2657 115.267 32.3549 115.328C32.5557 115.466 32.7682 115.586 32.9902 115.687C35.131 116.624 37.4908 116.98 39.8213 116.717C41.2064 116.588 42.565 116.263 43.8553 115.755C43.9564 115.715 44.0696 115.716 44.1699 115.758C44.2702 115.8 44.3495 115.879 44.3902 115.977C44.4309 116.076 44.4298 116.187 44.3871 116.285C44.3444 116.383 44.2635 116.46 44.1624 116.5C42.7992 117.037 41.3637 117.379 39.9003 117.516C39.3781 117.566 38.8581 117.59 38.344 117.59ZM29.5251 95.2256C29.4443 95.2256 29.3653 95.2024 29.298 95.1588C29.2307 95.1152 29.178 95.0533 29.1465 94.9806C29.115 94.908 29.1061 94.8279 29.1209 94.7504C29.1357 94.6729 29.1736 94.6013 29.2298 94.5447C29.7546 94.0164 31.4465 92.1903 31.4541 90.6461C31.4475 90.6178 31.4445 90.5888 31.4451 90.5598C31.4449 90.3656 31.4093 90.173 31.3402 89.9909C30.9869 89.06 29.5819 87.9622 28.556 87.1604C28.2666 86.9292 28.0444 86.77 27.8706 86.647C27.847 86.6302 27.8253 86.611 27.8059 86.5898C27.3891 86.2806 27.1011 86.0467 27.2735 85.6941C27.4926 85.2949 27.9622 85.464 28.2736 85.5777C28.4181 85.631 28.5886 85.6991 28.7849 85.7771C30.4471 86.5036 32.2219 86.9542 34.036 87.1105C35.4585 87.1985 36.8853 87.0249 38.2421 86.5986C38.307 86.5833 38.3705 86.5627 38.432 86.5371L38.4944 86.5141C39.1174 86.3053 39.7169 86.0352 40.2839 85.7079C41.4744 85.0203 42.9041 84.0181 43.3893 82.3596C43.5102 82.0596 43.5631 81.7375 43.5443 81.4157C43.5255 81.0938 43.4355 80.7797 43.2804 80.4951C42.894 79.8965 42.0272 79.483 40.7046 79.2671C40.6638 79.2676 40.623 79.263 40.5834 79.2534C38.8452 79.053 37.0924 79.0008 35.3449 79.0974L35.155 79.1024C34.3936 79.1245 33.6316 79.1059 32.8723 79.0469C31.9658 78.9775 31.0561 78.9572 30.1474 78.986L29.8364 78.9909C29.6921 78.9942 29.5523 78.9969 29.4162 78.9975C29.362 78.9985 29.3082 78.9889 29.2579 78.9692C29.2076 78.9496 29.1618 78.9203 29.1233 78.883C29.0848 78.8458 29.0543 78.8014 29.0336 78.7525C29.013 78.7036 29.0026 78.6511 29.0031 78.5982C29.0026 78.4917 29.0454 78.3894 29.1221 78.3137C29.1988 78.238 29.3032 78.1952 29.4123 78.1946C29.5444 78.194 29.6797 78.1913 29.8198 78.1885L30.1328 78.183C31.0661 78.1537 32.0004 78.175 32.9313 78.2467C33.6638 78.3056 34.3991 78.3232 35.1337 78.2995L35.3235 78.2951C37.1074 78.1975 38.8966 78.2508 40.6711 78.4543C40.7396 78.4564 40.8077 78.4658 40.8742 78.4823C42.4263 78.7344 43.452 79.255 43.9759 80.0673C44.1939 80.4471 44.3249 80.8685 44.36 81.3026C44.3951 81.7366 44.3334 82.1729 44.1792 82.5814C43.6148 84.5112 42.0241 85.6354 40.7012 86.3993C40.0899 86.7524 39.4434 87.0439 38.7717 87.2692L38.7306 87.2851C38.6423 87.3208 38.5513 87.3498 38.4584 87.3719C37.0155 87.8243 35.4982 88.0072 33.9859 87.9112C32.4842 87.7994 31.007 87.4761 29.6001 86.9512C30.6536 87.7904 31.7453 88.7481 32.1118 89.7141C32.2049 89.9615 32.257 90.2218 32.2662 90.4852C32.2713 90.5083 32.2743 90.5318 32.2749 90.5555C32.3258 92.3765 30.5751 94.3426 29.8203 95.1038C29.7819 95.1423 29.7361 95.173 29.6853 95.1939C29.6346 95.2148 29.5802 95.2256 29.5251 95.2256Z" fill="#633322"/>
<path d="M54.2179 183.195C54.2021 183.195 54.1863 183.194 54.1706 183.192C54.117 183.186 54.0651 183.17 54.0179 183.144C53.9707 183.119 53.9292 183.085 53.8956 183.043C53.862 183.002 53.837 182.955 53.8222 182.904C53.8073 182.853 53.8028 182.8 53.809 182.748L61.5564 116.734C61.5625 116.682 61.5791 116.631 61.6053 116.585C61.6315 116.539 61.6667 116.498 61.709 116.466C61.7512 116.433 61.7997 116.408 61.8516 116.394C61.9035 116.379 61.9578 116.375 62.0114 116.381C62.065 116.387 62.1169 116.403 62.1641 116.429C62.2113 116.454 62.2529 116.489 62.2865 116.53C62.3201 116.571 62.345 116.619 62.3599 116.669C62.3747 116.72 62.3792 116.773 62.3731 116.825L54.6257 182.839C54.6143 182.937 54.5664 183.027 54.4912 183.093C54.416 183.159 54.3187 183.195 54.2179 183.195ZM49.5896 108.815C49.5258 108.815 49.4629 108.8 49.4059 108.772C49.3488 108.744 49.2992 108.704 49.2609 108.654C49.2226 108.604 49.1967 108.546 49.1852 108.485C49.1738 108.424 49.177 108.361 49.1948 108.301C49.2232 108.206 51.9554 98.7925 45.8956 93.6242C45.8549 93.5896 45.8216 93.5474 45.7975 93.5002C45.7735 93.4529 45.7593 93.4015 45.7556 93.3489C45.7519 93.2962 45.759 93.2434 45.7762 93.1934C45.7935 93.1434 45.8207 93.0973 45.8563 93.0575C45.8918 93.0178 45.9351 92.9854 45.9835 92.962C46.032 92.9386 46.0846 92.9248 46.1386 92.9213C46.1925 92.9178 46.2466 92.9248 46.2977 92.9417C46.3489 92.9587 46.3961 92.9853 46.4367 93.0201C52.8952 98.5284 50.0137 108.427 49.9837 108.527C49.9586 108.61 49.9067 108.683 49.8357 108.735C49.7647 108.787 49.6784 108.815 49.5896 108.815ZM66.3249 85.5409C66.2383 85.5409 66.1538 85.5141 66.0836 85.4644C66.0135 85.4147 65.9612 85.3446 65.9343 85.2641C65.7681 84.8287 65.4472 84.466 65.0301 84.2421C64.7769 84.1381 64.5046 84.0854 64.2299 84.087C63.9552 84.0886 63.6836 84.1445 63.4316 84.2514C63.3807 84.2689 63.3268 84.2765 63.2729 84.2737C63.219 84.2709 63.1662 84.2577 63.1175 84.235C63.0689 84.2122 63.0253 84.1803 62.9892 84.1411C62.9531 84.1019 62.9253 84.0562 62.9074 84.0065C62.8895 83.9568 62.8817 83.9042 62.8846 83.8515C62.8875 83.7989 62.901 83.7474 62.9243 83.6999C62.9476 83.6523 62.9802 83.6097 63.0204 83.5745C63.0605 83.5393 63.1074 83.5122 63.1583 83.4947C63.4915 83.3443 63.8537 83.2647 64.2208 83.2611C64.5879 83.2576 64.9516 83.3301 65.2879 83.4739C65.6242 83.6178 65.9253 83.8296 66.1716 84.0955C66.4178 84.3614 66.6034 84.6753 66.7161 85.0164C66.7361 85.0766 66.7411 85.1406 66.7309 85.2031C66.7207 85.2656 66.6955 85.3248 66.6573 85.3759C66.6192 85.4271 66.5692 85.4687 66.5114 85.4974C66.4536 85.526 66.3897 85.5409 66.3249 85.5409ZM58.3382 81.4891C58.2514 81.489 58.1669 81.4622 58.0966 81.4124C58.0264 81.3626 57.9741 81.2923 57.9473 81.2117C57.7811 80.7762 57.4603 80.4135 57.0431 80.1897C56.7899 80.0861 56.5177 80.0336 56.2431 80.0353C55.9685 80.037 55.6971 80.0929 55.4452 80.1996C55.3943 80.2172 55.3403 80.2248 55.2864 80.222C55.2325 80.2192 55.1797 80.206 55.131 80.1833C55.0823 80.1606 55.0387 80.1288 55.0026 80.0896C54.9665 80.0504 54.9387 80.0046 54.9207 79.9549C54.9027 79.9052 54.8949 79.8526 54.8978 79.8C54.9006 79.7473 54.9141 79.6958 54.9373 79.6482C54.9606 79.6007 54.9932 79.5581 55.0334 79.5228C55.0735 79.4876 55.1204 79.4604 55.1713 79.4428C55.5045 79.2923 55.8667 79.2126 56.2339 79.2089C56.6011 79.2052 56.9649 79.2777 57.3012 79.4216C57.6376 79.5654 57.9388 79.7774 58.185 80.0434C58.4312 80.3094 58.6168 80.6234 58.7294 80.9646C58.7493 81.0248 58.7544 81.0888 58.7442 81.1512C58.734 81.2137 58.7088 81.273 58.6706 81.3241C58.6325 81.3753 58.5825 81.4169 58.5247 81.4455C58.4669 81.4742 58.403 81.4891 58.3382 81.4891ZM48.5221 77.2538C48.4354 77.2538 48.3509 77.227 48.2808 77.1773C48.2106 77.1276 48.1583 77.0575 48.1314 76.977C47.965 76.5415 47.6441 76.1787 47.227 75.9545C46.9737 75.8507 46.7015 75.7981 46.4268 75.7998C46.1521 75.8015 45.8807 75.8575 45.6287 75.9643C45.526 75.9998 45.4129 75.994 45.3146 75.9481C45.2162 75.9022 45.1406 75.82 45.1042 75.7197C45.0679 75.6193 45.0739 75.509 45.1209 75.413C45.1679 75.3169 45.252 75.243 45.3548 75.2076C45.6881 75.0571 46.0503 74.9774 46.4175 74.9737C46.7847 74.97 47.1485 75.0425 47.4849 75.1864C47.8212 75.3302 48.1225 75.5421 48.3687 75.8081C48.615 76.0741 48.8006 76.3881 48.9132 76.7293C48.9332 76.7896 48.9383 76.8535 48.928 76.916C48.9178 76.9785 48.8926 77.0377 48.8544 77.0889C48.8163 77.14 48.7663 77.1816 48.7085 77.2103C48.6508 77.2389 48.5869 77.2539 48.5221 77.2538ZM43.459 92.1684C43.2215 92.1686 42.9853 92.1338 42.7585 92.0651C42.102 91.8438 41.553 91.3923 41.2182 90.7982C41.1692 90.7035 41.1606 90.5938 41.1941 90.493C41.2277 90.3922 41.3008 90.3084 41.3974 90.26C41.4941 90.2117 41.6064 90.2026 41.7098 90.2348C41.8133 90.267 41.8995 90.3378 41.9496 90.4319C42.1847 90.8361 42.5607 91.1444 43.0091 91.3007C43.276 91.3637 43.5533 91.3733 43.8242 91.329C44.0951 91.2846 44.354 91.1872 44.5854 91.0425C44.6328 91.0173 44.6848 91.0014 44.7385 90.9958C44.7922 90.9902 44.8465 90.995 44.8984 91.0099C44.9502 91.0248 44.9985 91.0495 45.0405 91.0826C45.0825 91.1157 45.1175 91.1566 45.1433 91.2029C45.1692 91.2492 45.1854 91.3 45.1912 91.3525C45.1969 91.4049 45.192 91.4579 45.1768 91.5085C45.1615 91.5591 45.1362 91.6063 45.1023 91.6473C45.0684 91.6883 45.0265 91.7225 44.9791 91.7477C44.5166 92.0104 43.9939 92.155 43.459 92.1684ZM52.6947 95.1081C52.4573 95.1083 52.2212 95.0735 51.9944 95.0049C51.3379 94.7835 50.7889 94.332 50.4538 93.7379C50.4049 93.6433 50.3962 93.5336 50.4298 93.4327C50.4634 93.3319 50.5365 93.2482 50.6331 93.1998C50.7297 93.1514 50.8421 93.1423 50.9455 93.1745C51.049 93.2067 51.1352 93.2776 51.1853 93.3716C51.4205 93.7758 51.7966 94.0841 52.245 94.2404C52.512 94.3036 52.7893 94.3133 53.0602 94.2689C53.3311 94.2245 53.5901 94.127 53.8213 93.9823C53.8687 93.957 53.9208 93.9412 53.9745 93.9356C54.0282 93.93 54.0825 93.9347 54.1343 93.9496C54.1861 93.9645 54.2344 93.9892 54.2765 94.0224C54.3185 94.0555 54.3534 94.0963 54.3793 94.1426C54.4051 94.1889 54.4214 94.2398 54.4271 94.2922C54.4329 94.3446 54.428 94.3977 54.4127 94.4483C54.3975 94.4988 54.3722 94.546 54.3383 94.587C54.3043 94.6281 54.2625 94.6622 54.215 94.6874C53.7525 94.9502 53.2296 95.0948 52.6947 95.1081ZM61.571 97.0127C61.3335 97.0129 61.0973 96.9781 60.8704 96.9094C60.2139 96.6881 59.665 96.2366 59.3301 95.6425C59.2811 95.5478 59.2724 95.4381 59.306 95.3372C59.3395 95.2363 59.4126 95.1525 59.5093 95.1041C59.6059 95.0557 59.7183 95.0467 59.8218 95.0789C59.9253 95.1111 60.0115 95.182 60.0616 95.2762C60.2967 95.6804 60.6726 95.9887 61.121 96.145C61.3879 96.2085 61.6653 96.2184 61.9363 96.174C62.2073 96.1297 62.4662 96.0319 62.6973 95.8868C62.7931 95.8359 62.9057 95.8241 63.0103 95.8542C63.115 95.8843 63.2031 95.9537 63.2553 96.0472C63.3075 96.1407 63.3195 96.2506 63.2887 96.3528C63.2579 96.455 63.1868 96.541 63.091 96.592C62.6286 96.8547 62.1058 96.9993 61.571 97.0127ZM37.151 75.9506C37.0774 75.9506 37.0052 75.9314 36.9418 75.8949C36.8785 75.8584 36.8263 75.8059 36.7907 75.743C36.544 75.3454 36.1593 75.0474 35.7066 74.9033C35.438 74.8466 35.1603 74.844 34.8907 74.8958C34.621 74.9475 34.365 75.0525 34.1384 75.2043C34.0441 75.2578 33.9319 75.2726 33.8265 75.2453C33.7211 75.2181 33.6311 75.1511 33.5762 75.059C33.5214 74.967 33.5063 74.8574 33.5342 74.7545C33.5621 74.6516 33.6307 74.5636 33.725 74.5101C34.0238 74.3018 34.3644 74.1577 34.7243 74.0874C35.0843 74.017 35.4555 74.022 35.8133 74.1021C36.1712 74.1821 36.5076 74.3353 36.8003 74.5516C37.093 74.768 37.3354 75.0424 37.5115 75.357C37.5457 75.4181 37.5631 75.4868 37.5618 75.5564C37.5606 75.6261 37.5408 75.6942 37.5044 75.7541C37.4681 75.814 37.4163 75.8636 37.3544 75.898C37.2924 75.9325 37.2223 75.9506 37.151 75.9506H37.151ZM42.1386 79.2249L41.6767 81.0109C41.6767 81.0109 34.0436 81.741 35.1435 78.7008C37.4885 78.4623 39.8584 78.6398 42.1386 79.2249V79.2249Z" fill="#633322"/>
<path d="M85.9571 127.385L87.689 55.6144C87.689 55.6144 86.4433 55.0623 82.2226 50.4053C79.5457 47.5223 77.1209 44.4255 74.9735 41.1474C73.2945 38.5577 72.4386 36.8342 72.5579 34.7401C72.9075 31.6263 73.4192 28.5319 74.0908 25.4689C74.4845 24.0275 75.2506 21.2229 77.621 19.8249C78.5754 19.262 79.965 19.1214 82.7444 18.8403C85.4764 18.5639 85.4974 18.8012 87.7442 18.5679C91.858 18.141 121.648 22.4347 121.648 22.4347C121.648 22.4347 123.092 37.2007 120.162 49.7177C120.162 49.7177 119.525 52.6254 117.577 54.4436L115.229 133.983L85.9571 127.385Z" fill="#ECA085"/>
<path d="M91.6202 27.9896C91.4775 28.6949 91.5156 29.4237 91.7309 30.1112C91.9462 30.7986 92.3321 31.4235 92.8543 31.9304C93.6304 32.6451 94.609 32.9058 95.9241 33.2497C98.0101 33.7952 101.155 32.0332 101.466 30.3125L101.144 31.7714C100.657 33.6712 102.465 35.4569 105.181 35.7589C105.509 35.7958 105.839 35.8098 106.169 35.8006C108.501 35.7364 110.554 34.5342 110.981 32.8665L110.97 33.0753C110.526 34.8082 111.866 36.5176 113.964 36.8926C114.216 36.9383 114.472 36.9629 114.729 36.9662C116.542 36.9902 118.178 35.9559 118.569 34.4348L121.648 22.4347C122.093 20.7019 120.753 18.9925 118.655 18.6175C116.556 18.2369 114.495 19.3416 114.05 21.0752L113.911 21.429C114.398 19.5291 112.977 16.4389 110.314 15.7225C107.677 15.0128 105.001 16.7142 104.514 18.6149L104.344 18.333C104.697 16.3728 102.497 13.081 99.6545 12.5768C96.8731 12.0833 94.1381 14.0346 93.784 15.9956L93.2289 18.3552C93.5805 16.5449 93.3312 12.8909 88.7494 12.3229C85.6275 11.9358 82.3083 13.5663 82.1939 17.113L81.3571 25.9702C81.2447 26.9857 81.5123 28.0067 82.1105 28.8446C82.7088 29.6825 83.5973 30.2809 84.6121 30.5292C85.3472 30.6675 86.0968 30.7178 86.8443 30.6792C89.5085 30.2858 91.0594 29.5221 91.3682 27.9331L91.6202 27.9896Z" fill="#ECA085"/>
<path d="M114.792 37.3683C114.769 37.3683 114.747 37.3678 114.724 37.3678C114.444 37.3641 114.165 37.3371 113.889 37.287C113.311 37.1952 112.758 36.9893 112.264 36.6817C111.77 36.3742 111.345 35.9715 111.016 35.4984C110.767 35.1309 110.6 34.7172 110.523 34.2834C110.447 33.8495 110.464 33.4049 110.572 32.9776L113.651 20.9776C113.678 20.8746 113.746 20.7862 113.839 20.7318C113.933 20.6774 114.044 20.6613 114.15 20.6872C114.255 20.7131 114.346 20.7787 114.402 20.8698C114.458 20.9609 114.475 21.0699 114.449 21.1731L111.369 33.1731C111.289 33.494 111.277 33.8276 111.335 34.153C111.393 34.4785 111.52 34.7886 111.707 35.064C111.975 35.4449 112.321 35.7685 112.722 36.0151C113.122 36.2616 113.57 36.4258 114.038 36.4979C114.268 36.5397 114.501 36.5622 114.735 36.5649C114.754 36.5654 114.773 36.5654 114.792 36.5654C116.422 36.5654 117.837 35.6351 118.17 34.3374L121.25 22.3373C121.277 22.2344 121.344 22.146 121.438 22.0916C121.531 22.0371 121.643 22.0211 121.749 22.047C121.854 22.0728 121.945 22.1385 122.001 22.2296C122.057 22.3207 122.074 22.4297 122.048 22.5329L118.968 34.5329C118.544 36.1838 116.794 37.3678 114.792 37.3683ZM82.0214 19.3086C82.0087 19.3086 81.9958 19.3081 81.9831 19.307C81.9294 19.3022 81.8771 19.287 81.8293 19.2625C81.7815 19.2379 81.7392 19.2044 81.7047 19.1639C81.6702 19.1233 81.6442 19.0765 81.6282 19.0262C81.6123 18.9758 81.6066 18.9229 81.6116 18.8704L81.7815 17.0751C81.7863 17.0225 81.8016 16.9714 81.8267 16.9246C81.8518 16.8779 81.8861 16.8364 81.9276 16.8026C81.9691 16.7687 82.0171 16.7433 82.0687 16.7276C82.1203 16.7119 82.1746 16.7063 82.2285 16.7112C82.2823 16.716 82.3347 16.7312 82.3825 16.7558C82.4303 16.7804 82.4727 16.814 82.5072 16.8547C82.5417 16.8953 82.5676 16.9422 82.5835 16.9927C82.5994 17.0431 82.605 17.0962 82.5999 17.1487L82.43 18.944C82.4206 19.0435 82.3735 19.1361 82.2979 19.2035C82.2224 19.2709 82.1237 19.3084 82.0214 19.3086ZM81.3512 27.107C81.3273 27.1069 81.3035 27.1047 81.28 27.1004C81.1843 27.0845 81.0976 27.0359 81.0353 26.9632C80.9731 26.8905 80.9394 26.7986 80.9403 26.7038C80.9289 26.5786 80.9253 26.4528 80.9293 26.3271C80.929 26.2738 80.9401 26.2209 80.9618 26.172C80.9835 26.123 81.0153 26.0789 81.0553 26.0426C81.0954 26.0063 81.1427 25.9784 81.1943 25.9609C81.2459 25.9433 81.3006 25.9363 81.3551 25.9405C81.409 25.9423 81.4621 25.9545 81.5112 25.9764C81.5603 25.9983 81.6045 26.0294 81.6412 26.0679C81.678 26.1065 81.7067 26.1518 81.7255 26.2011C81.7443 26.2505 81.753 26.303 81.7511 26.3557C81.7477 26.4587 81.7514 26.5618 81.762 26.6643C81.7673 26.7202 81.7607 26.7766 81.7425 26.8299C81.7243 26.8832 81.6949 26.9322 81.6563 26.9739C81.6177 27.0155 81.5706 27.0488 81.5181 27.0717C81.4655 27.0946 81.4087 27.1066 81.3512 27.1069L81.3512 27.107ZM86.2612 31.0852C85.9611 31.0852 85.6813 31.0759 85.3976 31.049C85.2879 31.0281 85.1908 30.9667 85.1265 30.8776C85.0622 30.7884 85.0356 30.6784 85.0525 30.5706C85.0602 30.5199 85.0784 30.4711 85.106 30.4274C85.1336 30.3837 85.17 30.3459 85.213 30.3164C85.256 30.2869 85.3047 30.2662 85.3562 30.2556C85.4076 30.245 85.4607 30.2448 85.5123 30.2549L85.5205 30.2565C85.9574 30.2861 86.3956 30.2929 86.8332 30.2768C87.9454 30.1718 89.0211 29.8335 89.987 29.285C90.2413 29.1252 90.4593 28.9162 90.6277 28.6709C90.796 28.4256 90.911 28.1492 90.9657 27.8588L91.2269 26.4957C91.2471 26.3913 91.3089 26.2989 91.3988 26.2389C91.4887 26.1789 91.5993 26.1561 91.7063 26.1756C91.8133 26.1951 91.9081 26.2552 91.9697 26.3428C92.0314 26.4305 92.0549 26.5384 92.0352 26.6429L91.7734 28.0087C91.6989 28.4018 91.5435 28.7761 91.3168 29.1091C91.0901 29.442 90.7966 29.7266 90.4541 29.9457C89.3695 30.5728 88.1565 30.9586 86.9016 31.0753C86.6741 31.0808 86.4631 31.0852 86.2612 31.0852Z" fill="#B86A4B"/>
<path d="M96.7586 33.7492C96.4412 33.7515 96.1249 33.7127 95.8179 33.6339C94.4863 33.2901 93.4325 33.0183 92.5699 32.2247C91.8596 31.5566 91.3854 30.6851 91.2161 29.7364C91.1103 29.137 91.109 28.5245 91.2121 27.9247L91.4869 26.3886C91.4962 26.3367 91.5159 26.2871 91.5449 26.2426C91.5738 26.1981 91.6114 26.1596 91.6556 26.1293C91.6998 26.099 91.7497 26.0775 91.8024 26.066C91.8551 26.0545 91.9096 26.0533 91.9628 26.0624C92.0159 26.0715 92.0668 26.0907 92.1123 26.119C92.1579 26.1473 92.1973 26.184 92.2284 26.2271C92.2594 26.2703 92.2814 26.319 92.2932 26.3704C92.3049 26.4219 92.3062 26.4751 92.2969 26.527L92.0224 28.0608C91.9351 28.5679 91.9359 29.0857 92.0246 29.5925C92.1627 30.3723 92.5508 31.0892 93.133 31.6398C93.8442 32.2945 94.8091 32.5432 96.0308 32.8585C97.0421 33.1292 98.5096 32.7651 99.6821 31.9589C100.345 31.5769 100.836 30.9646 101.057 30.2444L103.94 18.2405C103.965 18.1371 104.031 18.0476 104.124 17.9918C104.217 17.9359 104.328 17.9182 104.434 17.9425C104.54 17.9667 104.632 18.0311 104.689 18.1213C104.747 18.2116 104.765 18.3204 104.741 18.4239L101.862 30.4031C101.608 31.3287 100.996 32.1218 100.155 32.6152C99.1642 33.316 97.9813 33.711 96.7586 33.7492ZM93.3656 18.7018C93.3414 18.7017 93.3174 18.6997 93.2936 18.6957C93.2404 18.6866 93.1896 18.6673 93.1441 18.6389C93.0986 18.6106 93.0592 18.5738 93.0283 18.5306C92.9973 18.4874 92.9754 18.4386 92.9637 18.3872C92.9521 18.3357 92.9509 18.2825 92.9603 18.2306L93.3774 15.9224C93.3865 15.8703 93.4062 15.8205 93.4351 15.7759C93.464 15.7312 93.5017 15.6926 93.546 15.6622C93.5902 15.6318 93.6402 15.6102 93.6931 15.5987C93.7459 15.5872 93.8005 15.586 93.8538 15.5952C93.9071 15.6044 93.958 15.6238 94.0036 15.6522C94.0492 15.6807 94.0887 15.7176 94.1196 15.761C94.1505 15.8044 94.1724 15.8533 94.1839 15.9049C94.1954 15.9565 94.1964 16.0099 94.1868 16.0619L93.7697 18.3701C93.7529 18.4629 93.7032 18.547 93.6293 18.6076C93.5555 18.6682 93.4621 18.7016 93.3656 18.7018Z" fill="#B86A4B"/>
<path d="M105.969 36.2047C105.69 36.2048 105.411 36.1892 105.134 36.158C104.376 36.1085 103.636 35.9031 102.964 35.5552C102.293 35.2073 101.704 34.7248 101.236 34.1392C100.974 33.7885 100.795 33.386 100.71 32.9601C100.625 32.5343 100.637 32.0954 100.745 31.6745L104.115 18.5179C104.128 18.4666 104.151 18.4183 104.184 18.3758C104.216 18.3332 104.256 18.2973 104.302 18.27C104.349 18.2428 104.4 18.2247 104.454 18.2169C104.507 18.209 104.562 18.2116 104.614 18.2244C104.667 18.2372 104.716 18.2599 104.759 18.2914C104.803 18.3229 104.84 18.3624 104.867 18.4077C104.895 18.4531 104.913 18.5033 104.921 18.5556C104.929 18.6078 104.926 18.6611 104.913 18.7123L101.543 31.8689C101.465 32.179 101.457 32.5021 101.521 32.8153C101.585 33.1286 101.718 33.4243 101.912 33.6818C102.316 34.17 102.819 34.5713 103.39 34.8602C103.96 35.1492 104.586 35.3195 105.228 35.3606C105.536 35.3944 105.847 35.4074 106.157 35.3996C108.347 35.3397 110.208 34.2337 110.583 32.7696L113.513 21.3319C113.526 21.2807 113.549 21.2326 113.581 21.1903C113.613 21.1479 113.653 21.1121 113.7 21.085C113.746 21.0579 113.797 21.0399 113.851 21.0322C113.904 21.0244 113.958 21.0269 114.011 21.0397C114.063 21.0525 114.113 21.0752 114.156 21.1065C114.199 21.1379 114.236 21.1773 114.264 21.2225C114.291 21.2677 114.31 21.3178 114.318 21.3699C114.326 21.422 114.323 21.4751 114.31 21.5263L111.38 32.964C110.918 34.7702 108.731 36.1322 106.18 36.2014C106.11 36.2036 106.04 36.2047 105.969 36.2047ZM111.804 57.2464C110.765 57.2431 109.734 57.065 108.756 56.7197C108.137 56.5039 107.506 56.2529 106.883 55.9751C106.783 55.9309 106.706 55.85 106.668 55.7502C106.63 55.6505 106.634 55.54 106.679 55.4432C106.725 55.3463 106.807 55.271 106.91 55.2338C107.012 55.1965 107.125 55.2004 107.224 55.2447C107.827 55.5137 108.435 55.7554 109.033 55.9641C110.408 56.4839 111.909 56.6022 113.352 56.3044C114.795 56.0066 116.118 55.3057 117.16 54.2869C117.238 54.213 117.343 54.1723 117.452 54.1739C117.561 54.1755 117.665 54.2192 117.741 54.2954C117.817 54.3715 117.859 54.474 117.857 54.5803C117.856 54.6866 117.812 54.7881 117.734 54.8624C116.156 56.3886 114.025 57.2452 111.804 57.2464ZM92.8784 57.1327C91.3187 57.149 89.7693 56.8845 88.3078 56.3523C87.9789 56.2315 87.6638 56.0774 87.3677 55.8927C87.322 55.8645 87.2825 55.8278 87.2513 55.7847C87.2202 55.7415 87.198 55.6928 87.1862 55.6414C87.1744 55.5899 87.173 55.5366 87.1823 55.4846C87.1915 55.4327 87.2112 55.383 87.2402 55.3384C87.2691 55.2939 87.3068 55.2553 87.351 55.225C87.3952 55.1947 87.4452 55.1732 87.4979 55.1617C87.5507 55.1502 87.6052 55.149 87.6584 55.1582C87.7117 55.1673 87.7625 55.1866 87.8081 55.215C88.0592 55.3715 88.3265 55.502 88.6054 55.6044C90.8156 56.3719 93.1969 56.5432 95.4984 56.1003C96.8686 55.8637 98.1966 55.4351 99.4413 54.8278C99.4896 54.8042 99.5422 54.7902 99.5961 54.7864C99.65 54.7827 99.7041 54.7894 99.7553 54.8061C99.8066 54.8228 99.854 54.8492 99.8947 54.8838C99.9355 54.9184 99.9689 54.9605 99.993 55.0077C100.017 55.0549 100.031 55.1063 100.035 55.1589C100.039 55.2115 100.032 55.2644 100.015 55.3144C99.9977 55.3644 99.9706 55.4106 99.9351 55.4504C99.8996 55.4901 99.8564 55.5227 99.808 55.5461C98.4929 56.1876 97.0898 56.6404 95.6421 56.8905C94.73 57.0504 93.8052 57.1315 92.8784 57.1327ZM83.4518 35.477C83.3738 35.477 83.2974 35.4554 83.2316 35.4146C83.1658 35.3738 83.1132 35.3156 83.08 35.2467C83.0467 35.1778 83.0343 35.1012 83.0441 35.0256C83.0538 34.9501 83.0854 34.8788 83.1351 34.8202C83.6152 34.2523 85.1535 32.3006 85.0345 30.7601C85.026 30.7326 85.0208 30.7042 85.0188 30.6755C85.0028 30.4819 84.9517 30.2926 84.8678 30.1165C84.4403 29.2158 82.9512 28.2312 81.8636 27.5123L81.815 27.4799C81.5546 27.3025 81.3203 27.1614 81.1372 27.0521C81.1127 27.0373 81.0897 27.0202 81.0686 27.001C80.6276 26.7253 80.3217 26.5144 80.464 26.1498C80.6513 25.7341 81.1327 25.867 81.4519 25.9554C81.6007 25.9971 81.777 26.052 81.9798 26.1152C83.6936 26.7164 85.4999 27.0277 87.321 27.0356C88.746 27.0127 90.154 26.729 91.4719 26.1992C91.5344 26.1791 91.595 26.1541 91.6533 26.1245L91.7172 26.0949C92.3209 25.8385 92.8965 25.5229 93.435 25.153C94.5652 24.3754 95.9092 23.2644 96.2577 21.5746C96.354 21.2662 96.3806 20.941 96.3357 20.6216C96.2908 20.3022 96.1754 19.9961 95.9975 19.7244C95.5636 19.1571 94.6659 18.8128 93.3298 18.7002C93.325 18.6997 93.2775 18.6925 93.2727 18.692C93.252 18.7001 93.2292 18.7015 93.2077 18.6958C91.4582 18.6311 89.7063 18.7149 87.9717 18.9462L87.7844 18.966C87.0265 19.0494 86.2644 19.0903 85.5017 19.0885C84.5932 19.0899 83.6855 19.14 82.7827 19.2384L82.4615 19.2692C82.3223 19.2829 82.1876 19.2961 82.0557 19.3071C82.0019 19.3116 81.9478 19.3057 81.8963 19.2898C81.8449 19.2738 81.7972 19.2482 81.7559 19.2142C81.6725 19.1457 81.6204 19.0476 81.6111 18.9416C81.6065 18.8891 81.6125 18.8362 81.6288 18.786C81.6451 18.7357 81.6714 18.6891 81.7062 18.6488C81.7764 18.5674 81.8768 18.5166 81.9854 18.5075L82.7031 18.4394C83.6302 18.3385 84.5623 18.2873 85.4952 18.2861C86.2311 18.2877 86.9665 18.2481 87.6978 18.1675L87.8851 18.1483C89.6557 17.914 91.4435 17.8284 93.2291 17.8924C93.2991 17.8868 93.3696 17.8912 93.4383 17.9056C95.0025 18.0357 96.0676 18.4751 96.6559 19.2439C96.9042 19.6055 97.0692 20.0154 97.1395 20.4452C97.2099 20.8751 97.1839 21.3147 97.0634 21.7339C96.6579 23.7005 95.1634 24.9455 93.9071 25.8099C93.3265 26.2091 92.7058 26.5497 92.0547 26.8264L92.0119 26.8467C91.928 26.8887 91.841 26.9243 91.7515 26.9532C90.349 27.5146 88.8514 27.8148 87.3358 27.8385C85.8295 27.8435 84.3304 27.6356 82.8851 27.2212C84.0041 27.9764 85.1706 28.8463 85.6144 29.781C85.7277 30.0205 85.801 30.2762 85.8315 30.5383C85.8384 30.5607 85.8431 30.5837 85.8456 30.6069C86.0447 32.4187 84.4597 34.5143 83.769 35.3309C83.7304 35.3766 83.682 35.4135 83.6272 35.4387C83.5723 35.464 83.5124 35.4771 83.4518 35.477Z" fill="#B86A4B"/>
<path d="M104.56 47.466C104.532 47.466 104.503 47.4631 104.476 47.4572C104.369 47.4355 104.276 47.3733 104.216 47.2844C104.156 47.1954 104.135 47.0869 104.157 46.9827C104.178 46.886 106.135 37.2903 99.6737 32.6091C99.5866 32.5455 99.5288 32.4508 99.513 32.3457C99.4973 32.2406 99.5248 32.1337 99.5896 32.0484C99.6544 31.9631 99.7513 31.9063 99.8588 31.8906C99.9664 31.8748 100.076 31.9014 100.164 31.9643C107.05 36.9541 104.984 47.0453 104.962 47.1463C104.943 47.2366 104.892 47.3175 104.819 47.3757C104.746 47.4339 104.654 47.4658 104.56 47.466ZM119.348 22.9666C119.267 22.9667 119.187 22.9433 119.12 22.8994C119.052 22.8555 119 22.7931 118.968 22.72C118.767 22.2985 118.418 21.9615 117.984 21.7705C117.723 21.6873 117.447 21.6564 117.173 21.6795C116.9 21.7026 116.634 21.7793 116.391 21.9051C116.292 21.948 116.179 21.9506 116.077 21.9124C115.976 21.8741 115.894 21.7981 115.849 21.7011C115.805 21.604 115.802 21.4937 115.841 21.3944C115.88 21.2951 115.957 21.2149 116.057 21.1714C116.377 20.9955 116.731 20.888 117.097 20.8559C117.463 20.8238 117.831 20.8678 118.178 20.9851C118.525 21.1023 118.843 21.2902 119.11 21.5361C119.377 21.7821 119.587 22.0806 119.728 22.412C119.753 22.4729 119.763 22.5391 119.757 22.6048C119.75 22.6704 119.727 22.7335 119.69 22.7883C119.652 22.8432 119.601 22.8881 119.542 22.9192C119.482 22.9503 119.415 22.9666 119.348 22.9666ZM111.057 19.5474C110.975 19.5475 110.896 19.5241 110.829 19.4802C110.761 19.4364 110.708 19.374 110.677 19.3009C110.476 18.8794 110.126 18.5424 109.692 18.3513C109.431 18.2676 109.156 18.2364 108.882 18.2594C108.608 18.2824 108.342 18.3593 108.1 18.4853C108 18.5283 107.887 18.5309 107.786 18.4926C107.684 18.4544 107.602 18.3784 107.558 18.2813C107.514 18.1842 107.511 18.074 107.55 17.9747C107.588 17.8754 107.666 17.7952 107.765 17.7516C108.085 17.5759 108.44 17.4685 108.806 17.4365C109.171 17.4045 109.54 17.4486 109.887 17.5659C110.234 17.6832 110.551 17.871 110.818 18.117C111.085 18.363 111.296 18.6615 111.436 18.9928C111.462 19.0537 111.472 19.12 111.465 19.1856C111.459 19.2513 111.436 19.3143 111.398 19.3691C111.361 19.424 111.31 19.4689 111.25 19.5C111.191 19.5311 111.124 19.5474 111.057 19.5474L111.057 19.5474ZM100.927 16.0871C100.845 16.0871 100.766 16.0637 100.699 16.0199C100.631 15.976 100.578 15.9136 100.547 15.8405C100.346 15.4191 99.9964 15.0824 99.5623 14.8915C99.3014 14.8078 99.0258 14.7765 98.7521 14.7995C98.4785 14.8226 98.2124 14.8994 97.97 15.0255C97.8703 15.0688 97.7571 15.0717 97.6553 15.0336C97.5535 14.9954 97.4713 14.9193 97.4269 14.822C97.3825 14.7247 97.3796 14.6142 97.4187 14.5148C97.4577 14.4153 97.5357 14.3351 97.6353 14.2918C97.9553 14.1161 98.3099 14.0087 98.6755 13.9767C99.0412 13.9446 99.4096 13.9887 99.7566 14.1059C100.104 14.2232 100.421 14.4109 100.688 14.6568C100.955 14.9027 101.166 15.2012 101.306 15.5324C101.332 15.5934 101.342 15.6596 101.335 15.7253C101.329 15.7909 101.306 15.8539 101.268 15.9088C101.231 15.9636 101.18 16.0086 101.12 16.0397C101.061 16.0708 100.994 16.0871 100.927 16.0871L100.927 16.0871ZM96.9342 31.3537C96.7611 31.3539 96.5885 31.3353 96.4195 31.2982C95.7472 31.1282 95.1633 30.7208 94.7808 30.1548C94.7524 30.11 94.7334 30.0601 94.7248 30.0081C94.7162 29.9561 94.7181 29.9029 94.7305 29.8516C94.7429 29.8003 94.7656 29.7519 94.7971 29.7092C94.8287 29.6664 94.8686 29.6302 94.9145 29.6025C94.9605 29.5748 95.0115 29.5562 95.0648 29.5478C95.1181 29.5393 95.1725 29.5412 95.2251 29.5534C95.2776 29.5655 95.3272 29.5876 95.371 29.6184C95.4147 29.6492 95.4519 29.6882 95.4802 29.733C95.7475 30.1176 96.1473 30.3957 96.6069 30.5167C96.8782 30.5589 97.1554 30.547 97.4219 30.4817C97.6884 30.4164 97.9386 30.299 98.1573 30.1367C98.2486 30.0791 98.3595 30.0592 98.4658 30.0813C98.5721 30.1033 98.6651 30.1655 98.7245 30.2544C98.784 30.3432 98.805 30.4513 98.783 30.5552C98.7611 30.6591 98.6979 30.7503 98.6073 30.8089C98.1163 31.1466 97.5345 31.336 96.9342 31.3537ZM106.381 33.5674C106.207 33.5674 106.035 33.5486 105.866 33.5114C105.193 33.3414 104.609 32.934 104.227 32.368C104.17 32.2774 104.151 32.1684 104.177 32.0648C104.202 31.9612 104.268 31.8716 104.361 31.8156C104.453 31.7597 104.565 31.7421 104.671 31.7665C104.777 31.791 104.869 31.8557 104.926 31.9462C105.194 32.3308 105.594 32.6089 106.053 32.7299C106.324 32.7722 106.602 32.7604 106.868 32.6952C107.135 32.63 107.385 32.5127 107.604 32.3504C107.649 32.3216 107.699 32.3018 107.752 32.292C107.806 32.2823 107.86 32.2829 107.913 32.2937C107.966 32.3045 108.016 32.3254 108.06 32.3552C108.105 32.3849 108.143 32.423 108.173 32.4671C108.202 32.5112 108.222 32.5606 108.232 32.6124C108.242 32.6642 108.242 32.7174 108.231 32.769C108.22 32.8206 108.198 32.8695 108.168 32.9131C108.137 32.9566 108.098 32.9938 108.053 33.0226C107.562 33.3604 106.981 33.5498 106.381 33.5674ZM115.384 34.7772C115.21 34.7773 115.038 34.7585 114.869 34.7212C114.196 34.5513 113.612 34.1439 113.23 33.5778C113.202 33.533 113.183 33.4831 113.174 33.4311C113.165 33.3791 113.167 33.3259 113.18 33.2746C113.192 33.2233 113.215 33.1749 113.246 33.1322C113.278 33.0894 113.318 33.0532 113.364 33.0255C113.41 32.9978 113.461 32.9792 113.514 32.9708C113.567 32.9624 113.622 32.9643 113.674 32.9764C113.727 32.9885 113.776 33.0106 113.82 33.0414C113.864 33.0723 113.901 33.1112 113.929 33.1561C114.197 33.5406 114.597 33.8187 115.056 33.9397C115.328 33.9826 115.605 33.971 115.871 33.9058C116.138 33.8406 116.388 33.723 116.606 33.5603C116.652 33.5314 116.702 33.5116 116.755 33.5019C116.808 33.4921 116.863 33.4927 116.916 33.5036C116.969 33.5144 117.019 33.5353 117.063 33.565C117.108 33.5948 117.146 33.6328 117.175 33.677C117.205 33.7211 117.225 33.7705 117.235 33.8223C117.245 33.8741 117.245 33.9273 117.233 33.9789C117.222 34.0304 117.201 34.0794 117.17 34.1229C117.14 34.1664 117.101 34.2036 117.056 34.2324C116.565 34.5702 115.984 34.7596 115.384 34.7772ZM89.4849 15.6708C89.4168 15.6708 89.3498 15.6544 89.2898 15.6228C89.2299 15.5913 89.1789 15.5457 89.1415 15.4901C88.8631 15.1131 88.4555 14.846 87.9927 14.7372C87.7203 14.7026 87.4436 14.7221 87.1791 14.7946C86.9146 14.867 86.6679 14.991 86.4538 15.159C86.4095 15.1892 86.3595 15.2106 86.3067 15.222C86.2539 15.2333 86.1993 15.2343 86.1461 15.2251C86.0929 15.2158 86.0421 15.1963 85.9966 15.1678C85.9511 15.1393 85.9118 15.1023 85.881 15.0589C85.8501 15.0156 85.8284 14.9667 85.8169 14.9151C85.8055 14.8635 85.8046 14.8102 85.8143 14.7583C85.824 14.7064 85.8441 14.6568 85.8734 14.6125C85.9027 14.5682 85.9407 14.5299 85.9853 14.5C86.2659 14.2688 86.5937 14.0985 86.9468 14.0003C87.2999 13.902 87.6704 13.8781 88.0337 13.9301C88.397 13.982 88.7448 14.1087 89.0542 14.3017C89.3637 14.4947 89.6276 14.7497 89.8286 15.0497C89.8692 15.1102 89.8923 15.1803 89.8954 15.2526C89.8985 15.3249 89.8816 15.3966 89.8464 15.4603C89.8112 15.5239 89.759 15.5771 89.6954 15.6142C89.6317 15.6512 89.559 15.6708 89.4849 15.6708ZM94.7562 18.5464L94.4412 20.3626C94.4412 20.3626 86.8917 21.6828 87.7406 18.5669C90.0587 18.1471 92.4355 18.1401 94.7562 18.5464Z" fill="#B86A4B"/>
<path d="M106.726 148.274L116.505 90.3946C116.505 90.3946 115.347 89.6842 111.804 84.5161C109.548 81.3084 107.571 77.9218 105.894 74.3918C104.586 71.6055 103.975 69.7854 104.381 67.7259C105.156 64.6861 106.088 61.6868 107.175 58.7395C107.763 57.3628 108.908 54.684 111.449 53.6093C112.472 53.1767 113.869 53.2195 116.662 53.3052C119.407 53.3895 119.395 53.6273 121.654 53.6908C125.789 53.8069 154.719 61.9666 154.719 61.9666C154.719 61.9666 154.12 76.7882 149.495 88.8078C149.495 88.8078 148.464 91.6056 146.284 93.1521L134.826 158.65L106.726 148.274Z" fill="#FED4C0"/>
<path d="M124.2 63.5353C123.961 64.2155 123.899 64.9427 124.018 65.6521C124.137 66.3616 124.433 67.0315 124.881 67.6021C125.552 68.4122 126.485 68.7988 127.741 69.312C129.733 70.126 133.092 68.7921 133.637 67.1277L133.117 68.5312C132.374 70.3501 133.92 72.3565 136.57 73.0118C136.889 73.0914 137.214 73.1485 137.543 73.1826C139.863 73.4247 142.062 72.5025 142.715 70.9059L142.675 71.1114C141.996 72.7703 143.09 74.6399 145.117 75.2865C145.361 75.3649 145.611 75.4228 145.865 75.4598C147.659 75.7212 149.422 74.9107 150.018 73.4546L154.72 61.9668C155.399 60.3079 154.305 58.4383 152.278 57.7916C150.25 57.1394 148.056 57.964 147.377 59.6236L147.191 59.9559C147.934 58.1371 146.951 54.8885 144.411 53.8297C141.895 52.7807 139.01 54.1159 138.266 55.9355L138.136 55.6339C138.756 53.7378 137.028 50.1874 134.281 49.3151C131.592 48.4615 128.614 50.0366 127.993 51.9335L127.119 54.1989C127.716 52.4512 127.971 48.7975 123.509 47.6341C120.469 46.8413 116.955 48.022 116.354 51.5216L114.307 60.1889C114.056 61.1805 114.181 62.2273 114.659 63.136C115.136 64.0448 115.934 64.7542 116.906 65.1333C117.615 65.3667 118.351 65.5148 119.097 65.5745C121.791 65.5339 123.433 64.9805 123.958 63.4462L124.2 63.5353Z" fill="#FED4C0"/>
<path d="M146.531 75.9095C146.007 75.9093 145.487 75.8277 144.989 75.6678C144.428 75.5009 143.908 75.2243 143.461 74.8547C143.014 74.4851 142.648 74.0304 142.387 73.5183C142.191 73.1217 142.082 72.6898 142.066 72.2499C142.05 71.81 142.128 71.3717 142.294 70.9625L146.996 59.4748C147.015 59.4257 147.045 59.381 147.083 59.3431C147.12 59.3052 147.165 59.275 147.215 59.2541C147.265 59.2332 147.318 59.2221 147.372 59.2214C147.426 59.2207 147.48 59.2304 147.53 59.25C147.58 59.2696 147.626 59.2986 147.665 59.3355C147.703 59.3724 147.734 59.4163 147.755 59.4649C147.777 59.5134 147.788 59.5656 147.789 59.6183C147.789 59.6711 147.779 59.7235 147.759 59.7725L143.057 71.2601C142.933 71.5676 142.876 71.8967 142.889 72.2269C142.901 72.557 142.984 72.881 143.131 73.1784C143.345 73.5912 143.643 73.9572 144.006 74.2541C144.37 74.5509 144.791 74.7724 145.245 74.905C145.467 74.9764 145.695 75.0291 145.926 75.0626C147.563 75.3043 149.122 74.5618 149.637 73.3058L154.338 61.8181C154.358 61.7692 154.388 61.7246 154.426 61.6869C154.463 61.6492 154.508 61.619 154.558 61.5983C154.607 61.5775 154.661 61.5664 154.715 61.5658C154.769 61.5651 154.822 61.5748 154.872 61.5944C154.922 61.6139 154.968 61.6429 155.007 61.6797C155.045 61.7165 155.076 61.7603 155.098 61.8087C155.119 61.8572 155.13 61.9092 155.131 61.9619C155.131 62.0146 155.122 62.0669 155.102 62.1158L150.4 73.6035C150.061 74.3183 149.512 74.9189 148.824 75.3294C148.135 75.7399 147.337 75.9417 146.531 75.9095ZM115.936 53.6782C115.905 53.6782 115.874 53.6747 115.843 53.6678C115.737 53.6439 115.645 53.5797 115.587 53.4895C115.529 53.3993 115.511 53.2904 115.535 53.1867L115.95 51.4299C115.962 51.3784 115.985 51.3298 116.016 51.2867C116.047 51.2437 116.087 51.2071 116.133 51.179C116.178 51.151 116.229 51.132 116.283 51.1233C116.336 51.1145 116.391 51.1161 116.443 51.1279C116.496 51.1398 116.546 51.1616 116.59 51.1923C116.634 51.223 116.671 51.2618 116.7 51.3066C116.728 51.3514 116.748 51.4012 116.756 51.4533C116.765 51.5054 116.764 51.5586 116.751 51.61L116.336 53.3668C116.315 53.4552 116.264 53.5342 116.192 53.5907C116.119 53.6472 116.029 53.6781 115.936 53.6782ZM114.199 61.3178C114.14 61.3178 114.082 61.3055 114.029 61.2817C113.975 61.2579 113.928 61.2231 113.889 61.1798C113.851 61.1364 113.822 61.0855 113.806 61.0305C113.789 60.9755 113.785 60.9177 113.793 60.8609C113.799 60.7353 113.813 60.6103 113.834 60.4864C113.853 60.3818 113.914 60.2888 114.003 60.2277C114.092 60.1666 114.202 60.1424 114.309 60.1604C114.416 60.1785 114.511 60.2372 114.574 60.3238C114.637 60.4104 114.662 60.5179 114.644 60.6226C114.627 60.7243 114.616 60.827 114.613 60.9301C114.611 60.9661 114.605 61.0018 114.593 61.0361C114.566 61.1177 114.514 61.1888 114.443 61.2394C114.372 61.29 114.287 61.3174 114.199 61.3178ZM119.099 65.9743C118.599 65.9299 118.103 65.8553 117.613 65.7508L117.812 64.9721L117.82 64.9743C118.256 65.0654 118.697 65.1322 119.141 65.1742C120.258 65.2154 121.37 65.0213 122.403 64.6052C122.677 64.4799 122.922 64.3012 123.122 64.0801C123.323 63.859 123.475 63.6002 123.569 63.3196L124.016 62.0027C124.032 61.9525 124.059 61.9062 124.095 61.8662C124.13 61.8262 124.173 61.7934 124.221 61.7697C124.269 61.746 124.322 61.7318 124.376 61.7279C124.43 61.7241 124.484 61.7306 124.535 61.7473C124.587 61.7639 124.634 61.7902 124.675 61.8247C124.716 61.8593 124.749 61.9013 124.773 61.9485C124.798 61.9957 124.812 62.0471 124.816 62.0997C124.82 62.1524 124.813 62.2052 124.796 62.2553L124.348 63.5739C124.221 63.9536 124.015 64.3042 123.745 64.6044C123.475 64.9047 123.145 65.1483 122.775 65.3208C121.614 65.7995 120.359 66.0227 119.099 65.9743Z" fill="#ECA085"/>
<path d="M129.133 69.9565C128.603 69.9651 128.076 69.8706 127.584 69.6786C126.312 69.164 125.305 68.7565 124.559 67.8564C123.947 67.1012 123.597 66.1752 123.56 65.2127C123.536 64.6052 123.619 63.9981 123.805 63.418L124.288 61.9313C124.305 61.8811 124.331 61.8345 124.366 61.7942C124.4 61.7539 124.443 61.7207 124.491 61.6964C124.539 61.6722 124.591 61.6574 124.645 61.6529C124.699 61.6484 124.753 61.6543 124.804 61.6702C124.856 61.6861 124.904 61.7118 124.945 61.7458C124.986 61.7797 125.02 61.8213 125.045 61.8681C125.07 61.9148 125.085 61.966 125.09 62.0185C125.094 62.071 125.088 62.1238 125.072 62.1741L124.589 63.6585C124.433 64.1493 124.362 64.6623 124.381 65.1759C124.41 65.967 124.696 66.7286 125.197 67.3506C125.813 68.0931 126.734 68.466 127.901 68.9383C128.867 69.3359 130.371 69.17 131.643 68.5248C132.353 68.2332 132.924 67.6909 133.242 67.0063L137.749 55.4889C137.768 55.4395 137.797 55.3942 137.834 55.3557C137.871 55.3172 137.916 55.2862 137.965 55.2646C138.015 55.2429 138.068 55.231 138.122 55.2295C138.176 55.228 138.23 55.2369 138.281 55.2558C138.331 55.2746 138.377 55.3031 138.417 55.3395C138.456 55.3758 138.487 55.4194 138.509 55.4677C138.531 55.516 138.543 55.5681 138.545 55.6209C138.546 55.6738 138.537 55.7263 138.517 55.7756L134.018 67.2693C133.639 68.1532 132.923 68.8589 132.022 69.2376C131.13 69.6958 130.141 69.9421 129.133 69.9565ZM127.262 54.5636C127.219 54.5637 127.177 54.5572 127.136 54.5444C127.085 54.5284 127.037 54.5026 126.996 54.4686C126.955 54.4346 126.921 54.393 126.896 54.3462C126.872 54.2994 126.856 54.2483 126.852 54.1958C126.848 54.1433 126.854 54.0904 126.87 54.0403L127.601 51.8078C127.634 51.7065 127.707 51.6221 127.804 51.5733C127.901 51.5245 128.013 51.5152 128.117 51.5475C128.221 51.5799 128.307 51.6512 128.357 51.7457C128.407 51.8402 128.417 51.9503 128.384 52.0517L127.653 54.2841C127.627 54.3652 127.574 54.436 127.504 54.4862C127.434 54.5365 127.349 54.5636 127.262 54.5636Z" fill="#ECA085"/>
<path d="M138.269 73.622C137.661 73.6218 137.057 73.5474 136.468 73.4006C135.723 73.252 135.019 72.9514 134.401 72.5185C133.783 72.0856 133.265 71.5303 132.883 70.8887C132.672 70.5069 132.549 70.0846 132.524 69.6515C132.498 69.2184 132.571 68.7851 132.736 68.3823L137.884 55.7864C137.904 55.7374 137.934 55.6928 137.971 55.6551C138.009 55.6174 138.054 55.5873 138.104 55.5665C138.153 55.5457 138.207 55.5346 138.261 55.534C138.314 55.5333 138.368 55.543 138.418 55.5626C138.468 55.5821 138.514 55.6111 138.553 55.6479C138.591 55.6847 138.622 55.7285 138.643 55.7769C138.665 55.8254 138.676 55.8774 138.677 55.9301C138.677 55.9828 138.667 56.0351 138.647 56.084L133.499 68.6799C133.379 68.977 133.327 69.2961 133.347 69.6149C133.367 69.9336 133.459 70.2442 133.615 70.5246C133.948 71.0614 134.392 71.5249 134.918 71.8861C135.444 72.2472 136.04 72.4981 136.671 72.623C136.972 72.6975 137.278 72.7511 137.587 72.7834C139.762 73.014 141.76 72.1579 142.333 70.7569L146.809 59.8069C146.829 59.7578 146.859 59.7131 146.897 59.6752C146.934 59.6373 146.979 59.6071 147.029 59.5862C147.078 59.5653 147.132 59.5542 147.186 59.5535C147.24 59.5528 147.294 59.5625 147.344 59.5821C147.394 59.6016 147.44 59.6307 147.478 59.6676C147.517 59.7045 147.548 59.7484 147.569 59.797C147.59 59.8455 147.602 59.8976 147.602 59.9504C147.603 60.0032 147.593 60.0556 147.573 60.1045L143.097 71.0546C142.462 72.6065 140.5 73.622 138.269 73.622ZM141.324 95.2606C139.896 95.2506 138.492 94.9045 137.23 94.2518C136.647 93.9569 136.057 93.6257 135.476 93.2677C135.384 93.2105 135.32 93.1204 135.296 93.0169C135.273 92.9135 135.292 92.8051 135.35 92.7154C135.408 92.6258 135.5 92.5622 135.605 92.5385C135.711 92.5147 135.822 92.5329 135.915 92.5889C136.476 92.9349 137.046 93.2545 137.608 93.539C138.851 94.2045 140.26 94.5186 141.675 94.4461C143.091 94.3736 144.458 93.9175 145.623 93.1288C145.713 93.0688 145.824 93.0463 145.931 93.0661C146.038 93.0859 146.133 93.1465 146.195 93.2345C146.256 93.3224 146.279 93.4306 146.259 93.5352C146.238 93.6398 146.176 93.7322 146.086 93.7922C144.688 94.7414 143.027 95.2535 141.324 95.2606ZM123.526 92.7152C121.262 92.7494 119.024 92.2309 117.017 91.2066C116.745 91.0632 116.487 90.8957 116.247 90.7063C116.204 90.6733 116.169 90.6325 116.143 90.5862C116.117 90.5399 116.101 90.4891 116.095 90.4366C116.089 90.3841 116.094 90.331 116.109 90.2803C116.124 90.2296 116.149 90.1823 116.183 90.1412C116.217 90.1001 116.259 90.0659 116.307 90.0406C116.354 90.0154 116.406 89.9995 116.46 89.9939C116.514 89.9884 116.568 89.9932 116.62 90.0082C116.672 90.0232 116.72 90.0481 116.762 90.0813C116.966 90.2418 117.184 90.3833 117.414 90.5037C119.499 91.5544 121.836 92.0365 124.177 91.8991C125.568 91.8447 126.942 91.5941 128.259 91.155C128.362 91.1208 128.475 91.128 128.573 91.175C128.67 91.222 128.745 91.3049 128.78 91.4056C128.816 91.5063 128.808 91.6165 128.76 91.712C128.712 91.8076 128.627 91.8806 128.524 91.9151C127.133 92.3788 125.68 92.6435 124.211 92.7009C123.982 92.7108 123.754 92.7156 123.526 92.7152ZM115.131 69.8876C115.048 69.8875 114.968 69.8631 114.899 69.8176C114.831 69.772 114.778 69.7075 114.748 69.6323C114.718 69.5571 114.712 69.4748 114.73 69.3961C114.749 69.3174 114.791 69.246 114.852 69.1912C115.406 68.6915 117.198 66.9583 117.293 65.4173C117.288 65.3889 117.287 65.3602 117.289 65.3316C117.3 65.1376 117.275 64.9433 117.216 64.7577C116.916 63.8087 115.575 62.6373 114.596 61.7823L114.553 61.7449C114.32 61.5352 114.107 61.3644 113.94 61.232C113.918 61.2141 113.897 61.1939 113.879 61.1716C113.48 60.8415 113.206 60.5928 113.397 60.2501C113.639 59.8618 114.098 60.0568 114.403 60.1864C114.545 60.2473 114.712 60.3248 114.904 60.4132C116.522 61.2277 118.268 61.7728 120.07 62.0261C121.486 62.1893 122.92 62.0927 124.299 61.7411C124.367 61.7288 124.433 61.7112 124.498 61.6884L124.553 61.6708C125.188 61.4961 125.803 61.2585 126.388 60.9618C127.615 60.339 129.099 59.4148 129.677 57.7859C129.815 57.4928 129.886 57.1741 129.885 56.8516C129.885 56.5292 129.812 56.2107 129.673 55.9182C129.322 55.2992 128.48 54.8401 127.171 54.5535C127.13 54.5528 127.09 54.5462 127.051 54.5337C125.326 54.2398 123.578 54.0932 121.827 54.0954L121.639 54.0899C120.877 54.0733 120.116 54.0141 119.361 53.9126C118.46 53.7945 117.554 53.725 116.646 53.7044L116.324 53.6929C116.184 53.6885 116.048 53.6836 115.915 53.6775C115.806 53.6722 115.704 53.6249 115.631 53.546C115.558 53.4672 115.52 53.3632 115.525 53.2569C115.532 53.1511 115.581 53.0521 115.661 52.9809C115.742 52.9098 115.847 52.872 115.956 52.8757C116.084 52.8818 116.216 52.8862 116.352 52.8911L116.676 52.9027C117.609 52.9239 118.54 52.9953 119.465 53.1163C120.194 53.2144 120.927 53.2718 121.663 53.2882L121.85 53.2931C123.638 53.2922 125.422 53.4418 127.183 53.7401C127.252 53.7443 127.319 53.7574 127.384 53.7791C128.92 54.1141 129.915 54.6891 130.392 55.5283C130.589 55.9192 130.696 56.3471 130.706 56.7823C130.717 57.2176 130.631 57.6499 130.454 58.0495C129.781 59.9453 128.129 60.9827 126.766 61.6747C126.135 61.9943 125.473 62.2505 124.79 62.4391C124.686 62.4763 124.579 62.505 124.471 62.5248C123.004 62.8969 121.479 62.9982 119.975 62.8235C118.482 62.6308 117.025 62.2285 115.65 61.6291C116.654 62.5232 117.691 63.538 118.002 64.5227C118.081 64.7747 118.119 65.0374 118.113 65.3009C118.117 65.3241 118.118 65.3477 118.118 65.3712C118.066 67.1917 116.207 69.0611 115.41 69.7811C115.334 69.8497 115.234 69.8877 115.131 69.8876Z" fill="#ECA085"/>
<path d="M134.399 84.5348C134.352 84.5347 134.306 84.5269 134.262 84.5117C134.159 84.4762 134.075 84.4023 134.028 84.3062C133.981 84.2101 133.975 84.0998 134.012 83.9994C134.045 83.9066 137.304 74.654 131.545 69.1683C131.467 69.0939 131.423 68.9924 131.422 68.8862C131.421 68.7799 131.463 68.6775 131.539 68.6015C131.615 68.5255 131.718 68.482 131.827 68.4805C131.936 68.4791 132.041 68.5199 132.119 68.5939C138.257 74.441 134.822 84.1696 134.787 84.2674C134.758 84.3456 134.706 84.4133 134.636 84.4612C134.567 84.5091 134.484 84.5348 134.399 84.5348ZM152.421 62.1959C152.331 62.1958 152.243 62.1666 152.171 62.1128C152.1 62.059 152.048 61.9836 152.025 61.8983C151.883 61.4543 151.583 61.0746 151.179 60.8285C150.932 60.7113 150.663 60.6442 150.389 60.631C150.115 60.6179 149.84 60.6591 149.583 60.7521C149.531 60.7669 149.477 60.7716 149.423 60.7659C149.37 60.7602 149.318 60.7443 149.27 60.719C149.223 60.6937 149.181 60.6595 149.147 60.6185C149.114 60.5774 149.088 60.5303 149.073 60.4797C149.058 60.4292 149.053 60.3762 149.059 60.3239C149.065 60.2715 149.081 60.2208 149.107 60.1746C149.133 60.1284 149.168 60.0876 149.21 60.0546C149.252 60.0216 149.3 59.997 149.352 59.9822C149.693 59.8499 150.06 59.7899 150.426 59.806C150.793 59.8221 151.152 59.9141 151.48 60.0758C151.808 60.2374 152.097 60.4652 152.327 60.744C152.558 61.0227 152.726 61.3462 152.819 61.6929C152.847 61.7958 152.831 61.9052 152.776 61.9971C152.721 62.089 152.631 62.1557 152.526 62.1827C152.492 62.1914 152.457 62.1958 152.421 62.1959ZM144.675 57.7207C144.585 57.7205 144.497 57.6913 144.425 57.6375C144.354 57.5837 144.302 57.5083 144.279 57.423C144.137 56.979 143.837 56.5994 143.433 56.3532C143.186 56.2361 142.917 56.1689 142.643 56.1558C142.369 56.1427 142.094 56.1839 141.837 56.2769C141.785 56.2919 141.731 56.2967 141.677 56.2911C141.623 56.2855 141.571 56.2696 141.524 56.2444C141.476 56.2191 141.434 56.1849 141.4 56.1438C141.367 56.1027 141.341 56.0555 141.326 56.0048C141.311 55.9542 141.306 55.9011 141.312 55.8486C141.318 55.7962 141.334 55.7454 141.36 55.6991C141.386 55.6529 141.421 55.6121 141.464 55.5791C141.506 55.5461 141.554 55.5216 141.606 55.5069C141.948 55.3747 142.314 55.3146 142.68 55.3307C143.047 55.3469 143.406 55.4388 143.734 55.6005C144.062 55.7622 144.351 55.99 144.581 56.2687C144.812 56.5475 144.98 56.8709 145.073 57.2176C145.101 57.3206 145.086 57.43 145.03 57.5219C144.975 57.6137 144.885 57.6805 144.78 57.7075C144.746 57.7162 144.711 57.7206 144.675 57.7207ZM135.113 52.9643C135.022 52.9641 134.934 52.9349 134.863 52.8811C134.791 52.8273 134.739 52.7519 134.716 52.6666C134.574 52.2226 134.275 51.843 133.871 51.5968C133.624 51.4796 133.355 51.4125 133.08 51.3994C132.806 51.3862 132.532 51.4274 132.274 51.5205C132.222 51.5353 132.168 51.5399 132.114 51.5342C132.061 51.5286 132.009 51.5126 131.962 51.4873C131.914 51.462 131.872 51.4279 131.839 51.3868C131.805 51.3458 131.78 51.2986 131.765 51.2481C131.749 51.1975 131.745 51.1446 131.75 51.0922C131.756 51.0398 131.773 50.9891 131.798 50.9429C131.824 50.8967 131.859 50.8559 131.901 50.8229C131.943 50.7899 131.992 50.7653 132.043 50.7505C132.385 50.6182 132.751 50.5581 133.118 50.5742C133.484 50.5903 133.844 50.6823 134.171 50.844C134.499 51.0057 134.788 51.2334 135.019 51.5122C135.25 51.791 135.417 52.1145 135.511 52.4612C135.538 52.5642 135.523 52.6736 135.468 52.7654C135.413 52.8573 135.323 52.924 135.217 52.9511C135.183 52.9597 135.148 52.9642 135.113 52.9643ZM129.331 67.5872C129.048 67.5879 128.766 67.539 128.501 67.4428C127.858 67.1863 127.335 66.7061 127.034 66.0951C126.99 65.9979 126.987 65.8878 127.026 65.7888C127.066 65.6897 127.143 65.6099 127.243 65.5667C127.342 65.5235 127.455 65.5205 127.556 65.5582C127.658 65.596 127.74 65.6716 127.785 65.7683C127.997 66.1847 128.355 66.5128 128.794 66.6931C129.057 66.7704 129.333 66.7948 129.606 66.7651C129.879 66.7354 130.143 66.6521 130.382 66.5201C130.481 66.4749 130.593 66.4695 130.696 66.5052C130.798 66.5409 130.882 66.6149 130.929 66.7108C130.976 66.8067 130.981 66.9168 130.945 67.0169C130.909 67.1171 130.834 67.1991 130.736 67.2451C130.299 67.4599 129.819 67.5768 129.331 67.5872ZM138.387 71.0185C138.103 71.0194 137.822 70.9706 137.557 70.8746C136.914 70.6181 136.391 70.1379 136.09 69.5269C136.046 69.4296 136.043 69.3192 136.082 69.2198C136.121 69.1205 136.199 69.0403 136.298 68.9971C136.398 68.9538 136.511 68.951 136.613 68.9891C136.715 69.0273 136.797 69.1034 136.841 69.2007C137.053 69.6166 137.411 69.9443 137.85 70.1244C138.113 70.2024 138.389 70.2273 138.662 70.1976C138.935 70.1679 139.199 70.0841 139.438 69.9514C139.537 69.9061 139.649 69.9007 139.752 69.9365C139.854 69.9722 139.938 70.0461 139.985 70.142C140.032 70.2379 140.037 70.348 140.001 70.4482C139.965 70.5483 139.89 70.6303 139.791 70.6763C139.355 70.8912 138.875 71.0081 138.387 71.0185ZM147.142 73.3975C146.859 73.3984 146.578 73.3497 146.312 73.2536C145.669 72.9969 145.146 72.5165 144.845 71.9054C144.801 71.8081 144.798 71.6976 144.837 71.5982C144.876 71.4988 144.954 71.4186 145.053 71.3753C145.153 71.3319 145.266 71.329 145.368 71.3672C145.47 71.4053 145.552 71.4814 145.596 71.5786C145.808 71.9951 146.166 72.3234 146.605 72.5034C146.868 72.5809 147.145 72.6055 147.418 72.5758C147.691 72.5461 147.955 72.4626 148.194 72.3304C148.292 72.2851 148.405 72.2798 148.507 72.3155C148.61 72.3512 148.693 72.4252 148.74 72.5211C148.787 72.617 148.793 72.727 148.757 72.8272C148.72 72.9273 148.645 73.0094 148.547 73.0553C148.111 73.2702 147.631 73.3871 147.142 73.3975ZM123.833 51.0515C123.755 51.0514 123.679 51.0301 123.614 50.9899C123.548 50.9497 123.496 50.8922 123.462 50.8241C123.238 50.4139 122.871 50.0958 122.427 49.9279C122.162 49.8571 121.885 49.8398 121.613 49.877C121.341 49.9142 121.079 50.0051 120.844 50.1442C120.747 50.1927 120.634 50.2014 120.531 50.1686C120.427 50.1358 120.341 50.0641 120.291 49.9693C120.241 49.8745 120.232 49.7643 120.266 49.663C120.3 49.5617 120.373 49.4776 120.47 49.4292C120.78 49.237 121.128 49.1113 121.492 49.0602C121.855 49.0092 122.226 49.034 122.579 49.1331C122.931 49.2322 123.259 49.4033 123.539 49.6351C123.819 49.8668 124.046 50.154 124.204 50.4776C124.233 50.5387 124.247 50.6063 124.243 50.6739C124.239 50.7415 124.217 50.807 124.18 50.8642C124.143 50.9215 124.092 50.9687 124.031 51.0014C123.97 51.0342 123.902 51.0514 123.833 51.0515H123.833ZM128.605 54.5886L128.044 56.3471C128.044 56.3471 120.381 56.6658 121.651 53.6893C124.005 53.5771 126.362 53.8818 128.605 54.5886V54.5886Z" fill="#ECA085"/>
<path d="M91.5895 146.858L87.2064 88.352C87.2064 88.352 88.426 87.7466 92.4319 82.9121C94.9757 79.9166 97.258 76.7182 99.255 73.3507C100.815 70.6911 101.592 68.9324 101.378 66.8455C100.888 63.7498 100.237 60.6805 99.4275 57.6494C98.969 56.2264 98.0768 53.4576 95.6454 52.1631C94.6665 51.642 93.2718 51.5615 90.4824 51.4005C87.7406 51.2422 87.7304 51.4801 85.4752 51.344C81.3461 51.0949 51.7791 56.6693 51.7791 56.6693C51.7791 56.6693 51.0048 71.4831 54.4986 83.8615C54.4986 83.8615 55.2664 86.7389 57.2943 88.4714L62.6448 154.712L91.5895 146.858Z" fill="#633322"/>
<path d="M82.0293 60.9236C82.2037 61.6221 82.1986 62.3517 82.0147 63.0478C81.8307 63.7439 81.4734 64.3849 80.9747 64.9137C80.2316 65.6612 79.2658 65.9639 77.9676 66.3642C75.9083 66.9992 72.6867 65.3745 72.2986 63.6688L72.6859 65.1125C73.2579 66.9894 71.533 68.8513 68.8331 69.2702C68.5073 69.3212 68.1782 69.3494 67.8484 69.3544C65.515 69.3909 63.41 68.2784 62.9076 66.6308L62.9282 66.8389C63.4508 68.5509 62.1891 70.3164 60.11 70.7816C59.8599 70.8381 59.6053 70.8738 59.3489 70.8881C57.5386 70.9903 55.8575 70.0276 55.3986 68.5248L51.7791 56.6692C51.2566 54.9573 52.5183 53.1917 54.5973 52.7266C56.677 52.2559 58.7856 53.2707 59.3087 54.9834L59.4633 55.3307C58.8912 53.4538 60.1711 50.3052 62.7985 49.4748C65.4013 48.652 68.1513 50.2363 68.7239 52.1141L68.8813 51.8252C68.4394 49.8822 70.4888 46.4987 73.3055 45.8723C76.0619 45.2594 78.8825 47.0907 79.3249 49.0347L79.9862 51.3679C79.5531 49.5746 79.6368 45.9134 84.1884 45.1483C87.2899 44.627 90.6795 46.1128 90.9543 49.6511L92.1909 58.4636C92.3492 59.4732 92.1281 60.5047 91.5683 61.3677C91.0086 62.2306 90.148 62.8667 89.1455 63.1585C88.4173 63.3283 87.6707 63.411 86.9221 63.4046C84.2428 63.1265 82.6589 62.4305 82.2784 60.8563L82.0293 60.9236Z" fill="#633322"/>
<path d="M59.0872 71.297C57.1751 71.297 55.4849 70.2113 55.0048 68.6395L51.3853 56.7839C51.3699 56.7334 51.3648 56.6804 51.3703 56.628C51.3759 56.5755 51.3919 56.5247 51.4176 56.4783C51.4433 56.4319 51.4781 56.3909 51.5199 56.3576C51.5618 56.3244 51.61 56.2995 51.6618 56.2844C51.7135 56.2694 51.7678 56.2644 51.8215 56.2698C51.8752 56.2752 51.9273 56.2909 51.9748 56.316C52.0223 56.341 52.0643 56.375 52.0984 56.4159C52.1324 56.4568 52.1579 56.5038 52.1733 56.5544L55.7928 68.41C56.1891 69.7077 57.6768 70.588 59.3254 70.4875C59.5585 70.4745 59.79 70.4422 60.0175 70.3909C60.482 70.2989 60.9225 70.1154 61.312 69.8517C61.7016 69.588 62.032 69.2495 62.2831 68.857C62.4573 68.574 62.5696 68.2587 62.6128 67.9312C62.656 67.6037 62.6293 67.271 62.5342 66.9541L58.9147 55.0985C58.8838 54.9965 58.8956 54.8868 58.9475 54.7933C58.9994 54.6998 59.0871 54.6302 59.1915 54.5998C59.2958 54.5694 59.4082 54.5807 59.5041 54.6312C59.6 54.6816 59.6714 54.7671 59.7028 54.8689L63.3222 66.7245C63.4498 67.1467 63.4864 67.5901 63.4298 68.0268C63.3732 68.4635 63.2245 68.8839 62.9932 69.2617C62.6854 69.7488 62.2791 70.1694 61.7992 70.498C61.3193 70.8266 60.7758 71.0562 60.2019 71.1729C59.9295 71.2345 59.6521 71.2734 59.3729 71.2893C59.2773 71.2943 59.1819 71.297 59.0872 71.297ZM91.2084 51.8375C91.1092 51.8373 91.0133 51.802 90.9386 51.7382C90.8638 51.6744 90.8152 51.5864 90.8018 51.4904L90.5509 49.7045C90.5435 49.6522 90.5468 49.5991 90.5604 49.548C90.5741 49.497 90.5979 49.4491 90.6306 49.4071C90.6632 49.3651 90.704 49.3297 90.7507 49.3031C90.7973 49.2765 90.8489 49.2591 90.9024 49.252C90.9559 49.2448 91.0103 49.2481 91.0626 49.2615C91.1148 49.2749 91.1638 49.2982 91.2068 49.3302C91.2498 49.3621 91.286 49.402 91.3132 49.4475C91.3404 49.4931 91.3581 49.5435 91.3654 49.5957L91.6162 51.3816C91.6235 51.4338 91.6203 51.4869 91.6066 51.5379C91.5929 51.5889 91.5691 51.6367 91.5365 51.6787C91.5038 51.7206 91.4631 51.7559 91.4165 51.7825C91.3699 51.8091 91.3184 51.8265 91.265 51.8336C91.2462 51.8362 91.2273 51.8375 91.2084 51.8375ZM92.2279 59.5995C92.1346 59.6 92.044 59.569 91.9713 59.5119C91.8986 59.4548 91.8483 59.375 91.8288 59.2859C91.8207 59.2495 91.8173 59.2123 91.8184 59.175C91.8243 59.0718 91.8233 58.9683 91.8153 58.8653C91.8067 58.7592 91.8415 58.654 91.9123 58.573C91.983 58.492 92.0838 58.4418 92.1925 58.4333C92.3011 58.4249 92.4088 58.4589 92.4918 58.528C92.5747 58.597 92.6262 58.6954 92.6348 58.8016C92.6454 58.9349 92.6471 59.0688 92.6402 59.2025C92.6387 59.2933 92.6059 59.3811 92.547 59.4515C92.4882 59.522 92.4068 59.571 92.3159 59.5907C92.287 59.5966 92.2575 59.5996 92.2279 59.5995ZM86.9359 63.8051C85.6608 63.7469 84.4147 63.4139 83.287 62.8298C82.9343 62.6257 82.6276 62.354 82.3854 62.031C82.1433 61.708 81.9706 61.3404 81.878 60.9505L81.5546 59.5962C81.5421 59.5448 81.5401 59.4916 81.5488 59.4394C81.5574 59.3873 81.5765 59.3373 81.605 59.2924C81.6335 59.2475 81.6708 59.2086 81.7147 59.1778C81.7586 59.147 81.8084 59.1249 81.861 59.1129C81.9137 59.1009 81.9683 59.0992 82.0217 59.1078C82.075 59.1165 82.1261 59.1353 82.172 59.1633C82.2179 59.1913 82.2577 59.2278 82.2891 59.2708C82.3205 59.3138 82.3428 59.3624 82.3549 59.4139L82.6781 60.7665C82.7463 61.0547 82.8743 61.3261 83.0542 61.564C83.2341 61.8019 83.4621 62.0014 83.724 62.1499C84.7292 62.6604 85.8359 62.9519 86.9677 63.0044C87.4029 62.9981 87.8375 62.9687 88.2695 62.9166C88.3753 62.9025 88.4826 62.9285 88.5693 62.9893C88.6561 63.05 88.7157 63.141 88.7358 63.2433C88.7552 63.3452 88.7332 63.4504 88.6744 63.5366C88.6157 63.6228 88.5248 63.6833 88.4211 63.7052L88.4132 63.7068C87.9232 63.7681 87.4299 63.8009 86.9359 63.8051Z" fill="#471301"/>
<path d="M76.9613 66.9028C75.8048 66.8742 74.6794 66.5311 73.7117 65.9121C72.8424 65.4505 72.1923 64.6753 71.9003 63.7522L68.4892 51.9322C68.4605 51.83 68.4744 51.7209 68.5278 51.6287C68.5812 51.5364 68.6698 51.4686 68.7743 51.4399C68.8788 51.4112 68.9906 51.4239 69.0855 51.4754C69.1803 51.5269 69.2505 51.613 69.2806 51.7148L72.6979 63.5589C72.947 64.2785 73.4679 64.8783 74.1544 65.2361C75.3628 65.9906 76.8452 66.2877 77.841 65.9785C79.0492 65.6106 80.0015 65.3206 80.6829 64.6358C81.2412 64.0588 81.5971 63.3233 81.699 62.5358C81.7637 62.0271 81.7406 61.5114 81.6306 61.0101L81.2875 59.4911C81.2757 59.4396 81.2744 59.3863 81.2838 59.3343C81.2931 59.2822 81.3128 59.2325 81.3419 59.188C81.3709 59.1434 81.4087 59.1049 81.4531 59.0746C81.4974 59.0444 81.5474 59.023 81.6002 59.0116C81.653 59.0003 81.7077 58.9992 81.7609 59.0085C81.8141 59.0178 81.865 59.0373 81.9105 59.0658C81.956 59.0943 81.9953 59.1314 82.0262 59.1748C82.057 59.2181 82.0787 59.2671 82.0902 59.3187L82.4338 60.8393C82.5638 61.4325 82.5907 62.0427 82.5134 62.6445C82.3877 63.6022 81.9528 64.4959 81.2718 65.196C80.4455 66.0258 79.4055 66.3427 78.0885 66.7441C77.7234 66.8532 77.3432 66.9068 76.9613 66.9028ZM79.8479 51.7203C79.7545 51.7201 79.6639 51.6889 79.591 51.6318C79.5181 51.5748 79.4673 51.4952 79.4469 51.4061L78.9257 49.1183C78.9025 49.0145 78.9222 48.9059 78.9808 48.8164C79.0393 48.7268 79.1318 48.6636 79.238 48.6405C79.3441 48.6174 79.4554 48.6363 79.5473 48.6931C79.6392 48.7499 79.7044 48.84 79.7284 48.9436L80.2495 51.2315C80.2626 51.2902 80.2622 51.351 80.2481 51.4095C80.2341 51.468 80.2068 51.5227 80.1683 51.5695C80.1298 51.6164 80.081 51.6543 80.0256 51.6803C79.9701 51.7064 79.9094 51.7201 79.8479 51.7203Z" fill="#471301"/>
<path d="M67.7388 69.7566C65.2361 69.7571 63.0498 68.5023 62.5138 66.746L59.0695 55.445C59.0542 55.3945 59.0492 55.3415 59.0548 55.2891C59.0604 55.2367 59.0765 55.1859 59.1022 55.1395C59.1279 55.0932 59.1628 55.0523 59.2047 55.0191C59.2466 54.9859 59.2948 54.9611 59.3466 54.9461C59.3983 54.9311 59.4526 54.9262 59.5062 54.9317C59.5599 54.9371 59.612 54.9529 59.6594 54.978C59.7069 55.0031 59.7488 55.0371 59.7828 55.0781C59.8168 55.119 59.8422 55.1661 59.8576 55.2166L63.3018 66.517C63.7431 67.963 65.6768 68.9866 67.8423 68.9531C68.1526 68.9485 68.4621 68.922 68.7684 68.874C69.4076 68.8056 70.0253 68.6085 70.5825 68.2952C71.1397 67.982 71.6244 67.5594 72.006 67.0541C72.1877 66.7885 72.3076 66.4873 72.3571 66.1716C72.4065 65.8559 72.3844 65.5334 72.2923 65.227L68.3303 52.2285C68.2997 52.1266 68.3117 52.017 68.3637 51.9238C68.4158 51.8306 68.5035 51.7612 68.6077 51.731C68.712 51.7008 68.8242 51.7121 68.9199 51.7626C69.0156 51.813 69.0869 51.8984 69.1183 52L73.0803 64.9985C73.2072 65.4143 73.2391 65.8522 73.1736 66.2813C73.1081 66.7104 72.947 67.1203 72.7015 67.4819C72.2608 68.0871 71.6941 68.5946 71.0387 68.9711C70.3832 69.3477 69.6536 69.5849 68.8978 69.6671C68.5529 69.7208 68.2045 69.7506 67.8553 69.756C67.8165 69.7566 67.7774 69.7566 67.7388 69.7566ZM62.8122 91.0312C60.7127 91.028 58.6898 90.2609 57.1386 88.8795C57.0984 88.8443 57.0657 88.8018 57.0424 88.7543C57.0191 88.7068 57.0055 88.6553 57.0026 88.6027C56.9996 88.5501 57.0073 88.4974 57.0252 88.4477C57.0431 88.398 57.0708 88.3522 57.1068 88.313C57.1428 88.2738 57.1864 88.2418 57.2351 88.2191C57.2837 88.1963 57.3365 88.183 57.3903 88.1802C57.4442 88.1773 57.4982 88.1848 57.5491 88.2023C57.6 88.2197 57.6468 88.2468 57.687 88.282C58.7743 89.2608 60.1302 89.9089 61.5889 90.1469C63.0476 90.3849 64.5457 90.2025 65.8999 89.622C66.4871 89.388 67.0841 89.1195 67.6742 88.8251C67.7712 88.7769 67.8839 88.7683 67.9875 88.8012C68.0911 88.8341 68.1771 88.9057 68.2266 89.0004C68.2761 89.0951 68.2852 89.2051 68.2517 89.3063C68.2183 89.4075 68.1451 89.4916 68.0482 89.5401C67.4376 89.8444 66.8195 90.1223 66.2106 90.365C65.1329 90.8004 63.9786 91.0267 62.8122 91.0312ZM81.4214 90.1069C80.718 90.1064 80.0154 90.0604 79.3183 89.969C77.8611 89.7822 76.4392 89.3906 75.0967 88.8064C74.9974 88.763 74.9198 88.6828 74.8809 88.5836C74.842 88.4843 74.845 88.3741 74.8892 88.277C74.9334 88.1799 75.0152 88.1038 75.1168 88.0656C75.2183 88.0273 75.3312 88.0299 75.4308 88.0727C76.7012 88.626 78.047 88.9967 79.4263 89.1733C81.7459 89.5166 84.1173 89.2428 86.2909 88.3808C86.4823 88.3013 86.6674 88.2082 86.8449 88.1024C86.9379 88.0467 87.0496 88.0294 87.1556 88.0542C87.2617 88.0791 87.3532 88.144 87.4102 88.2347C87.4672 88.3255 87.4849 88.4346 87.4595 88.5381C87.4341 88.6416 87.3676 88.731 87.2747 88.7867C87.0652 88.9112 86.847 89.0211 86.6216 89.1156C84.9763 89.7911 83.2061 90.1285 81.4214 90.1069ZM90.5105 68.0519C90.453 68.052 90.396 68.0401 90.3435 68.0172C90.2909 67.9943 90.2438 67.9609 90.2054 67.919C89.4784 67.1326 87.8003 65.1062 87.917 63.2889C87.9186 63.265 87.9224 63.2413 87.9282 63.2181C87.9468 62.9562 88.0081 62.6988 88.1099 62.4558C88.5146 61.4953 89.6533 60.5694 90.72 59.7797C89.2953 60.2554 87.8077 60.5277 86.3033 60.5881C84.7746 60.6261 83.252 60.3867 81.8128 59.8818C81.7348 59.86 81.6586 59.832 81.585 59.7983L81.5299 59.7753C80.872 59.5283 80.2414 59.2168 79.6479 58.8455C78.3523 58.0355 76.8032 56.8564 76.3086 54.9079C76.1693 54.4945 76.1235 54.0565 76.1744 53.6242C76.2253 53.1919 76.3716 52.7754 76.6033 52.4037C77.1565 51.6096 78.2004 51.1246 79.7947 50.9209C79.8502 50.907 79.9077 50.9018 79.9649 50.9055C81.7465 50.7644 83.5373 50.7729 85.3176 50.9308L85.5037 50.9423C86.2375 50.9909 86.9734 50.9985 87.708 50.9654C88.6418 50.926 89.5771 50.937 90.5097 50.9983L91.2263 51.0351C91.3351 51.0395 91.4377 51.086 91.5115 51.1642C91.5853 51.2425 91.6242 51.3462 91.6197 51.4525C91.6186 51.5055 91.6065 51.5577 91.5842 51.6061C91.5618 51.6544 91.5297 51.6978 91.4898 51.7337C91.4498 51.7697 91.4028 51.7973 91.3516 51.815C91.3005 51.8328 91.2461 51.8402 91.1919 51.8369L90.4661 51.8001C89.558 51.7408 88.6472 51.7298 87.7378 51.7672C86.9765 51.8015 86.2138 51.7935 85.4534 51.743L85.2672 51.732C83.5232 51.5757 81.7685 51.5675 80.0231 51.7073C79.9834 51.712 79.9433 51.7113 79.9038 51.7051C78.5719 51.8869 77.6908 52.2696 77.283 52.8551C77.1176 53.1339 77.0162 53.4445 76.9857 53.7653C76.9552 54.0862 76.9964 54.4097 77.1064 54.7135C77.5314 56.3885 78.924 57.4396 80.0897 58.1689C80.6398 58.5127 81.2243 58.8011 81.8342 59.0295L81.9118 59.0619C81.9581 59.0838 82.0061 59.1018 82.0555 59.1157C83.4087 59.5967 84.8427 59.8239 86.2822 59.7851C88.1002 59.6916 89.8894 59.3028 91.5764 58.6346C91.7758 58.5632 91.9493 58.5006 92.0936 58.4534C92.41 58.3507 92.8855 58.1969 93.083 58.5857C93.25 58.963 92.953 59.1876 92.5241 59.4825C92.5049 59.502 92.4836 59.5195 92.4606 59.5347C92.2823 59.6522 92.0542 59.8032 91.8019 59.9916L91.7555 60.0251C90.7018 60.7907 89.2585 61.839 88.8709 62.7595C88.7954 62.9384 88.7531 63.129 88.7461 63.3224C88.7453 63.3515 88.7414 63.3804 88.7342 63.4086C88.6867 64.9518 90.3106 66.8349 90.8157 67.3819C90.8689 67.4395 90.9039 67.511 90.9164 67.5876C90.929 67.6643 90.9184 67.7428 90.8861 67.8137C90.8538 67.8847 90.8012 67.9449 90.7345 67.9872C90.6678 68.0294 90.59 68.0519 90.5105 68.0519V68.0519Z" fill="#471301"/>
<path d="M69.9654 80.9394C69.8741 80.9392 69.7855 80.9095 69.7135 80.8548C69.6415 80.8001 69.5901 80.7236 69.5674 80.6373C69.5413 80.5368 67.02 70.5451 73.6743 65.2631C73.7589 65.196 73.8673 65.1644 73.9757 65.1753C74.0842 65.1862 74.1837 65.2387 74.2525 65.3213C74.3213 65.4039 74.3536 65.5098 74.3424 65.6157C74.3313 65.7215 74.2775 65.8187 74.1929 65.8859C67.9422 70.8477 70.3389 80.3435 70.3639 80.4385C70.3909 80.5416 70.3748 80.651 70.3192 80.7426C70.2636 80.8341 70.1731 80.9004 70.0674 80.9267C70.0341 80.9352 69.9998 80.9395 69.9654 80.9394ZM54.0836 57.1007C54.0354 57.1008 53.9876 57.0924 53.9425 57.076C53.8405 57.0397 53.7574 56.9655 53.7115 56.8696C53.6655 56.7736 53.6604 56.6638 53.6972 56.5641C53.8223 56.2271 54.0192 55.9198 54.2749 55.6625C54.5306 55.4053 54.8394 55.2039 55.1807 55.0718C55.522 54.9396 55.8882 54.8797 56.255 54.8959C56.6217 54.9121 56.9808 55.0042 57.3085 55.1659C57.3587 55.1852 57.4046 55.214 57.4434 55.2506C57.4823 55.2872 57.5134 55.3309 57.5349 55.3792C57.5564 55.4275 57.568 55.4795 57.569 55.5322C57.57 55.5849 57.5603 55.6372 57.5405 55.6863C57.5208 55.7353 57.4913 55.7801 57.4538 55.818C57.4164 55.8559 57.3716 55.8863 57.3221 55.9073C57.2726 55.9284 57.2194 55.9397 57.1654 55.9406C57.1115 55.9416 57.0578 55.9321 57.0076 55.9128C56.7597 55.7971 56.4904 55.7318 56.2158 55.7206C55.9413 55.7095 55.6674 55.7528 55.4105 55.848C54.9854 56.0575 54.6515 56.4091 54.4698 56.8387C54.4403 56.9156 54.3876 56.9818 54.3186 57.0286C54.2496 57.0754 54.1676 57.1006 54.0836 57.1007ZM62.2121 53.3267C62.1639 53.3268 62.1161 53.3185 62.0709 53.302C61.9689 53.2657 61.8859 53.1913 61.8399 53.0953C61.794 52.9992 61.789 52.8893 61.826 52.7896C61.951 52.4526 62.1479 52.1453 62.4036 51.888C62.6593 51.6308 62.968 51.4294 63.3093 51.2973C63.6506 51.1652 64.0168 51.1053 64.3836 51.1217C64.7503 51.138 65.1094 51.2301 65.437 51.392C65.4873 51.4112 65.5333 51.4399 65.5722 51.4765C65.6111 51.5131 65.6423 51.5568 65.6639 51.6052C65.6855 51.6535 65.6971 51.7056 65.6981 51.7583C65.6991 51.8111 65.6895 51.8635 65.6697 51.9126C65.6499 51.9617 65.6204 52.0065 65.5829 52.0444C65.5453 52.0824 65.5005 52.1128 65.4509 52.1338C65.4014 52.1548 65.348 52.1661 65.294 52.1669C65.24 52.1678 65.1863 52.1583 65.1361 52.1389C64.8883 52.0229 64.619 51.9574 64.3445 51.9463C64.07 51.9351 63.796 51.9786 63.5392 52.0741C63.114 52.2834 62.7801 52.6351 62.5982 53.0648C62.5688 53.1416 62.5161 53.2078 62.4471 53.2547C62.3781 53.3015 62.2961 53.3266 62.2121 53.3267ZM72.1759 49.4336C72.1277 49.4337 72.0799 49.4254 72.0347 49.4089C71.9328 49.3727 71.8497 49.2985 71.8037 49.2025C71.7577 49.1066 71.7526 48.9967 71.7895 48.8971C71.9145 48.56 72.1114 48.2528 72.3671 47.9955C72.6228 47.7383 72.9315 47.5369 73.2728 47.4048C73.6141 47.2726 73.9802 47.2127 74.347 47.2289C74.7138 47.2451 75.0729 47.3371 75.4005 47.4989C75.4507 47.5182 75.4966 47.5469 75.5354 47.5835C75.5743 47.6201 75.6053 47.6638 75.6269 47.7121C75.6484 47.7605 75.66 47.8124 75.661 47.8651C75.6619 47.9178 75.6523 47.9702 75.6325 48.0192C75.6128 48.0683 75.5833 48.113 75.5458 48.151C75.5084 48.1889 75.4636 48.2192 75.4141 48.2403C75.3646 48.2613 75.3114 48.2726 75.2574 48.2736C75.2034 48.2745 75.1498 48.2651 75.0996 48.2458C74.8518 48.1298 74.5825 48.0643 74.308 48.0532C74.0335 48.042 73.7595 48.0855 73.5027 48.181C73.0777 48.3904 72.7438 48.742 72.562 49.1717C72.5326 49.2485 72.4798 49.3147 72.4109 49.3615C72.3419 49.4083 72.2599 49.4335 72.1759 49.4336ZM76.767 64.5162C76.2029 64.501 75.6536 64.337 75.1772 64.0417C75.0835 63.9874 75.0158 63.899 74.9889 63.7959C74.9619 63.6929 74.9779 63.5836 75.0335 63.492C75.089 63.4005 75.1794 63.3342 75.2849 63.3078C75.3905 63.2813 75.5024 63.2968 75.5962 63.3509C75.8221 63.5034 76.0773 63.6097 76.3463 63.6634C76.6154 63.7171 76.8928 63.7171 77.1619 63.6634C77.6157 63.5225 78.0027 63.2273 78.2525 62.8314C78.306 62.7391 78.3948 62.6714 78.4994 62.6428C78.6039 62.6143 78.7158 62.6273 78.8106 62.679C78.9054 62.7307 78.9753 62.8169 79.0053 62.9188C79.0352 63.0207 79.0225 63.13 78.9702 63.2229C78.6137 63.8051 78.0486 64.2374 77.3843 64.436C77.1831 64.4893 76.9755 64.5163 76.767 64.5162ZM67.4304 67.1347C66.8662 67.1195 66.3168 66.9555 65.8403 66.6602C65.7466 66.6059 65.6789 66.5175 65.6519 66.4144C65.625 66.3113 65.641 66.202 65.6965 66.1105C65.752 66.019 65.8425 65.9527 65.948 65.9262C66.0535 65.8998 66.1655 65.9153 66.2593 65.9693C66.4852 66.122 66.7404 66.2284 67.0095 66.2821C67.2786 66.3358 67.5561 66.3357 67.8252 66.2818C68.2791 66.141 68.6661 65.8457 68.9158 65.4498C68.9694 65.3576 69.0582 65.2898 69.1627 65.2613C69.2673 65.2327 69.3792 65.2457 69.4739 65.2975C69.5687 65.3492 69.6387 65.4354 69.6686 65.5373C69.6985 65.6392 69.6859 65.7485 69.6335 65.8414C69.277 66.4236 68.7119 66.8558 68.0477 67.0545C67.8465 67.1081 67.6389 67.135 67.4304 67.1347ZM58.4908 68.7317C57.9268 68.7165 57.3774 68.5525 56.901 68.2572C56.8072 68.203 56.7393 68.1145 56.7122 68.0114C56.6852 67.9082 56.7012 67.7988 56.7567 67.7072C56.8123 67.6156 56.9029 67.5493 57.0085 67.5229C57.1142 67.4965 57.2262 67.5121 57.3201 67.5664C57.5459 67.7189 57.8011 67.8252 58.0701 67.8789C58.3392 67.9326 58.6166 67.9326 58.8857 67.8788C59.3395 67.738 59.7265 67.4427 59.9763 67.0468C60.0299 66.9546 60.1186 66.8868 60.2232 66.8583C60.3277 66.8297 60.4396 66.8427 60.5344 66.8945C60.6292 66.9462 60.6992 67.0324 60.7291 67.1343C60.759 67.2362 60.7464 67.3455 60.694 67.4384C60.3375 68.0206 59.7724 68.4528 59.1081 68.6515C58.9069 68.7048 58.6993 68.7318 58.4908 68.7317ZM83.5869 48.5242C83.5146 48.524 83.4436 48.5051 83.3811 48.4696C83.3187 48.434 83.2669 48.383 83.2311 48.3217C83.1953 48.2603 83.1766 48.1909 83.1771 48.1203C83.1775 48.0497 83.1971 47.9804 83.2337 47.9196C83.4209 47.6111 83.673 47.3449 83.9734 47.1387C84.2738 46.9325 84.6157 46.7909 84.9763 46.7232C85.3369 46.6556 85.7082 46.6635 86.0654 46.7463C86.4227 46.8292 86.7579 46.9852 87.0489 47.204C87.1404 47.2611 87.2051 47.3512 87.2287 47.4547C87.2524 47.5582 87.2332 47.6667 87.1752 47.7564C87.1172 47.846 87.0252 47.9097 86.9194 47.9334C86.8135 47.957 86.7023 47.9388 86.6101 47.8827C86.3889 47.7237 86.1369 47.6103 85.8694 47.5493C85.6019 47.4883 85.3245 47.481 85.0541 47.528C84.5962 47.6564 84.2009 47.9411 83.9401 48.3303C83.9033 48.3896 83.8514 48.4385 83.7896 48.4725C83.7277 48.5065 83.6579 48.5243 83.5869 48.5242ZM78.4695 51.6249L78.8663 53.4257C78.8663 53.4257 86.4682 54.4191 85.4792 51.3428C83.1443 51.0233 80.7695 51.1189 78.4695 51.6249L78.4695 51.6249Z" fill="#471301"/>
</g>
<defs>
<clipPath id="clip0_566_5017">
<rect width="177" height="177" fill="white"/>
</clipPath>
</defs>
</svg>
