<svg width="85" height="85" viewBox="0 0 85 85" fill="none" xmlns="http://www.w3.org/2000/svg">
<path d="M47.8125 61.2969V61.4828C47.8125 62.4789 47.8922 63.4086 48.025 64.5109C48.1445 65.4273 48.2906 66.5031 48.5563 67.5258C49.1539 69.9562 50.1102 72.2539 51.3719 74.3656C51.4516 74.4984 51.5312 74.6312 51.6109 74.764H51.7969C53.9883 74.764 55.7812 76.557 55.7812 78.7484V79.6781H29.2188V78.7484C29.2188 76.557 31.0117 74.764 33.2031 74.764H33.3891C33.4687 74.6312 33.5484 74.4984 33.6281 74.3656C35.0758 71.9351 36.0984 69.3187 36.6695 66.5695C36.9352 65.2945 37.0945 63.9929 37.1609 62.6781C37.1742 62.2929 37.1875 61.8945 37.1875 61.4828V61.2969C36.4703 60.8054 35.182 59.9156 33.907 59.0523C30.7063 56.8609 28.2359 53.9922 26.7484 50.7515C24.8625 46.5679 23.9062 42.132 23.9062 37.5765C23.9062 33.6054 24.6234 29.7406 26.0578 26.075L26.3898 25.225H58.6102L58.9422 26.075C60.3766 29.7405 61.0938 33.6054 61.0938 37.5765C61.0938 42.132 60.1375 46.5679 58.2516 50.7383C56.7641 53.9922 54.2937 56.8609 51.1062 59.039C49.818 59.9156 48.5296 60.7922 47.8125 61.2969Z" fill="#FA8231"/>
<path d="M51.7969 25.225C51.7969 26.6859 50.6016 27.8812 49.1406 27.8812H28.2094C27.1203 30.989 26.5625 34.2429 26.5625 37.5765C26.5625 41.7601 27.4391 45.8242 29.1656 49.6492C30.4539 52.4383 32.6055 54.9351 35.4078 56.8609L38.6883 59.1054C39.4055 59.5968 39.8438 60.4203 39.8438 61.2969V61.4828C39.8438 61.9078 39.8305 62.3195 39.8172 62.7312C39.7508 64.2586 39.5648 65.7062 39.2727 67.114C38.6086 70.3015 37.4 73.3562 35.6469 76.1719C35.1687 76.9422 34.3055 77.4203 33.3891 77.4203H33.2031C32.4727 77.4203 31.875 78.0179 31.875 78.7484V79.6781H29.2188V78.7484C29.2188 76.557 31.0117 74.764 33.2031 74.764H33.3891C34.9695 72.214 36.0719 69.4648 36.6695 66.5695C36.9352 65.2945 37.0945 63.9929 37.1609 62.6781C37.1742 62.2929 37.1875 61.8945 37.1875 61.4828V61.2969C36.4703 60.8054 35.182 59.9156 33.907 59.0523C30.7063 56.8609 28.2359 53.9922 26.7484 50.7515C24.8625 46.5679 23.9062 42.132 23.9062 37.5765C23.9062 33.6054 24.6234 29.7406 26.0578 26.075L26.3898 25.225H51.7969Z" fill="#FD9644"/>
<path d="M47.8125 61.2969V61.4828C47.8125 62.4789 47.8922 63.4086 48.025 64.5109C48.1445 65.4273 48.2906 66.5031 48.5563 67.5258C49.1938 70.1156 50.2297 72.5461 51.6109 74.764H51.7969C53.9883 74.764 55.7812 76.557 55.7812 78.7484V79.6781H53.125V78.7484C53.125 78.0179 52.5273 77.4203 51.7969 77.4203H51.6109C50.6945 77.4203 49.8445 76.9422 49.3531 76.1719C47.8258 73.7148 46.6837 71.0187 45.9797 68.1765C45.6875 67.0211 45.5148 65.839 45.3953 64.8429C45.2492 63.6343 45.1562 62.6117 45.1562 61.4828V61.2969C45.1562 60.4203 45.5812 59.5968 46.3117 59.1054C47.0289 58.6008 48.3305 57.7242 49.6055 56.8476C52.3945 54.9351 54.5461 52.4383 55.8344 49.6359C57.5609 45.8242 58.4375 41.7601 58.4375 37.5765C58.4375 33.9375 57.7734 30.3914 56.4719 27.0312C56.2328 26.4336 56.2328 25.7961 56.432 25.225H58.6102L58.9422 26.075C60.3766 29.7405 61.0938 33.6054 61.0938 37.5765C61.0938 42.132 60.1375 46.5679 58.2516 50.7383C56.7641 53.9922 54.2937 56.8609 51.1062 59.039C49.818 59.9156 48.5296 60.7922 47.8125 61.2969Z" fill="#BA6125"/>
<path d="M19.1021 50.7804L19.0988 50.7802C18.6391 49.7399 18.2463 48.7153 17.9322 47.7363C17.9281 47.7234 17.9165 47.7131 17.9119 47.7003C17.0429 45.0609 16.6015 42.3991 16.6015 39.7877C16.6015 32.2042 19.3642 25.5162 24.5923 20.4476L24.6412 20.4003C25.2483 19.7964 25.9392 19.1836 26.7791 18.5112C26.8699 18.4288 26.9489 18.3335 27.0139 18.2291C27.8739 16.8432 28.3627 15.3439 28.5094 13.6461C28.7584 10.8549 28.0243 8.39194 26.2007 5.89466C25.975 5.58667 25.6287 5.39011 25.2487 5.35504C24.8699 5.32197 24.4899 5.45173 24.2137 5.7143C21.9893 7.8239 20.8297 10.1164 20.564 12.9333C20.3588 15.2101 20.8307 17.3153 22 19.3391C21.1449 20.2336 20.3544 21.1751 19.629 22.1623C19.5457 21.691 19.4415 21.2187 19.2928 20.7419C18.4563 18.0571 16.8402 16.0584 14.2047 14.4522C13.8791 14.2537 13.4848 14.2063 13.1177 14.3186C12.7533 14.432 12.455 14.6973 12.3007 15.0462C11.0452 17.8659 10.8493 20.4281 11.6845 23.1117C12.4311 25.5073 13.8037 27.3545 15.962 28.8662C15.4346 30.2397 15.0079 31.6574 14.6874 33.1145C14.4644 32.7826 14.227 32.4557 13.9608 32.1374C12.1567 29.9805 9.89729 28.7561 6.84805 28.2853C6.47059 28.2281 6.08677 28.3339 5.79365 28.5784C5.50186 28.8235 5.32801 29.1821 5.31765 29.5641C5.23982 32.6477 6.04267 35.0894 7.8468 37.2476C9.4525 39.1694 11.4256 40.3462 13.9924 40.9145C14.0456 42.1448 14.1777 43.3798 14.4034 44.6171C14.3934 44.6118 14.3846 44.6054 14.3745 44.6001C11.8816 43.2992 9.32792 43.0313 6.32795 43.7558C5.95701 43.846 5.64317 44.091 5.46547 44.4289C5.28777 44.7668 5.26319 45.1649 5.40066 45.5217C6.5018 48.3984 8.17617 50.351 10.6756 51.6701C12.254 52.493 13.8908 52.9015 15.6288 52.9015C16.118 52.9015 16.6181 52.8585 17.1245 52.7937C17.7527 54.0909 18.4818 55.4004 19.3104 56.7086C18.7867 56.5839 18.2503 56.4867 17.6886 56.4365C14.8987 56.1848 12.4254 56.9183 9.93514 58.7418C9.62648 58.9675 9.43059 59.3145 9.39685 59.6951C9.36312 60.0751 9.49407 60.4519 9.75744 60.7282C11.8846 62.9649 14.1789 64.1231 16.9791 64.3733C17.3332 64.4051 17.6821 64.4206 18.0258 64.4206C20.06 64.4206 21.9316 63.8587 23.7912 62.7003C24.6478 63.6878 25.5418 64.659 26.4828 65.5979C26.7455 65.86 27.177 65.8549 27.436 65.5888L28.3614 64.638C28.6142 64.3784 28.6074 63.9668 28.3509 63.7109C24.3058 59.6739 21.0336 55.1026 19.1021 50.7804ZM79.5345 44.429C79.3568 44.0911 79.0429 43.846 78.672 43.7559C75.672 43.0316 73.1183 43.2993 70.6254 44.6002C70.6153 44.6055 70.6066 44.6118 70.5966 44.6172C70.8224 43.3799 70.9544 42.1448 71.0075 40.9147C73.5744 40.3464 75.5473 39.1694 77.1531 37.2477C78.9573 35.0895 79.7601 32.6479 79.6823 29.5642C79.6719 29.1823 79.4981 28.8237 79.2063 28.5785C78.9132 28.334 78.5292 28.2283 78.1519 28.2854C75.1026 28.7562 72.8432 29.9806 71.0391 32.1375C70.773 32.4557 70.5355 32.7827 70.3125 33.1146C69.992 31.6575 69.5653 30.2399 69.0379 28.8663C71.1962 27.3546 72.5689 25.5075 73.3154 23.1118C74.1507 20.4283 73.9548 17.8661 72.6993 15.0464C72.5449 14.6975 72.2467 14.4322 71.8822 14.3187C71.5151 14.2065 71.1209 14.2539 70.7953 14.4523C68.1597 16.0587 66.5437 18.0574 65.7071 20.742C65.5585 21.2188 65.4544 21.6912 65.3709 22.1625C64.6457 21.1753 63.855 20.2338 63 19.3393C64.1693 17.3155 64.6411 15.2103 64.4359 12.9335C64.1701 10.1164 63.0106 7.8239 60.7863 5.71444C60.51 5.45173 60.13 5.32211 59.7513 5.35518C59.3713 5.39024 59.0249 5.58667 58.7993 5.89479C56.9757 8.3922 56.2415 10.8552 56.4906 13.6463C56.6372 15.344 57.1261 16.8433 57.986 18.2292C58.0508 18.3336 58.13 18.429 58.2209 18.5113C59.0608 19.1836 59.7517 19.7965 60.3587 20.4004L60.4076 20.4477C65.6359 25.5162 68.3984 32.2042 68.3984 39.7877C68.3984 42.3991 67.9571 45.0609 67.0881 47.7005C67.0834 47.7132 67.0719 47.7236 67.0678 47.7364C66.7537 48.7154 66.3608 49.7399 65.9011 50.7804L65.8978 50.7805C63.9663 55.1026 60.694 59.674 56.6491 63.7114C56.3927 63.9673 56.3859 64.3789 56.6387 64.6386L57.5641 65.5894C57.8229 65.8554 58.2545 65.8606 58.5173 65.5984C59.4583 64.6595 60.3524 63.6883 61.2089 62.7008C63.0685 63.8592 64.9401 64.4211 66.9743 64.4211C67.318 64.4211 67.6669 64.4056 68.021 64.3739C70.8212 64.1235 73.1155 62.9654 75.2426 60.7287C75.5059 60.4524 75.637 60.0757 75.6032 59.6957C75.5695 59.315 75.3736 58.968 75.0649 58.7423C72.5747 56.9188 70.1013 56.1853 67.3115 56.437C66.7498 56.4872 66.2134 56.5844 65.6897 56.7091C66.5182 55.4009 67.2472 54.0915 67.8755 52.7942C68.3818 52.859 68.882 52.9021 69.3713 52.9021C71.1092 52.9021 72.746 52.4935 74.3245 51.6706C76.8238 50.3515 78.4983 48.3989 79.5994 45.5222C79.7367 45.1651 79.7122 44.7669 79.5345 44.429Z" fill="#20BF6B"/>
<path d="M55.7812 78.7484V79.6781H29.2188V78.7484C29.2188 76.557 31.0117 74.764 33.2031 74.764H33.3891C33.4687 74.6312 33.5484 74.4984 33.6281 74.3656H51.3719C51.4516 74.4984 51.5312 74.6312 51.6109 74.764H51.7969C53.9883 74.764 55.7812 76.557 55.7812 78.7484Z" fill="#778CA3"/>
</svg>
