<svg width="86" height="85" viewBox="0 0 86 85" fill="none" xmlns="http://www.w3.org/2000/svg">
<path d="M48.3125 61.2969V61.4828C48.3125 62.4789 48.3922 63.4086 48.525 64.5109C48.6445 65.4273 48.7906 66.5031 49.0563 67.5258C49.6539 69.9562 50.6102 72.2539 51.8719 74.3656C51.9516 74.4984 52.0313 74.6312 52.1109 74.764H52.2969C54.4883 74.764 56.2812 76.557 56.2812 78.7484V79.6781H29.7188V78.7484C29.7188 76.557 31.5117 74.764 33.7031 74.764H33.8891C33.9687 74.6312 34.0484 74.4984 34.1281 74.3656C35.5758 71.9351 36.5984 69.3187 37.1695 66.5695C37.4352 65.2945 37.5945 63.9929 37.6609 62.6781C37.6742 62.2929 37.6875 61.8945 37.6875 61.4828V61.2969C36.9703 60.8054 35.682 59.9156 34.407 59.0523C31.2063 56.8609 28.7359 53.9922 27.2484 50.7515C25.3625 46.5679 24.4062 42.132 24.4062 37.5765C24.4062 33.6054 25.1234 29.7406 26.5578 26.075L26.8898 25.225H59.1102L59.4422 26.075C60.8766 29.7405 61.5938 33.6054 61.5938 37.5765C61.5938 42.132 60.6375 46.5679 58.7516 50.7383C57.2641 53.9922 54.7937 56.8609 51.6062 59.039C50.318 59.9156 49.0296 60.7922 48.3125 61.2969Z" fill="#A0ACBC"/>
<path d="M52.2969 25.225C52.2969 26.6859 51.1016 27.8812 49.6406 27.8812H28.7094C27.6203 30.989 27.0625 34.2429 27.0625 37.5765C27.0625 41.7601 27.9391 45.8242 29.6656 49.6492C30.9539 52.4383 33.1055 54.9351 35.9078 56.8609L39.1883 59.1054C39.9055 59.5968 40.3438 60.4203 40.3438 61.2969V61.4828C40.3438 61.9078 40.3305 62.3195 40.3172 62.7312C40.2508 64.2586 40.0648 65.7062 39.7727 67.114C39.1086 70.3015 37.9 73.3562 36.1469 76.1719C35.6687 76.9422 34.8055 77.4203 33.8891 77.4203H33.7031C32.9727 77.4203 32.375 78.0179 32.375 78.7484V79.6781H29.7188V78.7484C29.7188 76.557 31.5117 74.764 33.7031 74.764H33.8891C35.4695 72.214 36.5719 69.4648 37.1695 66.5695C37.4352 65.2945 37.5945 63.9929 37.6609 62.6781C37.6742 62.2929 37.6875 61.8945 37.6875 61.4828V61.2969C36.9703 60.8054 35.682 59.9156 34.407 59.0523C31.2063 56.8609 28.7359 53.9922 27.2484 50.7515C25.3625 46.5679 24.4062 42.132 24.4062 37.5765C24.4062 33.6054 25.1234 29.7406 26.5578 26.075L26.8898 25.225H52.2969Z" fill="#D2D2D2"/>
<path d="M48.3125 61.2969V61.4828C48.3125 62.4789 48.3922 63.4086 48.525 64.5109C48.6445 65.4273 48.7906 66.5031 49.0563 67.5258C49.6938 70.1156 50.7297 72.5461 52.1109 74.764H52.2969C54.4883 74.764 56.2812 76.557 56.2812 78.7484V79.6781H53.625V78.7484C53.625 78.0179 53.0273 77.4203 52.2969 77.4203H52.1109C51.1945 77.4203 50.3445 76.9422 49.8531 76.1719C48.3258 73.7148 47.1837 71.0187 46.4797 68.1765C46.1875 67.0211 46.0148 65.839 45.8953 64.8429C45.7492 63.6343 45.6562 62.6117 45.6562 61.4828V61.2969C45.6562 60.4203 46.0812 59.5968 46.8117 59.1054C47.5289 58.6008 48.8305 57.7242 50.1055 56.8476C52.8945 54.9351 55.0461 52.4383 56.3344 49.6359C58.0609 45.8242 58.9375 41.7601 58.9375 37.5765C58.9375 33.9375 58.2734 30.3914 56.9719 27.0312C56.7328 26.4336 56.7328 25.7961 56.932 25.225H59.1102L59.4422 26.075C60.8766 29.7405 61.5938 33.6054 61.5938 37.5765C61.5938 42.132 60.6375 46.5679 58.7516 50.7383C57.2641 53.9922 54.7937 56.8609 51.6062 59.039C50.318 59.9156 49.0296 60.7922 48.3125 61.2969Z" fill="#7D848E"/>
<path d="M19.6021 50.7804L19.5988 50.7802C19.1391 49.7399 18.7463 48.7153 18.4322 47.7363C18.4281 47.7234 18.4165 47.7131 18.4119 47.7003C17.5429 45.0609 17.1015 42.3991 17.1015 39.7877C17.1015 32.2042 19.8642 25.5162 25.0923 20.4476L25.1412 20.4003C25.7483 19.7964 26.4392 19.1836 27.2791 18.5112C27.3699 18.4288 27.4489 18.3335 27.5139 18.2291C28.3739 16.8432 28.8627 15.3439 29.0094 13.6461C29.2584 10.8549 28.5243 8.39194 26.7007 5.89466C26.475 5.58667 26.1287 5.39011 25.7487 5.35504C25.3699 5.32197 24.9899 5.45173 24.7137 5.7143C22.4893 7.8239 21.3297 10.1164 21.064 12.9333C20.8588 15.2101 21.3307 17.3153 22.5 19.3391C21.6449 20.2336 20.8544 21.1751 20.129 22.1623C20.0457 21.691 19.9415 21.2187 19.7928 20.7419C18.9563 18.0571 17.3402 16.0584 14.7047 14.4522C14.3791 14.2537 13.9848 14.2063 13.6177 14.3186C13.2533 14.432 12.955 14.6973 12.8007 15.0462C11.5452 17.8659 11.3493 20.4281 12.1845 23.1117C12.9311 25.5073 14.3037 27.3545 16.462 28.8662C15.9346 30.2397 15.5079 31.6574 15.1874 33.1145C14.9644 32.7826 14.727 32.4557 14.4608 32.1374C12.6567 29.9805 10.3973 28.7561 7.34805 28.2853C6.97059 28.2281 6.58677 28.3339 6.29365 28.5784C6.00186 28.8235 5.82801 29.1821 5.81765 29.5641C5.73982 32.6477 6.54267 35.0894 8.3468 37.2476C9.9525 39.1694 11.9256 40.3462 14.4924 40.9145C14.5456 42.1448 14.6777 43.3798 14.9034 44.6171C14.8934 44.6118 14.8846 44.6054 14.8745 44.6001C12.3816 43.2992 9.82792 43.0313 6.82795 43.7558C6.45701 43.846 6.14317 44.091 5.96547 44.4289C5.78777 44.7668 5.76319 45.1649 5.90066 45.5217C7.0018 48.3984 8.67617 50.351 11.1756 51.6701C12.754 52.493 14.3908 52.9015 16.1288 52.9015C16.618 52.9015 17.1181 52.8585 17.6245 52.7937C18.2527 54.0909 18.9818 55.4004 19.8104 56.7086C19.2867 56.5839 18.7503 56.4867 18.1886 56.4365C15.3987 56.1848 12.9254 56.9183 10.4351 58.7418C10.1265 58.9675 9.93059 59.3145 9.89685 59.6951C9.86312 60.0751 9.99407 60.4519 10.2574 60.7282C12.3846 62.9649 14.6789 64.1231 17.4791 64.3733C17.8332 64.4051 18.1821 64.4206 18.5258 64.4206C20.56 64.4206 22.4316 63.8587 24.2912 62.7003C25.1478 63.6878 26.0418 64.659 26.9828 65.5979C27.2455 65.86 27.677 65.8549 27.936 65.5888L28.8614 64.638C29.1142 64.3784 29.1074 63.9668 28.8509 63.7109C24.8058 59.6739 21.5336 55.1026 19.6021 50.7804ZM80.0345 44.429C79.8568 44.0911 79.5429 43.846 79.172 43.7559C76.172 43.0316 73.6183 43.2993 71.1254 44.6002C71.1153 44.6055 71.1066 44.6118 71.0966 44.6172C71.3224 43.3799 71.4544 42.1448 71.5075 40.9147C74.0744 40.3464 76.0473 39.1694 77.6531 37.2477C79.4573 35.0895 80.2601 32.6479 80.1823 29.5642C80.1719 29.1823 79.9981 28.8237 79.7063 28.5785C79.4132 28.334 79.0292 28.2283 78.6519 28.2854C75.6026 28.7562 73.3432 29.9806 71.5391 32.1375C71.273 32.4557 71.0355 32.7827 70.8125 33.1146C70.492 31.6575 70.0653 30.2399 69.5379 28.8663C71.6962 27.3546 73.0689 25.5075 73.8154 23.1118C74.6507 20.4283 74.4548 17.8661 73.1993 15.0464C73.0449 14.6975 72.7467 14.4322 72.3822 14.3187C72.0151 14.2065 71.6209 14.2539 71.2953 14.4523C68.6597 16.0587 67.0437 18.0574 66.2071 20.742C66.0585 21.2188 65.9544 21.6912 65.8709 22.1625C65.1457 21.1753 64.355 20.2338 63.5 19.3393C64.6693 17.3155 65.1411 15.2103 64.9359 12.9335C64.6701 10.1164 63.5106 7.8239 61.2863 5.71444C61.01 5.45173 60.63 5.32211 60.2513 5.35518C59.8713 5.39024 59.5249 5.58667 59.2993 5.89479C57.4757 8.3922 56.7415 10.8552 56.9906 13.6463C57.1372 15.344 57.6261 16.8433 58.486 18.2292C58.5508 18.3336 58.63 18.429 58.7209 18.5113C59.5608 19.1836 60.2517 19.7965 60.8587 20.4004L60.9076 20.4477C66.1359 25.5162 68.8984 32.2042 68.8984 39.7877C68.8984 42.3991 68.4571 45.0609 67.5881 47.7005C67.5834 47.7132 67.5719 47.7236 67.5678 47.7364C67.2537 48.7154 66.8608 49.7399 66.4011 50.7804L66.3978 50.7805C64.4663 55.1026 61.194 59.674 57.1491 63.7114C56.8927 63.9673 56.8859 64.3789 57.1387 64.6386L58.0641 65.5894C58.3229 65.8554 58.7545 65.8606 59.0173 65.5984C59.9583 64.6595 60.8524 63.6883 61.7089 62.7008C63.5685 63.8592 65.4401 64.4211 67.4743 64.4211C67.818 64.4211 68.1669 64.4056 68.521 64.3739C71.3212 64.1235 73.6155 62.9654 75.7426 60.7287C76.0059 60.4524 76.137 60.0757 76.1032 59.6957C76.0695 59.315 75.8736 58.968 75.5649 58.7423C73.0747 56.9188 70.6013 56.1853 67.8115 56.437C67.2498 56.4872 66.7134 56.5844 66.1897 56.7091C67.0182 55.4009 67.7472 54.0915 68.3755 52.7942C68.8818 52.859 69.382 52.9021 69.8713 52.9021C71.6092 52.9021 73.246 52.4935 74.8245 51.6706C77.3238 50.3515 78.9983 48.3989 80.0994 45.5222C80.2367 45.1651 80.2122 44.7669 80.0345 44.429Z" fill="#20BF6B"/>
<path d="M56.2812 78.7484V79.6781H29.7188V78.7484C29.7188 76.557 31.5117 74.764 33.7031 74.764H33.8891C33.9687 74.6312 34.0484 74.4984 34.1281 74.3656H51.8719C51.9516 74.4984 52.0312 74.6312 52.1109 74.764H52.2969C54.4883 74.764 56.2812 76.557 56.2812 78.7484Z" fill="#778CA3"/>
</svg>
