<svg width="18" height="18" viewBox="0 0 18 18" fill="none" xmlns="http://www.w3.org/2000/svg">
<path d="M12.7498 6.87752C12.6093 6.73783 12.4192 6.65942 12.221 6.65942C12.0229 6.65942 11.8328 6.73783 11.6923 6.87752L8.99978 9.53252L6.34478 6.87752C6.20426 6.73783 6.01417 6.65942 5.81603 6.65942C5.61789 6.65942 5.4278 6.73783 5.28728 6.87752C5.21698 6.94724 5.16119 7.03019 5.12311 7.12159C5.08503 7.21298 5.06543 7.31101 5.06543 7.41002C5.06543 7.50903 5.08503 7.60706 5.12311 7.69845C5.16119 7.78985 5.21698 7.8728 5.28728 7.94252L8.46728 11.1225C8.537 11.1928 8.61995 11.2486 8.71135 11.2867C8.80274 11.3248 8.90077 11.3444 8.99978 11.3444C9.09879 11.3444 9.19682 11.3248 9.28821 11.2867C9.37961 11.2486 9.46256 11.1928 9.53228 11.1225L12.7498 7.94252C12.8201 7.8728 12.8759 7.78985 12.9139 7.69845C12.952 7.60706 12.9716 7.50903 12.9716 7.41002C12.9716 7.31101 12.952 7.21298 12.9139 7.12159C12.8759 7.03019 12.8201 6.94724 12.7498 6.87752Z" fill="white"/>
</svg>
