<svg width="18" height="18" viewBox="0 0 18 18" fill="none" xmlns="http://www.w3.org/2000/svg">
<path d="M5.25022 11.1225C5.39074 11.2622 5.58083 11.3406 5.77897 11.3406C5.97711 11.3406 6.1672 11.2622 6.30772 11.1225L9.00022 8.46748L11.6552 11.1225C11.7957 11.2622 11.9858 11.3406 12.184 11.3406C12.3821 11.3406 12.5722 11.2622 12.7127 11.1225C12.783 11.0528 12.8388 10.9698 12.8769 10.8784C12.915 10.787 12.9346 10.689 12.9346 10.59C12.9346 10.491 12.915 10.3929 12.8769 10.3015C12.8388 10.2102 12.783 10.1272 12.7127 10.0575L9.53272 6.87748C9.463 6.80719 9.38005 6.75139 9.28865 6.71331C9.19726 6.67524 9.09923 6.65563 9.00022 6.65563C8.90121 6.65563 8.80318 6.67524 8.71179 6.71331C8.62039 6.75139 8.53744 6.80719 8.46772 6.87748L5.25022 10.0575C5.17993 10.1272 5.12413 10.2102 5.08605 10.3015C5.04798 10.3929 5.02837 10.491 5.02837 10.59C5.02837 10.689 5.04798 10.787 5.08605 10.8784C5.12413 10.9698 5.17993 11.0528 5.25022 11.1225Z" fill="white"/>
</svg>
