<svg width="17" height="14" viewBox="0 0 17 14" fill="none" xmlns="http://www.w3.org/2000/svg">
<path d="M14.3337 0.333252H2.66699C2.00395 0.333252 1.36807 0.596644 0.899225 1.06549C0.430384 1.53433 0.166992 2.17021 0.166992 2.83325V11.1666C0.166992 11.8296 0.430384 12.4655 0.899225 12.9344C1.36807 13.4032 2.00395 13.6666 2.66699 13.6666H14.3337C14.9967 13.6666 15.6326 13.4032 16.1014 12.9344C16.5703 12.4655 16.8337 11.8296 16.8337 11.1666V2.83325C16.8337 2.17021 16.5703 1.53433 16.1014 1.06549C15.6326 0.596644 14.9967 0.333252 14.3337 0.333252V0.333252ZM13.992 1.99992L9.09199 6.89992C9.01452 6.97803 8.92236 7.04002 8.82081 7.08233C8.71926 7.12463 8.61034 7.14642 8.50033 7.14642C8.39032 7.14642 8.28139 7.12463 8.17984 7.08233C8.0783 7.04002 7.98613 6.97803 7.90866 6.89992L3.00866 1.99992H13.992ZM15.167 11.1666C15.167 11.3876 15.0792 11.5996 14.9229 11.7558C14.7666 11.9121 14.5547 11.9999 14.3337 11.9999H2.66699C2.44598 11.9999 2.23402 11.9121 2.07774 11.7558C1.92146 11.5996 1.83366 11.3876 1.83366 11.1666V3.17492L6.73366 8.07492C7.20241 8.54309 7.83782 8.80605 8.50033 8.80605C9.16283 8.80605 9.79824 8.54309 10.267 8.07492L15.167 3.17492V11.1666Z" fill="#EE7203"/>
</svg>
