<svg width="21" height="20" viewBox="0 0 21 20" fill="none" xmlns="http://www.w3.org/2000/svg">
<path d="M18.8332 10.5555C18.7601 10.556 18.6876 10.5419 18.6199 10.5143C18.5522 10.4867 18.4907 10.4459 18.4387 10.3944L10.4999 2.44998L2.56096 10.3944C2.45469 10.4854 2.31798 10.533 2.17816 10.5276C2.03834 10.5222 1.9057 10.4642 1.80676 10.3653C1.70782 10.2664 1.64986 10.1337 1.64446 9.9939C1.63906 9.85408 1.68662 9.71737 1.77763 9.6111L10.111 1.27776C10.2151 1.17429 10.3559 1.11621 10.5026 1.11621C10.6494 1.11621 10.7902 1.17429 10.8943 1.27776L19.2276 9.6111C19.3041 9.68909 19.3558 9.78788 19.3765 9.89513C19.3971 10.0024 19.3856 10.1133 19.3435 10.2141C19.3014 10.3149 19.2306 10.401 19.1398 10.4617C19.049 10.5225 18.9424 10.5551 18.8332 10.5555V10.5555Z" fill="#EE7203"/>
<path d="M10.5002 4.32764L3.8335 11.0165V17.7776C3.8335 18.0723 3.95056 18.3549 4.15893 18.5633C4.36731 18.7717 4.64992 18.8887 4.94461 18.8887H8.8335V13.3332H12.1668V18.8887H16.0557C16.3504 18.8887 16.633 18.7717 16.8414 18.5633C17.0498 18.3549 17.1668 18.0723 17.1668 17.7776V10.9776L10.5002 4.32764Z" fill="#EE7203"/>
</svg>
