<svg width="21" height="20" viewBox="0 0 21 20" fill="none" xmlns="http://www.w3.org/2000/svg">
<path d="M13.5914 10.5917C14.4084 9.94891 15.0047 9.06746 15.2975 8.06997C15.5902 7.07249 15.5647 6.00858 15.2246 5.02625C14.8845 4.04391 14.2466 3.19202 13.3998 2.58907C12.553 1.98612 11.5393 1.66211 10.4998 1.66211C9.46021 1.66211 8.44652 1.98612 7.59969 2.58907C6.75287 3.19202 6.11504 4.04391 5.77493 5.02625C5.43482 6.00858 5.40935 7.07249 5.70205 8.06997C5.99476 9.06746 6.59109 9.94891 7.40809 10.5917C6.00815 11.1526 4.78666 12.0828 3.87383 13.2833C2.961 14.4838 2.39106 15.9094 2.22475 17.4084C2.21272 17.5178 2.22235 17.6285 2.25311 17.7342C2.28387 17.8399 2.33514 17.9386 2.40401 18.0245C2.5431 18.1979 2.74541 18.309 2.96642 18.3334C3.18743 18.3577 3.40905 18.2932 3.58252 18.1541C3.756 18.015 3.86711 17.8127 3.89142 17.5917C4.07441 15.9627 4.85116 14.4582 6.07327 13.3657C7.29538 12.2732 8.87717 11.6692 10.5164 11.6692C12.1557 11.6692 13.7375 12.2732 14.9596 13.3657C16.1817 14.4582 16.9584 15.9627 17.1414 17.5917C17.1641 17.7965 17.2618 17.9856 17.4157 18.1225C17.5696 18.2595 17.7687 18.3346 17.9748 18.3334H18.0664C18.2849 18.3082 18.4845 18.1978 18.6219 18.0261C18.7593 17.8544 18.8232 17.6353 18.7998 17.4167C18.6327 15.9135 18.0596 14.4842 17.1421 13.2819C16.2246 12.0795 14.9972 11.1496 13.5914 10.5917ZM10.4998 10C9.84048 10 9.19602 9.80453 8.64785 9.43825C8.09969 9.07198 7.67245 8.55139 7.42015 7.9423C7.16786 7.33321 7.10185 6.66299 7.23047 6.01639C7.35909 5.36979 7.67656 4.77584 8.14273 4.30967C8.60891 3.84349 9.20285 3.52602 9.84945 3.39741C10.4961 3.26879 11.1663 3.3348 11.7754 3.58709C12.3845 3.83938 12.905 4.26662 13.2713 4.81479C13.6376 5.36295 13.8331 6.00742 13.8331 6.66669C13.8331 7.55074 13.4819 8.39859 12.8568 9.02371C12.2317 9.64883 11.3838 10 10.4998 10Z" fill="white"/>
</svg>
