<svg width="17" height="18" viewBox="0 0 17 18" fill="none" xmlns="http://www.w3.org/2000/svg">
<path d="M8.49154 0.666748C3.89154 0.666748 0.158203 4.40008 0.158203 9.00008C0.158203 13.6001 3.89154 17.3334 8.49154 17.3334C13.0915 17.3334 16.8249 13.6001 16.8249 9.00008C16.8249 4.40008 13.0915 0.666748 8.49154 0.666748ZM11.4999 5.95008C12.3915 5.95008 13.1082 6.66675 13.1082 7.55842C13.1082 8.45008 12.3915 9.16675 11.4999 9.16675C10.6082 9.16675 9.89154 8.45008 9.89154 7.55842C9.8832 6.66675 10.6082 5.95008 11.4999 5.95008ZM6.49987 4.63341C7.5832 4.63341 8.46654 5.51675 8.46654 6.60008C8.46654 7.68341 7.5832 8.56675 6.49987 8.56675C5.41654 8.56675 4.5332 7.68341 4.5332 6.60008C4.5332 5.50841 5.4082 4.63341 6.49987 4.63341ZM6.49987 12.2417V15.3667C4.49987 14.7417 2.91654 13.2001 2.21654 11.2334C3.09154 10.3001 5.27487 9.82508 6.49987 9.82508C6.94154 9.82508 7.49987 9.89175 8.0832 10.0084C6.71654 10.7334 6.49987 11.6917 6.49987 12.2417ZM8.49154 15.6667C8.26654 15.6667 8.04987 15.6584 7.8332 15.6334V12.2417C7.8332 11.0584 10.2832 10.4667 11.4999 10.4667C12.3915 10.4667 13.9332 10.7917 14.6999 11.4251C13.7249 13.9001 11.3165 15.6667 8.49154 15.6667Z" fill="#EE7203"/>
</svg>
