<svg width="22" height="22" viewBox="0 0 22 22" fill="none" xmlns="http://www.w3.org/2000/svg">
<path d="M16.0229 6.00417L13.4195 3.40084C13.3343 3.31492 13.2329 3.24673 13.1212 3.20019C13.0095 3.15365 12.8897 3.12969 12.7687 3.12969C12.6477 3.12969 12.5279 3.15365 12.4162 3.20019C12.3045 3.24673 12.2031 3.31492 12.1179 3.40084C11.9471 3.57259 11.8513 3.80492 11.8513 4.04709C11.8513 4.28926 11.9471 4.52159 12.1179 4.69334L14.0612 6.63667L6.63619 14.0617L4.69285 12.1183C4.5211 11.9476 4.28877 11.8518 4.0466 11.8518C3.80443 11.8518 3.5721 11.9476 3.40035 12.1183C3.31443 12.2036 3.24624 12.3049 3.1997 12.4166C3.15316 12.5283 3.1292 12.6482 3.1292 12.7692C3.1292 12.8902 3.15316 13.01 3.1997 13.1217C3.24624 13.2334 3.31443 13.3348 3.40035 13.42L5.97619 15.9958L8.55202 18.5717C8.63692 18.6583 8.73816 18.7272 8.84988 18.7744C8.9616 18.8216 9.08157 18.8462 9.20285 18.8467C9.38492 18.8477 9.56319 18.7945 9.71491 18.6939C9.86664 18.5932 9.98496 18.4497 10.0548 18.2815C10.1246 18.1134 10.1428 17.9282 10.1069 17.7497C10.0711 17.5712 9.98296 17.4074 9.85369 17.2792L7.93785 15.3633L15.3629 7.93834L17.3062 9.88167C17.3917 9.96654 17.493 10.0337 17.6044 10.0794C17.7159 10.1251 17.8352 10.1484 17.9557 10.148C18.0761 10.1476 18.1953 10.1234 18.3064 10.077C18.4175 10.0305 18.5184 9.96256 18.6033 9.87709C18.6881 9.79162 18.7553 9.69027 18.801 9.57883C18.8467 9.46739 18.87 9.34804 18.8696 9.2276C18.8692 9.10715 18.845 8.98797 18.7986 8.87686C18.7521 8.76574 18.6842 8.66487 18.5987 8.58001L16.0229 6.00417ZM3.40035 16.005C3.22774 15.8324 2.99363 15.7354 2.74952 15.7354C2.50541 15.7354 2.2713 15.8324 2.09869 16.005C1.92607 16.1776 1.8291 16.4117 1.8291 16.6558C1.8291 16.8999 1.92607 17.1341 2.09869 17.3067L4.69285 19.9008C4.77851 19.9858 4.88009 20.053 4.99177 20.0986C5.10346 20.1442 5.22305 20.1674 5.34369 20.1667C5.46433 20.1674 5.58392 20.1442 5.6956 20.0986C5.80728 20.053 5.90887 19.9858 5.99452 19.9008C6.08044 19.8156 6.14863 19.7142 6.19517 19.6025C6.24171 19.4908 6.26567 19.371 6.26567 19.25C6.26567 19.129 6.24171 19.0092 6.19517 18.8975C6.14863 18.7858 6.08044 18.6844 5.99452 18.5992L3.40035 16.005ZM19.9004 4.69334L17.3062 2.09917C17.2207 2.01371 17.1193 1.94591 17.0076 1.89965C16.8959 1.8534 16.7762 1.82959 16.6554 1.82959C16.5345 1.82959 16.4148 1.8534 16.3031 1.89965C16.1915 1.94591 16.09 2.01371 16.0045 2.09917C15.919 2.18464 15.8513 2.28611 15.805 2.39778C15.7587 2.50945 15.7349 2.62914 15.7349 2.75001C15.7349 2.87088 15.7587 2.99057 15.805 3.10224C15.8513 3.21391 15.919 3.31537 16.0045 3.40084L18.5987 5.99501C18.6839 6.08092 18.7853 6.14912 18.897 6.19566C19.0087 6.2422 19.1285 6.26616 19.2495 6.26616C19.3705 6.26616 19.4903 6.2422 19.602 6.19566C19.7138 6.14912 19.8151 6.08092 19.9004 5.99501C19.9863 5.90979 20.0545 5.80841 20.101 5.6967C20.1475 5.585 20.1715 5.46518 20.1715 5.34417C20.1715 5.22316 20.1475 5.10335 20.101 4.99165C20.0545 4.87994 19.9863 4.77856 19.9004 4.69334Z" fill="#1A171B"/>
</svg>
