<svg width="178" height="178" viewBox="0 0 178 178" fill="none" xmlns="http://www.w3.org/2000/svg">
<path d="M178 89C178 138.153 138.153 178 89 178C39.8467 178 0 138.153 0 89C0 39.8467 39.8467 0 89 0C138.153 0 178 39.8467 178 89ZM4.45 89C4.45 135.696 42.3043 173.55 89 173.55C135.696 173.55 173.55 135.696 173.55 89C173.55 42.3043 135.696 4.45 89 4.45C42.3043 4.45 4.45 42.3043 4.45 89Z" fill="#EE7203"/>
<path d="M101.056 82.4314L80.5083 70.4015C79.3964 69.746 78.1344 69.4027 76.8505 69.4063C75.5665 69.4099 74.3064 69.7603 73.1981 70.422C72.0897 71.0836 71.1727 72.0329 70.5401 73.1735C69.9074 74.3141 69.5818 75.6052 69.5962 76.9159V101.062C69.5962 103.032 70.3626 104.921 71.7269 106.314C73.0912 107.706 74.9415 108.489 76.8709 108.489C78.1481 108.487 79.4024 108.142 80.5083 107.49L101.056 95.4601C102.16 94.8078 103.077 93.8706 103.714 92.7424C104.352 91.6143 104.687 90.3349 104.687 89.0326C104.687 87.7303 104.352 86.4509 103.714 85.3228C103.077 84.1947 102.16 83.2574 101.056 82.6051V82.4314ZM98.9291 91.5298L78.3812 103.733C77.9206 104 77.4003 104.14 76.8709 104.14C76.3415 104.14 75.8212 104 75.3607 103.733C74.9014 103.463 74.52 103.073 74.2549 102.605C73.9898 102.136 73.8503 101.604 73.8504 101.062V76.829C73.8503 76.2876 73.9898 75.7558 74.2549 75.287C74.52 74.8181 74.9014 74.4288 75.3607 74.1581C75.8231 73.8957 76.3419 73.754 76.8709 73.7455C77.3996 73.7566 77.9177 73.8982 78.3812 74.1581L98.9291 86.2748C99.3885 86.5454 99.7701 86.9347 100.035 87.4035C100.301 87.8724 100.44 88.4043 100.44 88.9457C100.44 89.4872 100.301 90.0191 100.035 90.4879C99.7701 90.9568 99.3885 91.3461 98.9291 91.6166V91.5298Z" fill="#EE7203"/>
</svg>
