<svg width="115" height="115" viewBox="0 0 115 115" fill="none" xmlns="http://www.w3.org/2000/svg">
<g clip-path="url(#clip0_959_3949)">
<path d="M63.71 0.330742C56.8387 -1.38707 50.4562 3.80949 49.9962 10.537C49.4787 18.0911 48.3431 25.027 46.92 29.1526C46.0216 31.7401 43.4772 36.4336 39.445 40.9329C35.4416 45.4107 30.2306 49.3998 24.1284 51.0673C19.2984 52.3826 14.375 56.5657 14.375 62.6751V91.4323C14.375 97.5057 19.2769 101.955 24.7825 102.537C32.4731 103.356 36.0237 105.52 39.6462 107.734L39.9912 107.949C41.9462 109.135 44.1456 110.45 46.9631 111.428C49.8166 112.405 53.1516 112.988 57.5 112.988H82.6562C89.3909 112.988 94.1491 109.559 96.5569 105.34C97.7206 103.349 98.3495 101.091 98.3825 98.7851C98.3825 97.6926 98.2172 96.5426 97.8291 95.4501C99.2737 93.5598 100.56 91.2957 101.337 88.9742C102.127 86.6023 102.573 83.4973 101.365 80.7157C101.861 79.7814 102.228 78.7823 102.508 77.8192C103.062 75.8785 103.32 73.7367 103.32 71.6595C103.32 69.5895 103.062 67.4548 102.508 65.507C102.257 64.6115 101.925 63.7407 101.516 62.9051C102.775 61.1145 103.585 59.0477 103.877 56.8787C104.17 54.7097 103.937 52.5021 103.198 50.442C101.717 46.187 98.2962 42.5357 94.5731 41.2995C88.4853 39.2726 81.6141 39.3157 76.4894 39.7829C75.4254 39.8787 74.3638 39.9985 73.3053 40.1423C75.7987 29.4645 75.6457 18.3391 72.8597 7.73387C72.375 6.03466 71.4451 4.49579 70.1664 3.27639C68.8876 2.05699 67.3063 1.20134 65.5859 0.797929L63.71 0.330742ZM82.6562 105.807H57.5C53.8344 105.807 51.2972 105.311 49.3062 104.629C47.2866 103.931 45.6694 102.99 43.7287 101.804L43.4412 101.631C39.4522 99.1948 34.8306 96.3773 25.5444 95.3926C23.1509 95.1339 21.5625 93.3082 21.5625 91.4395V62.6751C21.5625 60.8495 23.1869 58.7723 26.0187 58.0032C33.8891 55.847 40.2284 50.8445 44.8069 45.727C49.3709 40.6239 52.4544 35.1254 53.705 31.5101C55.4516 26.4789 56.6303 18.8026 57.1694 11.0257C57.3491 8.42387 59.7569 6.75637 61.9634 7.30262L63.8466 7.77699C64.9966 8.06449 65.7009 8.8048 65.9166 9.6098C68.8518 20.7937 68.4899 32.5879 64.8744 43.5707C64.6697 44.1816 64.633 44.8362 64.7681 45.4661C64.9033 46.096 65.2052 46.678 65.6424 47.1511C66.0795 47.6243 66.6359 47.9713 67.2531 48.1557C67.8704 48.3401 68.5258 48.3553 69.1509 48.1995L69.1725 48.1923L69.2731 48.1707L69.69 48.0701C72.1478 47.5482 74.6342 47.1714 77.1362 46.9417C81.9016 46.5104 87.6084 46.5536 92.3019 48.1204C93.5597 48.5373 95.5362 50.2767 96.3987 52.7923C97.1678 55.0061 97.0241 57.6079 94.4869 60.1379L91.9497 62.6751L94.4869 65.2195C94.7959 65.5286 95.2416 66.2329 95.5937 67.4835C95.9387 68.6839 96.1328 70.1429 96.1328 71.6595C96.1328 73.1832 95.9387 74.6351 95.5937 75.8426C95.2344 77.0932 94.7959 77.7976 94.4869 78.1067L91.9497 80.6439L94.4869 83.1882C94.8247 83.526 95.2703 84.4604 94.5228 86.6957C93.7439 88.8634 92.5057 90.8371 90.8931 92.4817L88.3559 95.0189L90.8931 97.5632C90.9362 97.5992 91.1878 97.9226 91.1878 98.7851C91.1559 99.8394 90.8567 100.868 90.3181 101.775C89.1322 103.845 86.7028 105.8 82.6562 105.8V105.807Z" fill="black"/>
</g>
<defs>
<clipPath id="clip0_959_3949">
<rect width="115" height="115" fill="white"/>
</clipPath>
</defs>
</svg>
