<?xml version="1.0" standalone="no"?>
<!DOCTYPE svg PUBLIC "-//W3C//DTD SVG 20010904//EN"
 "http://www.w3.org/TR/2001/REC-SVG-20010904/DTD/svg10.dtd">
<svg version="1.0" xmlns="http://www.w3.org/2000/svg"
 width="135.000000pt" height="500.000000pt" viewBox="0 0 135.000000 420.000000"
 preserveAspectRatio="xMidYMid meet">
 <g transform="translate(-136.000000,505.000000) scale(0.100000,-0.100000)">
<g 
fill="#E37830" stroke="none">
<path d="M1245 4981 c-159 -156 -151 -146 -130 -177 9 -14 40 -52 69 -83 28
-32 62 -71 75 -87 14 -16 56 -65 94 -109 38 -44 91 -105 117 -135 26 -30 66
-77 88 -105 22 -27 54 -66 71 -85 17 -19 37 -42 44 -50 24 -28 171 -212 212
-264 22 -29 79 -97 126 -152 47 -54 94 -111 103 -126 10 -16 34 -45 53 -65 19
-21 47 -54 61 -73 30 -40 199 -246 222 -271 8 -8 40 -46 70 -84 62 -77 154
-189 232 -284 152 -183 198 -246 198 -266 0 -12 -9 -33 -21 -46 -12 -13 -64
-77 -116 -141 -52 -65 -99 -118 -104 -118 -5 0 -9 -6 -9 -14 0 -7 -9 -25 -21
-40 -33 -41 -67 -35 -109 21 -19 26 -42 54 -50 63 -8 8 -26 31 -40 50 -24 34
-38 52 -91 114 -45 52 -223 271 -249 305 -14 18 -54 68 -90 110 -36 43 -79 95
-95 116 l-31 38 -75 -89 c-41 -49 -96 -117 -123 -151 l-49 -63 39 -46 c22 -25
45 -56 53 -67 8 -12 31 -40 51 -62 20 -22 52 -60 71 -85 19 -25 68 -86 109
-135 41 -50 86 -105 100 -124 34 -44 166 -204 305 -367 64 -75 175 -213 209
-260 14 -19 15 -18 40 5 14 14 26 30 26 36 0 6 10 21 23 32 22 21 66 72 115
136 32 41 101 124 122 147 8 9 48 57 87 106 153 187 286 350 314 384 16 19 51
62 77 95 26 32 54 66 62 75 8 9 40 47 70 85 30 37 84 103 120 145 121 143 145
174 197 254 46 71 115 201 149 281 7 17 20 66 29 110 23 103 23 382 0 465 -8
30 -15 64 -15 76 0 23 -58 162 -98 233 -74 136 -164 241 -284 332 -42 33 -80
59 -83 59 -4 0 -19 9 -34 19 -47 34 -203 96 -281 113 -225 48 -345 49 -532 2
-32 -8 -68 -14 -81 -14 -13 0 -27 -4 -32 -9 -6 -5 -47 -25 -92 -44 -48 -20
-121 -64 -175 -105 -94 -72 -225 -199 -247 -239 -8 -17 -21 -23 -45 -23 -26 0
-39 8 -65 41 -36 44 -44 53 -136 154 -35 39 -74 84 -86 100 -13 17 -35 42 -49
56 -14 14 -43 48 -65 74 -22 27 -55 65 -73 84 -62 66 -88 96 -151 169 -35 39
-66 72 -70 72 -3 0 -51 -45 -106 -99z m1935 -585 c25 -10 57 -24 72 -32 14 -8
31 -14 37 -14 21 0 157 -100 201 -148 60 -66 116 -148 134 -198 8 -23 19 -50
24 -60 41 -76 55 -283 27 -385 -22 -76 -75 -197 -107 -245 -16 -23 -28 -45
-28 -48 0 -4 -12 -19 -26 -34 -14 -15 -37 -44 -50 -64 -13 -21 -28 -38 -32
-38 -4 0 -15 -12 -24 -27 -9 -16 -42 -55 -73 -88 -31 -33 -62 -72 -70 -87 -31
-57 -69 -46 -132 38 -20 27 -50 65 -67 85 -17 19 -44 52 -61 73 -16 20 -50 61
-75 90 -56 65 -97 115 -152 186 -44 57 -69 87 -125 151 -18 20 -33 42 -33 48
0 6 -4 11 -9 11 -6 0 -40 39 -77 88 -38 48 -82 103 -98 123 -73 85 -112 132
-119 145 -14 25 3 72 41 117 96 111 269 267 297 267 5 0 29 10 54 22 76 37
145 48 291 44 99 -2 147 -7 180 -20z"/>
</g>
<g 
fill="#CE3D32" stroke="none">
<path d="M510 4634 c-132 -87 -231 -183 -310 -299 -74 -109 -107 -181 -155
-334 -38 -122 -49 -327 -27 -471 15 -93 68 -262 99 -312 13 -21 23 -40 23 -44
0 -15 96 -148 182 -252 51 -62 125 -151 163 -199 39 -47 84 -102 100 -122 17
-20 55 -67 85 -106 30 -38 58 -72 61 -75 4 -3 38 -44 75 -91 78 -98 335 -411
344 -419 10 -10 97 -115 148 -180 28 -36 62 -76 75 -90 13 -14 48 -56 78 -95
57 -74 65 -84 125 -156 37 -44 67 -81 269 -329 47 -58 93 -115 104 -127 10
-12 33 -40 50 -62 18 -23 37 -41 41 -41 5 0 26 26 46 57 20 32 57 88 80 125
24 36 44 69 44 74 0 4 11 22 25 40 14 18 25 43 25 56 0 14 -29 57 -73 110 -39
48 -85 104 -102 125 -16 21 -49 58 -71 83 -23 25 -74 86 -114 135 -77 96 -107
133 -210 255 -36 42 -87 105 -115 140 -27 34 -57 70 -65 79 -9 9 -41 48 -72
86 -119 148 -204 253 -257 317 -31 37 -86 104 -123 150 -37 46 -116 142 -175
215 -59 72 -130 159 -158 193 -27 35 -82 101 -122 147 -77 90 -154 231 -175
318 -17 73 -15 278 3 345 23 82 70 180 92 192 23 12 18 17 181 -182 65 -80
158 -194 208 -255 49 -60 124 -152 166 -204 42 -52 100 -122 129 -155 29 -34
74 -89 100 -123 26 -34 53 -62 60 -63 6 0 31 23 55 52 23 29 54 64 67 78 13
14 50 58 83 98 l59 72 -23 33 c-12 17 -59 75 -103 128 -44 53 -112 136 -152
185 -152 188 -366 451 -410 504 -95 116 -208 254 -242 295 -68 85 -114 135
-125 135 -6 0 -36 -16 -66 -36z"/></g>
</g>
</svg>