<?xml version="1.0" standalone="no"?>
<!DOCTYPE svg PUBLIC "-//W3C//DTD SVG 20010904//EN"
 "http://www.w3.org/TR/2001/REC-SVG-20010904/DTD/svg10.dtd">
<svg version="1.0" xmlns="http://www.w3.org/2000/svg"
 width="900.000000pt" height="264.000000pt" viewBox="0 0 900.000000 264.000000"
 preserveAspectRatio="xMidYMid meet">
<g transform="translate(0.000000,264.000000) scale(0.100000,-0.100000)"
fill="#000000" stroke="none">
<path fill="#CE3D32"   d="M7714 2562 c-23 -15 -34 -53 -34 -114 0 -35 -7 -108 -15 -162 -8 -55
-15 -124 -15 -155 0 -31 -5 -83 -10 -116 -12 -69 -34 -264 -55 -475 -16 -167
-40 -387 -54 -510 -5 -47 -15 -132 -21 -190 -6 -58 -16 -148 -21 -200 -6 -52
-13 -117 -16 -145 -6 -76 -12 -95 -28 -95 -8 0 -17 10 -19 23 -3 12 -7 33 -10
47 -3 14 -9 45 -15 70 -20 89 -54 267 -67 345 -7 44 -20 116 -28 160 -9 44
-22 118 -30 164 -24 132 -2 123 -277 121 -134 0 -247 4 -262 9 -24 9 -26 16
-29 73 l-3 63 -46 3 -47 3 -4 -65 c-4 -72 -8 -79 -41 -81 -18 -1 -23 -8 -25
-38 -3 -33 -1 -37 20 -37 45 0 48 -13 48 -202 0 -254 12 -277 153 -285 91 -6
106 2 89 48 -7 17 -18 21 -57 24 -83 5 -86 15 -83 229 l3 181 229 3 c150 1
233 -1 241 -8 7 -6 15 -27 18 -48 10 -74 36 -217 41 -232 3 -8 10 -44 15 -80
6 -36 17 -96 25 -135 8 -38 22 -106 30 -150 8 -44 22 -118 31 -165 9 -47 22
-123 30 -170 18 -103 34 -182 46 -232 9 -33 14 -38 39 -38 20 0 31 6 35 19 6
20 28 223 45 411 5 58 14 141 20 185 22 163 63 534 71 645 4 63 13 140 18 170
6 30 13 101 16 156 3 56 10 117 15 135 6 19 10 56 10 84 0 44 23 242 36 303 2
12 11 22 18 22 16 0 31 -53 51 -180 18 -118 57 -332 77 -425 6 -27 15 -77 19
-110 7 -54 63 -375 90 -515 6 -30 13 -68 16 -85 3 -16 12 -38 20 -47 24 -27
46 -7 87 79 38 80 57 120 144 306 l51 107 351 0 350 0 0 35 0 35 -375 0 -376
0 -36 -77 c-19 -43 -52 -114 -73 -158 -20 -44 -40 -90 -44 -102 -4 -13 -13
-23 -20 -23 -29 0 -39 31 -71 220 -9 52 -20 111 -25 130 -4 19 -11 60 -15 90
-3 30 -10 73 -15 95 -10 42 -40 208 -66 365 -8 52 -20 117 -26 144 -6 26 -14
74 -18 105 -8 55 -50 284 -71 388 -6 29 -17 54 -25 57 -19 7 -17 7 -30 -2z"/>
<path  d="M55 1548 c-13 -8 -15 -58 -15 -393 0 -423 -3 -403 61 -399 58 3 57
-4 60 214 l4 201 42 40 c39 36 46 39 102 39 53 0 65 -4 95 -31 20 -17 40 -47
46 -67 5 -20 10 -114 10 -209 0 -157 2 -173 18 -182 25 -13 92 -6 104 11 5 7
7 101 5 208 -4 217 -9 239 -73 310 -66 72 -188 89 -291 39 -26 -13 -48 -18
-53 -13 -5 5 -11 59 -12 119 l-3 110 -42 6 c-23 3 -49 1 -58 -3z"/>
<path  d="M3359 1552 c-8 -3 -17 -10 -21 -16 -4 -6 -8 -178 -8 -382 0 -406 -2
-393 58 -400 15 -2 37 3 49 11 21 14 22 22 25 207 2 162 6 197 20 217 30 42
69 61 128 61 47 0 61 -5 91 -30 50 -40 59 -85 59 -283 0 -124 3 -167 13 -176
13 -10 79 -7 98 5 5 3 9 92 9 198 0 226 -9 266 -75 332 -56 56 -127 74 -218
55 -34 -7 -69 -19 -78 -27 -8 -8 -23 -14 -32 -14 -15 0 -17 14 -17 114 0 63
-4 118 -10 121 -13 8 -73 12 -91 7z"/>
<path  d="M2450 1160 c0 -362 1 -391 17 -397 31 -12 84 -8 94 8 5 8 8 174 6
394 l-2 380 -57 3 -58 3 0 -391z"/>
<path fill="#CE3D32"  d="M4152 1158 l3 -383 45 0 c42 0 45 2 48 28 4 34 30 36 69 3 44 -37
138 -53 215 -37 73 15 117 46 156 110 81 131 61 307 -46 401 -25 22 -63 45
-86 51 -80 22 -217 -2 -246 -43 -3 -4 -17 -9 -30 -10 l-25 -3 -5 130 -5 130
-48 3 -47 3 2 -383z m410 62 c96 -83 104 -227 18 -318 -74 -78 -189 -84 -263
-14 -47 45 -67 94 -67 167 0 54 5 73 28 110 46 74 83 95 166 95 68 0 73 -2
118 -40z"/>
<path  d="M2862 1488 c-7 -7 -12 -35 -12 -62 0 -60 -6 -71 -43 -80 -26 -6 -28
-10 -25 -49 3 -36 6 -42 28 -46 14 -1 28 -8 32 -15 4 -6 8 -89 8 -184 0 -250
15 -279 152 -291 45 -4 89 -6 96 -3 18 6 25 44 13 74 -9 24 -16 27 -63 30 -44
3 -54 7 -65 28 -16 31 -18 312 -3 341 9 15 22 19 70 19 57 0 59 1 65 29 11 52
-8 71 -70 71 -64 0 -75 13 -75 88 0 36 -4 52 -16 56 -26 10 -79 7 -92 -6z"/>
<path  d="M1005 1347 c-196 -51 -270 -313 -140 -494 35 -49 69 -71 145 -95 71
-23 114 -22 184 2 73 25 111 52 142 102 34 54 27 68 -35 68 -43 0 -55 -5 -88
-35 -68 -62 -170 -60 -234 4 -37 36 -58 85 -44 99 3 4 104 9 223 12 l216 5 7
26 c11 42 -10 139 -39 188 -39 63 -90 101 -159 117 -67 16 -121 16 -178 1z
m200 -131 c35 -27 50 -59 43 -93 -3 -16 -17 -18 -143 -21 -174 -3 -188 3 -157
65 47 91 170 115 257 49z"/>
<path  d="M1769 1346 c-78 -21 -134 -70 -171 -151 -19 -41 -23 -67 -22 -145 0
-83 4 -102 27 -147 15 -28 43 -67 62 -86 38 -37 133 -77 182 -77 39 0 136 34
173 60 29 20 30 20 36 3 3 -10 9 -24 12 -32 9 -17 89 -21 102 -5 7 7 9 119 8
295 l-3 284 -55 0 c-47 0 -55 -3 -58 -20 -7 -45 -11 -47 -46 -20 -66 51 -157
66 -247 41z m206 -128 c79 -54 106 -159 65 -250 -38 -85 -77 -112 -164 -112
-53 0 -68 4 -100 29 -55 41 -76 90 -76 173 0 61 4 74 30 111 65 89 158 108
245 49z"/>
<path fill="#CE3D32"  d="M5130 1331 c-78 -25 -127 -74 -165 -161 -15 -32 -20 -66 -19 -125 0
-72 4 -87 33 -140 41 -73 76 -103 149 -127 65 -21 116 -23 192 -5 44 10 65 22
109 64 29 28 51 57 49 65 -3 7 -23 14 -46 16 -35 3 -46 -2 -80 -32 -85 -77
-201 -67 -269 22 -20 26 -33 55 -33 73 0 16 1 30 3 31 1 1 103 5 227 8 l225 5
-2 64 c-3 99 -40 163 -126 218 -36 23 -54 27 -132 30 -49 1 -101 -1 -115 -6z
m207 -98 c56 -43 80 -107 49 -132 -9 -8 -62 -11 -166 -9 -132 3 -154 5 -164
20 -21 35 48 129 109 148 50 16 133 3 172 -27z"/>
<path fill="#CE3D32"  d="M5894 1330 c-120 -28 -197 -179 -173 -334 14 -87 46 -142 109 -187
91 -66 215 -64 317 6 35 23 39 24 51 8 6 -9 12 -25 12 -35 0 -16 7 -19 48 -16
l47 3 1 273 c1 262 0 274 -18 281 -11 4 -31 7 -46 6 -21 0 -27 -6 -34 -32 -10
-40 -30 -42 -69 -8 -16 13 -46 29 -67 35 -42 11 -131 12 -178 0z m210 -89 c46
-30 75 -70 91 -125 19 -62 19 -74 -1 -133 -29 -86 -101 -143 -183 -143 -55 0
-90 15 -133 57 -96 93 -86 249 21 331 38 29 49 32 109 32 49 0 75 -5 96 -19z"/>
</g>
</svg>
