<svg width="52" height="52" viewBox="0 0 52 52" fill="none" xmlns="http://www.w3.org/2000/svg">
<path d="M40.269 11.7815L32.956 4.46847C32.7166 4.22712 32.4318 4.03556 32.118 3.90483C31.8042 3.7741 31.4677 3.70679 31.1277 3.70679C30.7878 3.70679 30.4512 3.7741 30.1375 3.90483C29.8237 4.03556 29.5389 4.22712 29.2995 4.46847C28.8199 4.95093 28.5507 5.60357 28.5507 6.28385C28.5507 6.96413 28.8199 7.61677 29.2995 8.09922L34.7585 13.5582L13.901 34.4157L8.442 28.9567C7.95954 28.4771 7.3069 28.2079 6.62662 28.2079C5.94634 28.2079 5.29371 28.4771 4.81125 28.9567C4.5699 29.1961 4.37833 29.4809 4.2476 29.7947C4.11687 30.1085 4.04957 30.445 4.04957 30.785C4.04957 31.1249 4.11687 31.4615 4.2476 31.7753C4.37833 32.089 4.5699 32.3738 4.81125 32.6132L12.047 39.849L19.2827 47.0847C19.5212 47.328 19.8056 47.5216 20.1195 47.6542C20.4333 47.7868 20.7703 47.8558 21.111 47.8572C21.6225 47.8602 22.1232 47.7108 22.5494 47.4281C22.9756 47.1453 23.308 46.7421 23.5041 46.2697C23.7003 45.7973 23.7513 45.2772 23.6507 44.7758C23.5501 44.2743 23.3024 43.8141 22.9392 43.454L17.5575 38.0722L38.415 17.2147L43.874 22.6737C44.1141 22.9121 44.3988 23.1009 44.7118 23.2293C45.0249 23.3576 45.3601 23.4231 45.6985 23.4219C46.0368 23.4207 46.3716 23.3529 46.6837 23.2223C46.9959 23.0917 47.2792 22.9009 47.5176 22.6608C47.756 22.4208 47.9448 22.1361 48.0732 21.823C48.2015 21.51 48.267 21.1747 48.2658 20.8364C48.2646 20.498 48.1968 20.1632 48.0662 19.8511C47.9356 19.539 47.7448 19.2556 47.5047 19.0172L40.269 11.7815ZM4.81125 39.8747C4.32636 39.3898 3.66872 39.1174 2.983 39.1174C2.29727 39.1174 1.63963 39.3898 1.15475 39.8747C0.669865 40.3596 0.397461 41.0172 0.397461 41.703C0.397461 42.3887 0.669865 43.0463 1.15475 43.5312L8.442 50.8185C8.68261 51.0571 8.96796 51.2459 9.28169 51.3741C9.59542 51.5022 9.93136 51.5672 10.2702 51.5652C10.6091 51.5672 10.9451 51.5022 11.2588 51.3741C11.5725 51.2459 11.8579 51.0571 12.0985 50.8185C12.3398 50.5791 12.5314 50.2943 12.6621 49.9805C12.7929 49.6667 12.8602 49.3302 12.8602 48.9902C12.8602 48.6503 12.7929 48.3137 12.6621 47.9999C12.5314 47.6862 12.3398 47.4014 12.0985 47.162L4.81125 39.8747ZM51.1612 8.09922L43.874 0.811973C43.6339 0.571884 43.3489 0.381435 43.0352 0.2515C42.7215 0.121564 42.3853 0.0546875 42.0457 0.0546875C41.7062 0.0546875 41.37 0.121564 41.0563 0.2515C40.7426 0.381435 40.4576 0.571884 40.2175 0.811973C39.9774 1.05206 39.787 1.33709 39.657 1.65078C39.5271 1.96447 39.4602 2.30069 39.4602 2.64022C39.4602 2.97976 39.5271 3.31597 39.657 3.62967C39.787 3.94336 39.9774 4.22838 40.2175 4.46847L47.5047 11.7557C47.7441 11.9971 48.0289 12.1886 48.3427 12.3194C48.6565 12.4501 48.9931 12.5174 49.333 12.5174C49.6729 12.5174 50.0095 12.4501 50.3233 12.3194C50.6371 12.1886 50.9219 11.9971 51.1612 11.7557C51.4026 11.5163 51.5942 11.2315 51.7249 10.9178C51.8556 10.604 51.9229 10.2674 51.9229 9.92747C51.9229 9.58754 51.8556 9.25098 51.7249 8.93719C51.5942 8.6234 51.4026 8.3386 51.1612 8.09922V8.09922Z" fill="#1A171B"/>
</svg>
