<svg width="25" height="24" viewBox="0 0 25 24" fill="none" xmlns="http://www.w3.org/2000/svg">
<path d="M18.7853 9.00003L9.12533 3.46003C8.60262 3.15819 8.00933 3.00006 7.40572 3.00172C6.80212 3.00338 6.20971 3.16476 5.68866 3.46947C5.16761 3.77417 4.73649 4.21135 4.43908 4.7366C4.14167 5.26185 3.98857 5.85646 3.99533 6.46003V17.58C3.99533 18.4871 4.35565 19.357 4.99703 19.9983C5.6384 20.6397 6.50829 21 7.41533 21C8.01577 20.999 8.60542 20.8404 9.12533 20.54L18.7853 15C19.3044 14.6996 19.7353 14.268 20.0349 13.7485C20.3345 13.2289 20.4922 12.6397 20.4922 12.04C20.4922 11.4403 20.3345 10.8511 20.0349 10.3316C19.7353 9.81206 19.3044 9.38044 18.7853 9.08003V9.00003ZM17.7853 13.19L8.12533 18.81C7.90882 18.9327 7.6642 18.9972 7.41533 18.9972C7.16647 18.9972 6.92185 18.9327 6.70533 18.81C6.48943 18.6854 6.31015 18.5061 6.18552 18.2902C6.06088 18.0743 5.99529 17.8293 5.99533 17.58V6.42003C5.99529 6.17072 6.06088 5.9258 6.18552 5.70989C6.31015 5.49397 6.48943 5.31468 6.70533 5.19003C6.92274 5.06918 7.16663 5.00392 7.41533 5.00003C7.66386 5.00513 7.90747 5.07032 8.12533 5.19003L17.7853 10.77C18.0013 10.8946 18.1807 11.0739 18.3054 11.2898C18.4301 11.5057 18.4958 11.7507 18.4958 12C18.4958 12.2494 18.4301 12.4943 18.3054 12.7102C18.1807 12.9262 18.0013 13.1054 17.7853 13.23V13.19Z" fill="white"/>
</svg>
